<svg id="svg" version="1.1" xmlns="http://www.w3.org/2000/svg" xmlns:xlink="http://www.w3.org/1999/xlink" width="400" height="400" viewBox="0, 0, 400,400"><g id="svgg"><path id="path0" d="M43.747 0.606 C 44.006 1.282,43.472 1.374,42.452 0.828 C 41.482 0.309,40.323 1.018,41.200 1.594 C 41.729 1.941,41.727 1.988,41.180 1.994 C 40.839 1.997,40.374 1.814,40.148 1.588 C 39.865 1.305,39.181 1.417,37.968 1.945 C 36.222 2.705,36.212 2.720,37.200 3.132 C 38.172 3.538,38.175 3.550,37.300 3.575 C 36.805 3.589,36.400 3.780,36.400 4.000 C 36.400 4.565,34.500 4.500,34.310 3.929 C 34.222 3.666,33.934 3.593,33.657 3.765 C 33.276 4.000,33.270 4.202,33.630 4.636 C 33.938 5.007,33.953 5.200,33.673 5.200 C 33.439 5.200,33.136 5.020,33.000 4.800 C 32.557 4.083,31.901 4.379,32.116 5.200 C 32.353 6.108,31.996 6.236,31.263 5.503 C 30.946 5.186,30.664 5.150,30.483 5.403 C 30.328 5.622,29.840 5.997,29.400 6.238 C 26.280 7.944,25.234 8.754,25.370 9.359 C 25.424 9.601,25.393 9.665,25.301 9.500 C 24.993 8.950,24.403 9.190,23.173 10.366 C 22.349 11.153,22.123 11.589,22.476 11.708 C 22.764 11.804,22.598 11.817,22.106 11.736 C 20.805 11.521,11.521 20.805,11.736 22.106 C 11.817 22.598,11.804 22.764,11.708 22.476 C 11.589 22.123,11.153 22.349,10.366 23.173 C 9.190 24.403,8.950 24.993,9.500 25.301 C 9.665 25.393,9.601 25.424,9.359 25.370 C 8.751 25.233,8.082 26.092,6.300 29.300 C 6.025 29.795,5.622 30.328,5.403 30.483 C 5.150 30.664,5.186 30.946,5.503 31.263 C 6.236 31.996,6.108 32.353,5.200 32.116 C 4.379 31.901,4.083 32.557,4.800 33.000 C 5.020 33.136,5.200 33.439,5.200 33.673 C 5.200 33.953,5.007 33.938,4.636 33.630 C 4.202 33.270,4.000 33.276,3.765 33.657 C 3.593 33.934,3.666 34.222,3.929 34.310 C 4.500 34.500,4.565 36.400,4.000 36.400 C 3.780 36.400,3.589 36.805,3.575 37.300 C 3.550 38.175,3.538 38.172,3.132 37.200 C 2.720 36.212,2.705 36.222,1.945 37.968 C 1.417 39.181,1.305 39.865,1.588 40.148 C 1.814 40.374,1.997 40.839,1.994 41.180 C 1.988 41.727,1.941 41.729,1.594 41.200 C 0.999 40.294,0.315 41.495,0.854 42.501 C 1.073 42.910,1.164 43.459,1.058 43.722 C 0.913 44.078,0.855 44.072,0.832 43.700 C 0.814 43.425,0.622 43.200,0.405 43.200 C 0.146 43.200,0.010 97.075,0.010 200.000 C 0.010 293.165,0.157 356.800,0.372 356.800 C 0.571 356.800,0.824 356.575,0.935 356.300 C 1.090 355.917,1.144 355.923,1.168 356.326 C 1.186 356.616,1.033 357.165,0.828 357.548 C 0.309 358.518,1.018 359.677,1.594 358.800 C 1.941 358.271,1.988 358.273,1.994 358.820 C 1.997 359.161,1.814 359.626,1.588 359.852 C 1.305 360.135,1.417 360.819,1.945 362.032 C 2.705 363.778,2.720 363.788,3.132 362.800 C 3.538 361.828,3.550 361.825,3.575 362.700 C 3.589 363.195,3.780 363.600,4.000 363.600 C 4.565 363.600,4.500 365.500,3.929 365.690 C 3.666 365.778,3.593 366.066,3.765 366.343 C 4.000 366.724,4.202 366.730,4.636 366.370 C 5.007 366.062,5.200 366.047,5.200 366.327 C 5.200 366.561,5.020 366.864,4.800 367.000 C 4.083 367.443,4.379 368.099,5.200 367.884 C 6.108 367.647,6.236 368.004,5.503 368.737 C 5.186 369.054,5.150 369.336,5.403 369.517 C 5.622 369.672,6.025 370.205,6.300 370.700 C 8.082 373.908,8.751 374.767,9.359 374.630 C 9.601 374.576,9.665 374.607,9.500 374.699 C 8.950 375.007,9.190 375.597,10.366 376.827 C 11.153 377.651,11.589 377.877,11.708 377.524 C 11.804 377.236,11.813 377.418,11.727 377.929 C 11.549 378.984,15.398 382.963,16.272 382.628 C 16.540 382.525,16.679 382.657,16.580 382.920 C 16.253 383.799,21.024 388.449,22.072 388.273 C 22.583 388.187,22.764 388.196,22.476 388.292 C 22.123 388.411,22.349 388.847,23.173 389.634 C 24.403 390.810,24.993 391.050,25.301 390.500 C 25.393 390.335,25.424 390.399,25.370 390.641 C 25.233 391.249,26.092 391.918,29.300 393.700 C 29.795 393.975,30.328 394.378,30.483 394.597 C 30.664 394.850,30.946 394.814,31.263 394.497 C 31.996 393.764,32.353 393.892,32.116 394.800 C 31.901 395.621,32.557 395.917,33.000 395.200 C 33.136 394.980,33.439 394.800,33.673 394.800 C 33.953 394.800,33.938 394.993,33.630 395.364 C 33.270 395.798,33.276 396.000,33.657 396.235 C 33.934 396.407,34.222 396.334,34.310 396.071 C 34.500 395.500,36.400 395.435,36.400 396.000 C 36.400 396.220,36.805 396.411,37.300 396.425 C 38.175 396.450,38.172 396.462,37.200 396.868 C 36.212 397.280,36.222 397.295,37.968 398.055 C 39.181 398.583,39.865 398.695,40.148 398.412 C 40.374 398.186,40.839 398.003,41.180 398.006 C 41.727 398.012,41.729 398.059,41.200 398.406 C 40.323 398.982,41.482 399.691,42.452 399.172 C 42.835 398.967,43.474 398.814,43.874 398.832 C 44.294 398.850,44.389 398.948,44.100 399.065 C 43.825 399.176,43.600 399.429,43.600 399.627 C 43.600 399.841,107.408 399.988,200.041 399.989 C 338.397 399.991,356.456 399.922,356.254 399.395 C 355.994 398.718,356.527 398.626,357.548 399.172 C 358.518 399.691,359.677 398.982,358.800 398.406 C 358.271 398.059,358.273 398.012,358.820 398.006 C 359.161 398.003,359.626 398.186,359.852 398.412 C 360.135 398.695,360.819 398.583,362.032 398.055 C 363.778 397.295,363.788 397.280,362.800 396.868 C 361.828 396.462,361.825 396.450,362.700 396.425 C 363.195 396.411,363.600 396.220,363.600 396.000 C 363.600 395.435,365.500 395.500,365.690 396.071 C 365.778 396.334,366.066 396.407,366.343 396.235 C 366.724 396.000,366.730 395.798,366.370 395.364 C 366.062 394.993,366.047 394.800,366.327 394.800 C 366.561 394.800,366.864 394.980,367.000 395.200 C 367.443 395.917,368.099 395.621,367.884 394.800 C 367.647 393.892,368.004 393.764,368.737 394.497 C 369.054 394.814,369.336 394.850,369.517 394.597 C 369.672 394.378,370.205 393.975,370.700 393.700 C 373.872 391.938,374.842 391.192,374.559 390.733 C 374.449 390.555,374.625 390.511,374.950 390.636 C 375.291 390.767,376.071 390.357,376.794 389.665 C 377.636 388.861,377.876 388.410,377.524 388.292 C 377.236 388.196,377.402 388.183,377.894 388.264 C 379.195 388.479,388.479 379.195,388.264 377.894 C 388.183 377.402,388.196 377.236,388.292 377.524 C 388.410 377.876,388.861 377.636,389.665 376.794 C 390.357 376.071,390.767 375.291,390.636 374.950 C 390.511 374.625,390.555 374.449,390.733 374.559 C 391.189 374.841,392.079 373.678,393.762 370.600 C 394.003 370.160,394.378 369.672,394.597 369.517 C 394.850 369.336,394.814 369.054,394.497 368.737 C 393.764 368.004,393.892 367.647,394.800 367.884 C 395.621 368.099,395.917 367.443,395.200 367.000 C 394.980 366.864,394.800 366.561,394.800 366.327 C 394.800 366.047,394.993 366.062,395.364 366.370 C 395.798 366.730,396.000 366.724,396.235 366.343 C 396.407 366.066,396.334 365.778,396.071 365.690 C 395.500 365.500,395.435 363.600,396.000 363.600 C 396.220 363.600,396.411 363.195,396.425 362.700 C 396.450 361.825,396.462 361.828,396.868 362.800 C 397.280 363.788,397.295 363.778,398.055 362.032 C 398.583 360.819,398.695 360.135,398.412 359.852 C 398.186 359.626,398.003 359.161,398.006 358.820 C 398.012 358.273,398.059 358.271,398.406 358.800 C 398.982 359.677,399.691 358.518,399.172 357.548 C 398.626 356.527,398.718 355.994,399.395 356.253 C 399.921 356.455,399.990 338.317,399.990 199.841 C 399.990 106.767,399.843 43.200,399.628 43.200 C 399.429 43.200,399.176 43.425,399.065 43.700 C 398.910 44.083,398.856 44.077,398.832 43.674 C 398.814 43.384,398.967 42.835,399.172 42.452 C 399.691 41.482,398.982 40.323,398.406 41.200 C 398.059 41.729,398.012 41.727,398.006 41.180 C 398.003 40.839,398.186 40.374,398.412 40.148 C 398.695 39.865,398.583 39.181,398.055 37.968 C 397.295 36.222,397.280 36.212,396.868 37.200 C 396.462 38.172,396.450 38.175,396.425 37.300 C 396.411 36.805,396.220 36.400,396.000 36.400 C 395.435 36.400,395.500 34.500,396.071 34.310 C 396.334 34.222,396.407 33.934,396.235 33.657 C 396.000 33.276,395.798 33.270,395.364 33.630 C 394.993 33.938,394.800 33.953,394.800 33.673 C 394.800 33.439,394.980 33.136,395.200 33.000 C 395.917 32.557,395.621 31.901,394.800 32.116 C 393.892 32.353,393.764 31.996,394.497 31.263 C 394.814 30.946,394.850 30.664,394.597 30.483 C 394.378 30.328,393.975 29.795,393.700 29.300 C 391.918 26.092,391.249 25.233,390.641 25.370 C 390.399 25.424,390.335 25.393,390.500 25.301 C 391.050 24.993,390.810 24.403,389.634 23.173 C 388.847 22.349,388.411 22.123,388.292 22.476 C 388.196 22.764,388.184 22.593,388.267 22.096 C 388.386 21.380,387.330 20.113,383.181 15.996 C 378.279 11.132,376.793 9.962,377.345 11.400 C 377.471 11.730,377.401 12.000,377.187 12.000 C 376.974 12.000,376.800 11.627,376.800 11.171 C 376.800 10.097,375.750 9.057,374.969 9.357 C 374.633 9.485,374.449 9.445,374.559 9.267 C 374.750 8.957,373.446 7.600,372.957 7.600 C 372.829 7.600,372.225 7.245,371.617 6.812 C 370.453 5.983,369.692 6.147,370.452 7.063 C 371.009 7.734,370.549 7.771,369.844 7.112 C 369.556 6.843,369.405 6.303,369.507 5.912 C 369.704 5.158,369.019 4.922,368.600 5.600 C 368.164 6.305,367.668 6.027,367.884 5.200 C 368.099 4.379,367.443 4.083,367.000 4.800 C 366.864 5.020,366.561 5.200,366.327 5.200 C 366.047 5.200,366.062 5.007,366.370 4.636 C 366.730 4.202,366.724 4.000,366.343 3.765 C 366.066 3.593,365.778 3.666,365.690 3.929 C 365.500 4.500,363.600 4.565,363.600 4.000 C 363.600 3.780,363.195 3.589,362.700 3.575 C 361.825 3.550,361.828 3.538,362.800 3.132 C 363.788 2.720,363.778 2.705,362.032 1.945 C 360.819 1.417,360.135 1.305,359.852 1.588 C 359.626 1.814,359.161 1.997,358.820 1.994 C 358.273 1.988,358.271 1.941,358.800 1.594 C 359.706 0.999,358.505 0.315,357.499 0.854 C 357.090 1.073,356.541 1.164,356.278 1.058 C 355.922 0.913,355.928 0.855,356.300 0.832 C 356.575 0.814,356.800 0.622,356.800 0.405 C 356.800 0.145,303.109 0.010,200.160 0.011 C 61.800 0.012,43.546 0.081,43.747 0.606 M35.067 3.067 C 34.606 3.527,34.775 4.000,35.400 4.000 C 35.730 4.000,36.000 3.730,36.000 3.400 C 36.000 2.775,35.527 2.606,35.067 3.067 M364.000 3.367 C 364.000 3.715,364.285 4.000,364.633 4.000 C 365.340 4.000,365.217 3.139,364.475 2.892 C 364.214 2.805,364.000 3.018,364.000 3.367 M3.067 35.067 C 2.606 35.527,2.775 36.000,3.400 36.000 C 3.730 36.000,4.000 35.730,4.000 35.400 C 4.000 34.775,3.527 34.606,3.067 35.067 M396.000 35.367 C 396.000 35.715,396.285 36.000,396.633 36.000 C 396.982 36.000,397.195 35.786,397.108 35.525 C 396.861 34.783,396.000 34.660,396.000 35.367 M239.183 63.169 C 239.410 63.592,239.827 64.177,240.111 64.469 C 240.394 64.761,241.062 65.630,241.594 66.400 C 242.126 67.170,242.665 67.890,242.793 68.000 C 242.920 68.110,246.854 73.330,251.535 79.600 C 256.215 85.870,260.263 91.270,260.528 91.600 C 260.794 91.930,261.450 92.830,261.986 93.600 C 262.523 94.370,263.069 95.090,263.201 95.200 C 263.333 95.310,268.617 102.330,274.943 110.800 C 281.269 119.270,286.659 126.470,286.922 126.800 C 287.185 127.130,288.265 128.570,289.322 130.000 C 290.380 131.430,291.460 132.871,291.722 133.201 C 295.529 137.993,308.829 156.102,308.731 156.362 C 308.515 156.937,290.424 170.401,289.891 170.384 C 289.621 170.375,287.600 167.928,285.400 164.947 C 283.200 161.966,281.214 159.318,280.987 159.063 C 280.760 158.809,280.138 157.970,279.606 157.200 C 279.074 156.430,278.531 155.710,278.400 155.600 C 278.269 155.490,277.729 154.770,277.200 154.000 C 276.671 153.230,276.135 152.510,276.007 152.400 C 275.880 152.290,272.560 147.880,268.629 142.600 C 260.432 131.589,258.393 128.863,257.718 128.009 C 256.777 126.818,247.376 114.301,246.000 112.405 C 243.611 109.114,232.223 93.929,231.787 93.452 C 231.560 93.203,230.938 92.370,230.406 91.600 C 229.874 90.830,229.331 90.110,229.200 90.000 C 229.069 89.890,228.523 89.170,227.986 88.400 C 227.450 87.630,226.796 86.730,226.532 86.400 C 219.933 78.139,219.061 76.510,220.623 75.356 C 221.186 74.940,225.281 71.863,229.723 68.517 C 238.219 62.118,238.528 61.944,239.183 63.169 M200.875 104.086 C 203.804 106.553,206.290 108.671,206.400 108.792 C 206.510 108.912,207.588 109.819,208.796 110.805 C 210.004 111.792,211.444 112.988,211.996 113.463 C 212.548 113.937,215.610 116.523,218.800 119.209 C 221.990 121.895,225.140 124.567,225.800 125.147 C 226.460 125.727,230.240 128.898,234.200 132.194 C 238.160 135.490,241.670 138.463,242.000 138.801 C 242.330 139.138,243.590 140.220,244.800 141.205 C 246.010 142.190,247.202 143.187,247.449 143.419 C 247.697 143.652,248.658 144.462,249.585 145.221 C 251.670 146.926,252.157 147.335,254.849 149.649 C 256.856 151.374,265.689 158.812,279.087 170.060 C 282.215 172.686,284.874 174.996,284.996 175.194 C 285.176 175.484,279.082 183.196,276.773 185.600 C 276.456 185.930,275.387 187.189,274.398 188.399 C 271.192 192.319,270.252 193.237,269.563 193.117 C 268.976 193.015,257.885 183.921,249.996 177.072 C 249.444 176.592,248.010 175.390,246.810 174.400 C 245.610 173.410,244.082 172.121,243.414 171.535 C 242.746 170.949,239.590 168.279,236.400 165.601 C 233.210 162.923,230.147 160.342,229.593 159.866 C 227.716 158.251,223.422 154.603,222.609 153.932 C 221.905 153.350,213.730 146.486,208.400 142.001 C 200.834 135.635,194.811 130.541,193.799 129.654 C 193.138 129.074,191.610 127.790,190.403 126.800 C 189.196 125.810,187.756 124.608,187.204 124.128 C 186.652 123.648,185.660 122.786,185.000 122.213 C 184.340 121.639,183.039 120.592,182.110 119.885 C 180.153 118.397,179.692 117.416,180.507 116.471 C 181.462 115.365,192.106 102.660,193.400 101.082 C 195.032 99.092,194.870 99.027,200.875 104.086 M162.800 149.518 C 164.734 150.392,169.551 152.650,176.600 155.988 C 179.020 157.134,182.080 158.575,183.400 159.189 C 189.037 161.815,192.538 163.467,197.938 166.053 C 201.094 167.564,203.734 168.800,203.805 168.800 C 203.876 168.800,206.244 169.896,209.067 171.235 C 219.655 176.257,220.878 176.837,224.100 178.355 C 225.915 179.210,228.570 180.455,230.000 181.122 C 231.430 181.789,235.277 183.610,238.549 185.168 C 241.821 186.725,244.573 188.000,244.664 188.000 C 244.754 188.000,247.117 189.098,249.914 190.440 C 256.332 193.519,260.659 195.573,264.100 197.170 C 267.352 198.681,267.332 198.372,264.561 204.250 C 263.329 206.863,261.689 210.350,260.916 212.000 C 256.403 221.634,257.582 220.815,252.042 218.168 C 249.547 216.976,247.456 216.000,247.396 216.000 C 247.336 216.000,244.612 214.724,241.343 213.165 C 238.075 211.606,234.095 209.716,232.500 208.965 C 228.056 206.873,224.288 205.094,218.662 202.432 C 215.837 201.094,213.466 200.000,213.393 200.000 C 213.320 200.000,210.772 198.814,207.731 197.365 C 196.917 192.213,182.780 185.528,178.200 183.401 C 170.537 179.843,168.668 178.964,164.600 177.007 C 162.180 175.843,158.940 174.310,157.400 173.601 C 149.050 169.757,149.558 171.079,153.369 163.105 C 155.001 159.689,156.730 156.018,157.211 154.947 C 159.109 150.716,159.372 150.169,159.920 149.303 C 160.232 148.810,160.603 148.474,160.744 148.556 C 160.885 148.638,161.810 149.071,162.800 149.518 M150.301 203.615 C 155.526 204.723,161.600 206.003,163.800 206.458 C 166.000 206.914,168.520 207.447,169.400 207.644 C 170.280 207.841,171.990 208.198,173.200 208.438 C 175.268 208.848,176.337 209.071,180.500 209.965 C 181.435 210.165,183.190 210.533,184.400 210.782 C 185.610 211.031,187.320 211.390,188.200 211.580 C 189.080 211.770,190.790 212.122,192.000 212.362 C 193.210 212.602,195.010 212.979,196.000 213.200 C 196.990 213.421,198.700 213.779,199.800 213.996 C 200.900 214.212,203.420 214.734,205.400 215.155 C 207.380 215.575,210.800 216.290,213.000 216.743 C 215.200 217.196,220.060 218.214,223.800 219.005 C 227.540 219.796,231.410 220.605,232.400 220.803 C 233.390 221.001,235.910 221.535,238.000 221.990 C 240.090 222.445,242.340 222.914,243.000 223.032 C 244.146 223.238,245.158 223.451,249.200 224.340 C 250.190 224.557,252.035 224.958,253.300 225.231 C 256.180 225.853,256.174 225.809,254.379 233.200 C 254.192 233.970,253.741 236.130,253.377 238.000 C 251.783 246.190,251.253 248.507,250.894 248.866 C 250.483 249.277,246.506 248.570,234.800 246.007 C 232.710 245.550,230.100 245.001,229.000 244.789 C 227.900 244.576,226.190 244.221,225.200 244.000 C 224.210 243.779,222.500 243.419,221.400 243.200 C 220.300 242.981,218.590 242.621,217.600 242.400 C 216.610 242.179,214.810 241.802,213.600 241.562 C 212.390 241.322,210.635 240.963,209.700 240.763 C 208.765 240.563,207.235 240.237,206.300 240.037 C 205.365 239.837,203.610 239.478,202.400 239.238 C 201.190 238.998,199.390 238.621,198.400 238.399 C 197.410 238.177,195.790 237.839,194.800 237.647 C 193.810 237.456,190.390 236.746,187.200 236.069 C 179.095 234.350,166.301 231.656,163.200 231.016 C 159.542 230.261,152.843 228.856,148.600 227.955 C 146.620 227.534,144.100 227.012,143.000 226.796 C 141.900 226.579,140.280 226.240,139.400 226.042 C 138.520 225.844,137.211 225.550,136.492 225.389 C 134.633 224.974,134.635 225.226,136.411 216.733 C 139.325 202.793,139.627 201.600,140.234 201.600 C 140.547 201.600,145.077 202.507,150.301 203.615 M109.502 266.900 L 109.604 302.000 191.800 302.000 L 273.996 302.000 274.098 266.900 L 274.200 231.800 286.000 231.800 L 297.800 231.800 297.902 278.901 L 298.003 326.001 191.902 325.901 L 85.800 325.800 85.698 279.025 C 85.618 241.870,85.700 232.183,86.098 231.927 C 86.374 231.750,91.730 231.649,98.000 231.703 L 109.400 231.800 109.502 266.900 M250.200 266.400 L 250.200 278.200 191.400 278.200 L 132.600 278.200 132.494 266.805 C 132.435 260.538,132.475 255.182,132.582 254.904 C 132.737 254.498,144.414 254.417,191.488 254.499 L 250.200 254.600 250.200 266.400 M2.892 364.475 C 3.139 365.217,4.000 365.340,4.000 364.633 C 4.000 364.285,3.715 364.000,3.367 364.000 C 3.018 364.000,2.805 364.214,2.892 364.475 M396.000 364.633 C 396.000 364.982,396.214 365.195,396.475 365.108 C 397.217 364.861,397.340 364.000,396.633 364.000 C 396.285 364.000,396.000 364.285,396.000 364.633 M34.892 396.475 C 35.139 397.217,36.000 397.340,36.000 396.633 C 36.000 396.285,35.715 396.000,35.367 396.000 C 35.018 396.000,34.805 396.214,34.892 396.475 M364.000 396.633 C 364.000 396.982,364.214 397.195,364.475 397.108 C 365.217 396.861,365.340 396.000,364.633 396.000 C 364.285 396.000,364.000 396.285,364.000 396.633 " stroke="none" fill="#f48323" fill-rule="evenodd"></path><path id="path1" d="M229.723 68.517 C 225.281 71.863,221.186 74.940,220.623 75.356 C 219.061 76.510,219.933 78.139,226.532 86.400 C 226.796 86.730,227.450 87.630,227.986 88.400 C 228.523 89.170,229.069 89.890,229.200 90.000 C 229.331 90.110,229.874 90.830,230.406 91.600 C 230.938 92.370,231.560 93.203,231.787 93.452 C 232.223 93.929,243.611 109.114,246.000 112.405 C 247.376 114.301,256.777 126.818,257.718 128.009 C 258.393 128.863,260.432 131.589,268.629 142.600 C 272.560 147.880,275.880 152.290,276.007 152.400 C 276.135 152.510,276.671 153.230,277.200 154.000 C 277.729 154.770,278.269 155.490,278.400 155.600 C 278.531 155.710,279.074 156.430,279.606 157.200 C 280.138 157.970,280.760 158.809,280.987 159.063 C 281.214 159.318,283.200 161.966,285.400 164.947 C 287.600 167.928,289.621 170.375,289.891 170.384 C 290.424 170.401,308.515 156.937,308.731 156.362 C 308.829 156.102,295.529 137.993,291.722 133.201 C 291.460 132.871,290.380 131.430,289.322 130.000 C 288.265 128.570,287.185 127.130,286.922 126.800 C 286.659 126.470,281.269 119.270,274.943 110.800 C 268.617 102.330,263.333 95.310,263.201 95.200 C 263.069 95.090,262.523 94.370,261.986 93.600 C 261.450 92.830,260.794 91.930,260.528 91.600 C 260.263 91.270,256.215 85.870,251.535 79.600 C 246.854 73.330,242.920 68.110,242.793 68.000 C 242.665 67.890,242.126 67.170,241.594 66.400 C 241.062 65.630,240.394 64.761,240.111 64.469 C 239.827 64.177,239.410 63.592,239.183 63.169 C 238.528 61.944,238.219 62.118,229.723 68.517 M242.393 68.300 C 244.464 71.105,246.267 73.490,246.399 73.600 C 246.531 73.710,247.077 74.430,247.614 75.200 C 248.150 75.970,248.810 76.870,249.081 77.200 C 249.352 77.530,252.114 81.203,255.217 85.361 C 258.321 89.520,261.362 93.570,261.974 94.361 C 262.585 95.153,269.587 104.477,277.533 115.083 C 285.479 125.689,292.626 135.229,293.416 136.283 C 294.206 137.337,295.065 138.474,295.326 138.809 C 295.587 139.144,296.535 140.404,297.434 141.609 C 298.332 142.814,301.077 146.478,303.534 149.752 C 305.990 153.026,307.995 155.906,307.988 156.152 C 307.971 156.753,290.309 169.921,289.800 169.711 C 289.580 169.621,285.170 163.875,280.000 156.944 C 274.830 150.012,270.300 143.949,269.932 143.470 C 269.565 142.992,258.951 128.830,246.344 112.000 C 233.738 95.170,223.323 81.310,223.200 81.200 C 221.827 79.970,220.113 76.802,220.528 76.262 C 221.210 75.374,237.673 63.200,238.191 63.200 C 238.431 63.200,240.322 65.495,242.393 68.300 M193.400 101.082 C 192.106 102.660,181.462 115.365,180.507 116.471 C 179.692 117.416,180.153 118.397,182.110 119.885 C 183.039 120.592,184.340 121.639,185.000 122.213 C 185.660 122.786,186.652 123.648,187.204 124.128 C 187.756 124.608,189.196 125.810,190.403 126.800 C 191.610 127.790,193.138 129.074,193.799 129.654 C 194.811 130.541,200.834 135.635,208.400 142.001 C 213.730 146.486,221.905 153.350,222.609 153.932 C 223.422 154.603,227.716 158.251,229.593 159.866 C 230.147 160.342,233.210 162.923,236.400 165.601 C 239.590 168.279,242.746 170.949,243.414 171.535 C 244.082 172.121,245.610 173.410,246.810 174.400 C 248.010 175.390,249.444 176.592,249.996 177.072 C 257.885 183.921,268.976 193.015,269.563 193.117 C 270.252 193.237,271.192 192.319,274.398 188.399 C 275.387 187.189,276.456 185.930,276.773 185.600 C 279.082 183.196,285.176 175.484,284.996 175.194 C 284.874 174.996,282.215 172.686,279.087 170.060 C 265.689 158.812,256.856 151.374,254.849 149.649 C 252.157 147.335,251.670 146.926,249.585 145.221 C 248.658 144.462,247.697 143.652,247.449 143.419 C 247.202 143.187,246.010 142.190,244.800 141.205 C 243.590 140.220,242.330 139.138,242.000 138.801 C 241.670 138.463,238.160 135.490,234.200 132.194 C 230.240 128.898,226.460 125.727,225.800 125.147 C 225.140 124.567,221.990 121.895,218.800 119.209 C 215.610 116.523,212.548 113.937,211.996 113.463 C 211.444 112.988,210.004 111.792,208.796 110.805 C 207.588 109.819,206.510 108.912,206.400 108.792 C 205.351 107.641,195.437 99.602,195.075 99.609 C 194.814 99.614,194.060 100.277,193.400 101.082 M201.034 104.866 C 203.693 107.140,208.441 111.160,211.584 113.800 C 217.359 118.650,218.188 119.352,220.004 120.928 C 220.556 121.408,221.996 122.610,223.203 123.600 C 224.410 124.590,225.938 125.869,226.599 126.442 C 229.192 128.690,233.971 132.742,237.400 135.599 C 239.380 137.249,241.090 138.691,241.200 138.805 C 241.310 138.918,242.390 139.816,243.600 140.800 C 244.810 141.784,245.890 142.694,246.000 142.823 C 246.203 143.062,248.567 145.056,256.800 151.937 C 259.330 154.052,261.490 155.878,261.600 155.996 C 261.710 156.114,262.789 157.019,263.999 158.005 C 265.208 158.992,266.738 160.274,267.399 160.854 C 268.059 161.433,271.210 164.106,274.400 166.793 C 285.746 176.351,284.826 175.378,283.698 176.625 C 282.774 177.646,273.393 188.819,271.600 191.033 C 269.803 193.251,270.022 193.301,265.738 189.688 C 263.725 187.990,259.405 184.342,256.138 181.581 C 252.872 178.821,248.400 175.058,246.200 173.218 C 244.000 171.379,241.557 169.317,240.772 168.637 C 239.986 167.957,238.906 167.036,238.372 166.590 C 237.837 166.145,235.172 163.895,232.449 161.590 C 229.726 159.286,224.326 154.727,220.449 151.461 C 216.572 148.195,212.590 144.836,211.600 143.997 C 210.610 143.158,208.333 141.241,206.539 139.736 C 190.239 126.058,183.957 120.736,182.299 119.200 L 180.356 117.400 184.214 112.800 C 186.336 110.270,188.908 107.227,189.930 106.038 C 190.952 104.849,192.492 103.012,193.351 101.955 C 195.227 99.650,194.702 99.451,201.034 104.866 M159.920 149.303 C 159.372 150.169,159.109 150.716,157.211 154.947 C 156.730 156.018,155.001 159.689,153.369 163.105 C 149.558 171.079,149.050 169.757,157.400 173.601 C 158.940 174.310,162.180 175.843,164.600 177.007 C 168.668 178.964,170.537 179.843,178.200 183.401 C 182.780 185.528,196.917 192.213,207.731 197.365 C 210.772 198.814,213.320 200.000,213.393 200.000 C 213.466 200.000,215.837 201.094,218.662 202.432 C 224.288 205.094,228.056 206.873,232.500 208.965 C 234.095 209.716,238.075 211.606,241.343 213.165 C 244.612 214.724,247.336 216.000,247.396 216.000 C 247.456 216.000,249.547 216.976,252.042 218.168 C 257.582 220.815,256.403 221.634,260.916 212.000 C 261.689 210.350,263.329 206.863,264.561 204.250 C 267.332 198.372,267.352 198.681,264.100 197.170 C 260.659 195.573,256.332 193.519,249.914 190.440 C 247.117 189.098,244.754 188.000,244.664 188.000 C 244.573 188.000,241.821 186.725,238.549 185.168 C 235.277 183.610,231.430 181.789,230.000 181.122 C 228.570 180.455,225.915 179.210,224.100 178.355 C 220.878 176.837,219.655 176.257,209.067 171.235 C 206.244 169.896,203.876 168.800,203.805 168.800 C 203.734 168.800,201.094 167.564,197.938 166.053 C 192.538 163.467,189.037 161.815,183.400 159.189 C 182.080 158.575,179.020 157.134,176.600 155.988 C 169.551 152.650,164.734 150.392,162.800 149.518 C 161.810 149.071,160.885 148.638,160.744 148.556 C 160.603 148.474,160.232 148.810,159.920 149.303 M163.463 150.365 C 166.173 151.678,170.084 153.526,182.600 159.409 C 184.140 160.133,188.910 162.382,193.200 164.406 C 197.490 166.431,202.305 168.698,203.900 169.444 C 209.741 172.176,212.698 173.568,217.200 175.707 C 219.730 176.909,222.790 178.347,224.000 178.903 C 226.868 180.220,232.004 182.628,237.000 184.998 C 239.200 186.041,242.710 187.697,244.800 188.678 C 251.066 191.619,252.328 192.216,258.956 195.373 C 262.452 197.038,265.457 198.400,265.633 198.400 C 266.341 198.400,266.342 199.170,265.636 200.646 C 264.936 202.108,264.024 204.057,260.556 211.500 C 257.829 217.352,256.716 219.600,256.547 219.600 C 256.373 219.600,252.990 218.035,246.600 214.998 C 240.473 212.087,235.488 209.748,233.400 208.805 C 232.300 208.308,227.890 206.237,223.600 204.201 C 219.310 202.166,214.540 199.918,213.000 199.205 C 210.091 197.859,207.595 196.679,198.261 192.236 C 195.214 190.786,192.663 189.600,192.591 189.600 C 192.520 189.600,189.972 188.411,186.931 186.959 C 181.460 184.346,178.527 182.964,172.500 180.156 C 170.795 179.362,167.780 177.939,165.800 176.995 C 155.551 172.109,151.864 170.400,151.571 170.400 C 150.787 170.400,150.895 169.546,151.957 167.353 C 153.050 165.094,154.360 162.313,157.588 155.400 C 158.410 153.640,159.400 151.525,159.787 150.700 C 160.631 148.902,160.472 148.916,163.463 150.365 M138.847 205.300 C 134.579 224.580,134.536 224.952,136.492 225.389 C 137.211 225.550,138.520 225.844,139.400 226.042 C 140.280 226.240,141.900 226.579,143.000 226.796 C 144.100 227.012,146.620 227.534,148.600 227.955 C 152.843 228.856,159.542 230.261,163.200 231.016 C 166.301 231.656,179.095 234.350,187.200 236.069 C 190.390 236.746,193.810 237.456,194.800 237.647 C 195.790 237.839,197.410 238.177,198.400 238.399 C 199.390 238.621,201.190 238.998,202.400 239.238 C 203.610 239.478,205.365 239.837,206.300 240.037 C 207.235 240.237,208.765 240.563,209.700 240.763 C 210.635 240.963,212.390 241.322,213.600 241.562 C 214.810 241.802,216.610 242.179,217.600 242.400 C 218.590 242.621,220.300 242.981,221.400 243.200 C 222.500 243.419,224.210 243.779,225.200 244.000 C 226.190 244.221,227.900 244.576,229.000 244.789 C 230.100 245.001,232.710 245.550,234.800 246.007 C 246.506 248.570,250.483 249.277,250.894 248.866 C 251.253 248.507,251.783 246.190,253.377 238.000 C 253.741 236.130,254.192 233.970,254.379 233.200 C 256.174 225.809,256.180 225.853,253.300 225.231 C 252.035 224.958,250.190 224.557,249.200 224.340 C 245.158 223.451,244.146 223.238,243.000 223.032 C 242.340 222.914,240.090 222.445,238.000 221.990 C 235.910 221.535,233.390 221.001,232.400 220.803 C 231.410 220.605,227.540 219.796,223.800 219.005 C 220.060 218.214,215.200 217.196,213.000 216.743 C 210.800 216.290,207.380 215.575,205.400 215.155 C 203.420 214.734,200.900 214.212,199.800 213.996 C 198.700 213.779,196.990 213.421,196.000 213.200 C 195.010 212.979,193.210 212.602,192.000 212.362 C 190.790 212.122,189.080 211.770,188.200 211.580 C 187.320 211.390,185.610 211.031,184.400 210.782 C 183.190 210.533,181.435 210.165,180.500 209.965 C 176.337 209.071,175.268 208.848,173.200 208.438 C 171.990 208.198,170.280 207.841,169.400 207.644 C 168.520 207.447,166.000 206.914,163.800 206.458 C 161.600 206.003,155.526 204.723,150.301 203.615 C 145.077 202.507,140.547 201.600,140.234 201.600 C 139.843 201.600,139.410 202.753,138.847 205.300 M145.600 203.184 C 146.590 203.414,148.300 203.781,149.400 204.000 C 150.500 204.219,152.210 204.579,153.200 204.801 C 154.190 205.023,155.900 205.392,157.000 205.620 C 158.100 205.848,159.720 206.191,160.600 206.382 C 161.480 206.573,163.100 206.905,164.200 207.120 C 165.300 207.335,168.000 207.888,170.200 208.349 C 172.400 208.811,176.720 209.717,179.800 210.363 C 182.880 211.009,189.810 212.456,195.200 213.579 C 207.695 216.181,212.203 217.138,214.200 217.613 C 215.080 217.822,218.140 218.464,221.000 219.041 C 226.660 220.182,232.256 221.349,235.400 222.045 C 236.500 222.288,238.120 222.627,239.000 222.796 C 239.880 222.966,243.390 223.689,246.800 224.403 C 250.210 225.116,253.495 225.788,254.100 225.896 C 254.705 226.003,255.200 226.205,255.200 226.345 C 255.200 226.586,253.828 233.269,251.945 242.200 C 251.481 244.400,251.010 246.716,250.899 247.346 C 250.658 248.706,249.419 248.636,241.200 246.800 C 240.210 246.579,238.500 246.219,237.400 246.000 C 236.300 245.781,234.680 245.441,233.800 245.244 C 232.920 245.047,230.400 244.515,228.200 244.061 C 226.000 243.608,221.590 242.679,218.400 241.998 C 215.210 241.317,211.790 240.598,210.800 240.400 C 208.889 240.018,195.133 237.141,185.800 235.170 C 175.412 232.977,172.206 232.308,170.600 231.997 C 169.720 231.827,168.010 231.468,166.800 231.200 C 165.590 230.932,163.880 230.573,163.000 230.403 C 161.199 230.054,153.840 228.502,151.400 227.956 C 150.520 227.759,148.900 227.421,147.800 227.204 C 146.700 226.988,144.090 226.445,142.000 225.998 C 139.910 225.551,137.615 225.075,136.900 224.940 C 135.361 224.650,135.371 224.775,136.447 219.529 C 136.912 217.258,137.432 214.680,137.603 213.800 C 137.773 212.920,138.109 211.300,138.349 210.200 C 139.617 204.385,140.000 202.586,140.000 202.449 C 140.000 202.234,143.472 202.690,145.600 203.184 M86.098 231.927 C 85.700 232.183,85.618 241.870,85.698 279.025 L 85.800 325.800 191.902 325.901 L 298.003 326.001 297.902 278.901 L 297.800 231.800 286.000 231.800 L 274.200 231.800 274.098 266.900 L 273.996 302.000 191.800 302.000 L 109.604 302.000 109.502 266.900 L 109.400 231.800 98.000 231.703 C 91.730 231.649,86.374 231.750,86.098 231.927 M108.900 232.393 C 109.065 232.397,109.200 248.150,109.200 267.400 L 109.200 302.400 191.800 302.400 L 274.400 302.400 274.400 267.433 C 274.400 244.625,274.538 232.420,274.797 232.333 C 275.016 232.260,280.236 232.250,286.397 232.312 L 297.600 232.424 297.600 279.012 L 297.600 325.600 191.800 325.600 L 86.000 325.600 86.000 279.029 C 86.000 235.754,86.047 232.450,86.671 232.329 C 87.154 232.236,104.041 232.285,108.900 232.393 M132.582 254.904 C 132.475 255.182,132.435 260.538,132.494 266.805 L 132.600 278.200 191.400 278.200 L 250.200 278.200 250.200 266.400 L 250.200 254.600 191.488 254.499 C 144.414 254.417,132.737 254.498,132.582 254.904 M249.906 266.500 L 250.012 278.000 191.639 278.000 C 153.325 278.000,133.221 277.863,133.133 277.603 C 133.060 277.384,133.050 272.163,133.112 266.001 L 133.224 254.797 191.512 254.899 L 249.800 255.000 249.906 266.500 " stroke="none" fill="#faae74" fill-rule="evenodd"></path></g></svg>