<svg id="svg" xmlns="http://www.w3.org/2000/svg" xmlns:xlink="http://www.w3.org/1999/xlink" width="400" height="320" viewBox="0, 0, 400,320" version="1.1"><g id="svgg"><path id="path0" d="M291.820 33.588 C 281.217 34.941,270.815 43.594,267.766 53.600 C 267.498 54.480,267.081 55.848,266.839 56.640 C 266.245 58.588,266.245 66.797,266.840 68.960 C 268.983 76.761,272.436 81.978,278.361 86.371 C 280.439 87.912,285.463 90.560,286.307 90.560 C 286.539 90.560,286.979 90.691,287.284 90.852 C 289.477 92.003,299.871 92.469,303.200 91.566 C 311.181 89.400,317.200 85.392,321.233 79.558 C 325.103 73.959,326.490 69.566,326.497 62.880 C 326.503 57.213,325.824 54.273,323.432 49.600 C 317.573 38.159,305.183 31.882,291.820 33.588 M211.680 97.315 C 205.627 97.951,200.507 98.948,195.360 100.493 C 188.289 102.615,176.633 108.096,175.040 110.048 C 174.952 110.155,174.376 110.623,173.760 111.087 C 172.182 112.276,168.637 115.701,166.990 117.627 C 164.617 120.405,164.307 120.788,162.988 122.579 C 154.914 133.540,151.529 142.493,151.199 153.760 C 150.765 168.565,149.392 174.575,143.816 186.080 C 137.776 198.542,128.283 209.827,116.640 218.385 C 115.936 218.903,115.288 219.406,115.200 219.503 C 114.349 220.444,102.374 228.367,98.788 230.362 C 97.870 230.872,96.328 231.734,95.360 232.278 C 92.202 234.050,81.912 239.040,81.414 239.040 C 81.321 239.040,80.641 239.315,79.902 239.651 C 73.219 242.694,60.702 246.674,47.520 249.949 C 44.704 250.649,41.788 251.379,41.040 251.572 L 39.680 251.923 39.680 285.962 L 39.680 320.000 71.120 320.000 L 102.560 320.000 102.448 312.232 C 102.287 301.005,103.610 285.526,105.163 280.480 C 105.714 278.689,107.104 274.740,107.528 273.760 C 108.772 270.884,109.404 269.518,110.738 266.816 C 112.115 264.028,112.870 262.647,115.490 258.128 C 116.287 256.754,120.690 250.259,121.455 249.328 C 121.694 249.038,122.724 247.705,123.745 246.367 C 128.645 239.940,138.266 230.186,145.133 224.683 C 153.484 217.990,163.583 211.613,173.280 206.907 C 175.744 205.712,177.991 204.617,178.273 204.474 C 178.555 204.331,183.379 202.323,188.993 200.011 C 200.799 195.150,199.945 195.507,202.329 194.433 C 203.346 193.975,204.320 193.600,204.493 193.600 C 204.667 193.600,205.059 193.463,205.364 193.296 C 205.670 193.128,206.424 192.785,207.040 192.533 C 207.656 192.281,208.843 191.769,209.678 191.396 C 210.514 191.023,212.454 190.198,213.991 189.561 C 220.595 186.828,228.826 182.812,232.128 180.714 C 236.580 177.884,238.859 176.090,244.012 171.360 C 244.359 171.042,246.535 168.575,247.933 166.915 C 258.085 154.863,261.549 136.486,256.777 120.000 C 256.496 119.032,256.188 117.880,256.091 117.440 C 255.994 117.000,255.814 116.496,255.692 116.320 C 255.570 116.144,255.209 115.280,254.891 114.400 C 253.805 111.401,251.469 108.368,247.167 104.369 C 246.912 104.132,245.519 103.257,244.072 102.425 C 240.886 100.595,238.178 99.560,233.120 98.239 C 228.795 97.109,218.043 96.646,211.680 97.315 " stroke="none" fill="#ffffff" fill-rule="evenodd"></path><path id="path1" d="M39.680 125.920 C 39.680 195.176,39.771 251.840,39.883 251.840 C 39.994 251.840,40.606 251.699,41.243 251.527 C 41.879 251.355,44.704 250.643,47.520 249.946 C 60.625 246.699,73.207 242.699,79.902 239.651 C 80.641 239.315,81.321 239.040,81.414 239.040 C 81.912 239.040,92.202 234.050,95.360 232.278 C 96.328 231.734,97.870 230.872,98.788 230.362 C 102.374 228.367,114.349 220.444,115.200 219.503 C 115.288 219.406,115.936 218.903,116.640 218.385 C 128.283 209.827,137.776 198.542,143.816 186.080 C 149.392 174.575,150.765 168.565,151.199 153.760 C 151.529 142.493,154.914 133.540,162.988 122.579 C 164.307 120.788,164.617 120.405,166.990 117.627 C 168.637 115.701,172.182 112.276,173.760 111.087 C 174.376 110.623,174.952 110.155,175.040 110.048 C 175.490 109.496,181.483 106.035,184.225 104.743 C 192.757 100.722,201.714 98.327,212.091 97.289 C 218.695 96.629,228.682 97.080,233.120 98.239 C 238.178 99.560,240.886 100.595,244.072 102.425 C 245.519 103.257,246.912 104.132,247.167 104.369 C 251.469 108.368,253.805 111.401,254.891 114.400 C 255.209 115.280,255.570 116.144,255.692 116.320 C 255.814 116.496,255.994 117.000,256.091 117.440 C 256.188 117.880,256.496 119.032,256.777 120.000 C 261.549 136.486,258.085 154.863,247.933 166.915 C 246.535 168.575,244.359 171.042,244.012 171.360 C 238.859 176.090,236.580 177.884,232.128 180.714 C 228.826 182.812,220.595 186.828,213.991 189.561 C 212.454 190.198,210.514 191.023,209.678 191.396 C 208.843 191.769,207.656 192.281,207.040 192.533 C 206.424 192.785,205.670 193.128,205.364 193.296 C 205.059 193.463,204.667 193.600,204.493 193.600 C 204.320 193.600,203.346 193.975,202.329 194.433 C 199.945 195.507,200.799 195.150,188.993 200.011 C 183.379 202.323,178.555 204.331,178.273 204.474 C 177.991 204.617,175.744 205.712,173.280 206.907 C 163.583 211.613,153.484 217.990,145.133 224.683 C 138.266 230.186,128.645 239.940,123.745 246.367 C 122.724 247.705,121.694 249.038,121.455 249.328 C 120.690 250.259,116.287 256.754,115.490 258.128 C 112.870 262.647,112.115 264.028,110.738 266.816 C 109.404 269.518,108.772 270.884,107.528 273.760 C 106.759 275.538,105.067 280.631,104.498 282.880 C 103.231 287.888,101.882 313.254,102.603 318.515 L 102.807 320.000 231.563 320.000 L 360.320 320.000 360.320 160.000 L 360.320 0.000 200.000 0.000 L 39.680 0.000 39.680 125.920 M303.464 34.052 C 324.440 39.516,333.274 62.140,321.233 79.558 C 317.200 85.392,311.181 89.400,303.200 91.566 C 299.871 92.469,289.477 92.003,287.284 90.852 C 286.979 90.691,286.539 90.560,286.307 90.560 C 285.463 90.560,280.439 87.912,278.361 86.371 C 272.436 81.978,268.983 76.761,266.840 68.960 C 266.245 66.797,266.245 58.588,266.839 56.640 C 267.081 55.848,267.498 54.480,267.766 53.600 C 272.042 39.569,288.998 30.284,303.464 34.052 " stroke="none" fill="#000000" fill-rule="evenodd"></path></g></svg>