<svg id="svg" version="1.1" xmlns="http://www.w3.org/2000/svg" xmlns:xlink="http://www.w3.org/1999/xlink" width="400" height="409.04761904761904" viewBox="0, 0, 400,409.04761904761904"><g id="svgg"><path id="path0" d="M0.000 204.400 L 0.000 408.800 200.000 408.800 L 400.000 408.800 400.000 204.400 L 400.000 0.000 200.000 0.000 L 0.000 0.000 0.000 204.400 M301.615 6.584 C 336.852 11.074,366.668 30.722,384.493 61.200 C 391.505 73.189,395.245 84.114,398.461 102.000 C 398.904 104.464,399.000 122.797,399.000 204.600 C 399.000 286.403,398.904 304.736,398.461 307.200 C 396.515 318.025,395.758 321.143,393.317 328.400 C 379.647 369.032,341.866 398.981,299.452 402.808 C 293.873 403.311,106.591 403.295,101.400 402.791 C 54.403 398.226,15.559 364.242,4.445 317.963 C 1.519 305.780,1.608 309.329,1.604 204.388 C 1.600 105.184,1.563 107.627,3.241 97.000 C 4.096 91.580,7.440 79.839,9.392 75.400 C 11.698 70.158,14.188 64.948,15.424 62.782 C 16.235 61.362,17.257 59.570,17.697 58.800 C 32.627 32.642,64.375 11.517,95.200 7.229 C 98.390 6.785,101.450 6.351,102.000 6.265 C 105.412 5.732,297.332 6.038,301.615 6.584 M326.739 51.327 C 308.175 56.956,305.447 82.121,322.400 91.348 C 341.000 101.471,361.680 81.557,352.367 62.491 C 347.833 53.211,336.627 48.329,326.739 51.327 M192.600 94.795 C 151.469 97.587,114.410 124.202,98.745 162.200 C 68.742 234.975,121.612 314.192,200.355 314.447 C 277.251 314.696,330.294 238.136,303.480 165.600 C 286.902 120.755,241.094 91.503,192.600 94.795 M210.600 138.966 C 262.867 148.197,284.656 208.241,250.292 248.347 C 220.531 283.079,162.918 276.314,141.751 235.600 C 121.791 197.209,142.204 151.364,184.237 140.180 C 191.000 138.381,203.917 137.786,210.600 138.966 " stroke="none" fill="#f3f3f3" fill-rule="evenodd"></path><path id="path1" d="M103.200 6.671 C 54.568 9.385,12.696 47.900,3.478 98.400 L 2.200 105.400 2.200 204.600 L 2.200 303.800 3.520 310.975 C 12.819 361.541,52.305 397.898,102.800 402.388 C 109.172 402.955,291.648 402.943,298.200 402.376 C 349.808 397.906,390.891 358.500,398.050 306.600 C 398.873 300.633,399.027 114.858,398.216 105.939 C 393.457 53.587,350.487 10.757,298.765 6.811 C 293.980 6.446,109.597 6.314,103.200 6.671 M339.600 50.959 C 348.851 53.907,354.982 62.465,354.959 72.400 C 354.905 96.130,322.487 102.981,312.575 81.357 C 304.661 64.091,321.472 45.181,339.600 50.959 M211.400 94.614 C 269.070 101.344,310.828 147.411,310.917 204.400 C 311.044 286.665,224.107 340.284,150.673 303.230 C 142.435 299.074,137.274 295.688,129.606 289.411 C 107.900 271.642,93.010 243.739,90.430 216.000 C 84.599 153.288,129.367 99.741,192.200 94.274 C 196.581 93.892,206.763 94.073,211.400 94.614 M193.200 139.055 C 136.049 146.156,113.933 216.742,157.117 254.214 C 203.219 294.216,274.917 254.832,265.644 194.600 C 260.330 160.087,227.364 134.811,193.200 139.055 " stroke="none" fill="#040404" fill-rule="evenodd"></path><path id="path2" d="M153.700 6.300 C 179.165 6.357,220.835 6.357,246.300 6.300 C 271.765 6.243,250.930 6.197,200.000 6.197 C 149.070 6.197,128.235 6.243,153.700 6.300 M103.105 6.683 C 103.602 6.779,104.322 6.775,104.705 6.675 C 105.087 6.575,104.680 6.496,103.800 6.501 C 102.920 6.505,102.607 6.587,103.105 6.683 M296.300 6.682 C 296.795 6.778,297.605 6.778,298.100 6.682 C 298.595 6.587,298.190 6.509,297.200 6.509 C 296.210 6.509,295.805 6.587,296.300 6.682 M362.800 35.000 C 363.546 35.770,364.247 36.400,364.357 36.400 C 364.467 36.400,363.946 35.770,363.200 35.000 C 362.454 34.230,361.753 33.600,361.643 33.600 C 361.533 33.600,362.054 34.230,362.800 35.000 M36.981 35.700 L 35.400 37.400 37.100 35.819 C 38.681 34.348,38.984 34.000,38.681 34.000 C 38.616 34.000,37.851 34.765,36.981 35.700 M30.778 41.900 L 29.400 43.400 30.900 42.022 C 32.296 40.738,32.584 40.400,32.278 40.400 C 32.212 40.400,31.537 41.075,30.778 41.900 M369.600 41.800 C 370.346 42.570,371.047 43.200,371.157 43.200 C 371.267 43.200,370.746 42.570,370.000 41.800 C 369.254 41.030,368.553 40.400,368.443 40.400 C 368.333 40.400,368.854 41.030,369.600 41.800 M20.800 54.400 C 20.330 55.060,20.036 55.600,20.146 55.600 C 20.256 55.600,20.730 55.060,21.200 54.400 C 21.670 53.740,21.964 53.200,21.854 53.200 C 21.744 53.200,21.270 53.740,20.800 54.400 M347.600 55.725 C 347.600 55.794,348.185 56.379,348.900 57.025 L 350.200 58.200 349.025 56.900 C 347.930 55.688,347.600 55.416,347.600 55.725 M354.924 72.200 C 354.926 73.520,355.001 74.012,355.090 73.293 C 355.179 72.574,355.177 71.494,355.086 70.893 C 354.995 70.292,354.922 70.880,354.924 72.200 M310.514 72.200 C 310.517 73.300,310.595 73.703,310.687 73.095 C 310.779 72.486,310.777 71.586,310.682 71.095 C 310.587 70.603,310.511 71.100,310.514 72.200 M317.000 88.000 C 317.859 88.880,318.652 89.600,318.762 89.600 C 318.872 89.600,318.259 88.880,317.400 88.000 C 316.541 87.120,315.748 86.400,315.638 86.400 C 315.528 86.400,316.141 87.120,317.000 88.000 M348.181 88.100 L 346.600 89.800 348.300 88.219 C 349.881 86.748,350.184 86.400,349.881 86.400 C 349.816 86.400,349.051 87.165,348.181 88.100 M326.200 93.600 C 326.640 93.789,327.270 93.944,327.600 93.944 C 327.978 93.944,327.904 93.817,327.400 93.600 C 326.960 93.411,326.330 93.256,326.000 93.256 C 325.622 93.256,325.696 93.383,326.200 93.600 M196.880 94.298 C 198.794 94.371,202.034 94.371,204.080 94.298 C 206.126 94.226,204.560 94.166,200.600 94.165 C 196.640 94.165,194.966 94.224,196.880 94.298 M189.900 94.682 C 190.395 94.778,191.205 94.778,191.700 94.682 C 192.195 94.587,191.790 94.509,190.800 94.509 C 189.810 94.509,189.405 94.587,189.900 94.682 M209.300 94.676 C 209.685 94.776,210.315 94.776,210.700 94.676 C 211.085 94.575,210.770 94.493,210.000 94.493 C 209.230 94.493,208.915 94.575,209.300 94.676 M398.093 104.400 C 398.093 105.170,398.175 105.485,398.276 105.100 C 398.376 104.715,398.376 104.085,398.276 103.700 C 398.175 103.315,398.093 103.630,398.093 104.400 M2.101 108.600 C 2.105 109.480,2.187 109.793,2.283 109.295 C 2.379 108.798,2.375 108.078,2.275 107.695 C 2.175 107.313,2.096 107.720,2.101 108.600 M398.509 108.800 C 398.509 109.790,398.587 110.195,398.682 109.700 C 398.778 109.205,398.778 108.395,398.682 107.900 C 398.587 107.405,398.509 107.810,398.509 108.800 M398.997 204.600 C 398.997 254.760,399.043 275.221,399.100 250.068 C 399.157 224.915,399.157 183.875,399.100 158.868 C 399.043 133.861,398.997 154.440,398.997 204.600 M121.991 126.700 L 118.600 130.200 122.100 126.809 C 125.351 123.659,125.782 123.200,125.491 123.200 C 125.431 123.200,123.856 124.775,121.991 126.700 M278.400 126.600 C 280.260 128.470,281.872 130.000,281.982 130.000 C 282.092 130.000,280.660 128.470,278.800 126.600 C 276.940 124.730,275.328 123.200,275.218 123.200 C 275.108 123.200,276.540 124.730,278.400 126.600 M198.515 138.696 C 199.788 138.776,201.768 138.775,202.915 138.694 C 204.062 138.614,203.020 138.549,200.600 138.550 C 198.180 138.551,197.242 138.616,198.515 138.696 M192.500 139.076 C 192.885 139.176,193.515 139.176,193.900 139.076 C 194.285 138.975,193.970 138.893,193.200 138.893 C 192.430 138.893,192.115 138.975,192.500 139.076 M207.300 139.076 C 207.685 139.176,208.315 139.176,208.700 139.076 C 209.085 138.975,208.770 138.893,208.000 138.893 C 207.230 138.893,206.915 138.975,207.300 139.076 M244.000 154.910 C 244.000 154.971,245.395 156.366,247.100 158.010 L 250.200 161.000 247.210 157.900 C 244.433 155.021,244.000 154.617,244.000 154.910 M153.188 158.300 L 150.600 161.000 153.300 158.412 C 154.785 156.988,156.000 155.773,156.000 155.712 C 156.000 155.417,155.593 155.792,153.188 158.300 M300.034 157.000 C 300.034 157.220,300.378 158.030,300.800 158.800 C 301.222 159.570,301.566 160.020,301.566 159.800 C 301.566 159.580,301.222 158.770,300.800 158.000 C 300.378 157.230,300.034 156.780,300.034 157.000 M310.509 196.400 C 310.509 197.390,310.587 197.795,310.682 197.300 C 310.778 196.805,310.778 195.995,310.682 195.500 C 310.587 195.005,310.509 195.410,310.509 196.400 M266.109 199.200 C 266.109 200.190,266.187 200.595,266.282 200.100 C 266.378 199.605,266.378 198.795,266.282 198.300 C 266.187 197.805,266.109 198.210,266.109 199.200 M134.493 199.200 C 134.493 199.970,134.575 200.285,134.676 199.900 C 134.776 199.515,134.776 198.885,134.676 198.500 C 134.575 198.115,134.493 198.430,134.493 199.200 M310.942 204.600 C 310.941 206.580,311.008 207.440,311.092 206.512 C 311.176 205.584,311.177 203.964,311.095 202.912 C 311.012 201.860,310.943 202.620,310.942 204.600 M266.109 210.000 C 266.109 210.990,266.187 211.395,266.282 210.900 C 266.378 210.405,266.378 209.595,266.282 209.100 C 266.187 208.605,266.109 209.010,266.109 210.000 M134.493 210.000 C 134.493 210.770,134.575 211.085,134.676 210.700 C 134.776 210.315,134.776 209.685,134.676 209.300 C 134.575 208.915,134.493 209.230,134.493 210.000 M90.093 212.000 C 90.093 212.770,90.175 213.085,90.276 212.700 C 90.376 212.315,90.376 211.685,90.276 211.300 C 90.175 210.915,90.093 211.230,90.093 212.000 M310.509 212.800 C 310.509 213.790,310.587 214.195,310.682 213.700 C 310.778 213.205,310.778 212.395,310.682 211.900 C 310.587 211.405,310.509 211.810,310.509 212.800 M153.400 251.200 C 154.483 252.300,155.460 253.200,155.570 253.200 C 155.680 253.200,154.883 252.300,153.800 251.200 C 152.717 250.100,151.740 249.200,151.630 249.200 C 151.520 249.200,152.317 250.100,153.400 251.200 M246.786 251.500 L 244.600 253.800 246.900 251.614 C 249.037 249.582,249.383 249.200,249.086 249.200 C 249.024 249.200,247.989 250.235,246.786 251.500 M197.100 270.682 C 197.595 270.778,198.405 270.778,198.900 270.682 C 199.395 270.587,198.990 270.509,198.000 270.509 C 197.010 270.509,196.605 270.587,197.100 270.682 M202.300 270.682 C 202.795 270.778,203.605 270.778,204.100 270.682 C 204.595 270.587,204.190 270.509,203.200 270.509 C 202.210 270.509,201.805 270.587,202.300 270.682 M117.200 277.400 C 117.946 278.170,118.647 278.800,118.757 278.800 C 118.867 278.800,118.346 278.170,117.600 277.400 C 116.854 276.630,116.153 276.000,116.043 276.000 C 115.933 276.000,116.454 276.630,117.200 277.400 M278.591 282.500 L 275.400 285.800 278.700 282.609 C 281.765 279.646,282.182 279.200,281.891 279.200 C 281.830 279.200,280.345 280.685,278.591 282.500 M122.400 283.000 C 123.595 284.210,124.663 285.200,124.773 285.200 C 124.883 285.200,123.995 284.210,122.800 283.000 C 121.605 281.790,120.537 280.800,120.427 280.800 C 120.317 280.800,121.205 281.790,122.400 283.000 M126.400 286.525 C 126.400 286.594,126.985 287.179,127.700 287.825 L 129.000 289.000 127.825 287.700 C 126.730 286.488,126.400 286.216,126.400 286.525 M272.575 288.100 L 271.400 289.400 272.700 288.225 C 273.415 287.579,274.000 286.994,274.000 286.925 C 274.000 286.616,273.670 286.888,272.575 288.100 M2.109 300.400 C 2.109 301.390,2.187 301.795,2.282 301.300 C 2.378 300.805,2.378 299.995,2.282 299.500 C 2.187 299.005,2.109 299.410,2.109 300.400 M398.509 300.400 C 398.509 301.390,398.587 301.795,398.682 301.300 C 398.778 300.805,398.778 299.995,398.682 299.500 C 398.587 299.005,398.509 299.410,398.509 300.400 M213.300 314.276 C 213.685 314.376,214.315 314.376,214.700 314.276 C 215.085 314.175,214.770 314.093,214.000 314.093 C 213.230 314.093,212.915 314.175,213.300 314.276 M189.500 314.682 C 189.995 314.778,190.805 314.778,191.300 314.682 C 191.795 314.587,191.390 314.509,190.400 314.509 C 189.410 314.509,189.005 314.587,189.500 314.682 M209.700 314.676 C 210.085 314.776,210.715 314.776,211.100 314.676 C 211.485 314.575,211.170 314.493,210.400 314.493 C 209.630 314.493,209.315 314.575,209.700 314.676 M197.519 315.098 C 199.344 315.172,202.224 315.172,203.919 315.097 C 205.614 315.022,204.120 314.961,200.600 314.962 C 197.080 314.962,195.694 315.024,197.519 315.098 M32.200 368.800 C 33.506 370.120,34.665 371.200,34.775 371.200 C 34.885 371.200,33.906 370.120,32.600 368.800 C 31.294 367.480,30.135 366.400,30.025 366.400 C 29.915 366.400,30.894 367.480,32.200 368.800 M366.392 370.700 L 362.600 374.600 366.500 370.808 C 368.645 368.722,370.400 366.967,370.400 366.908 C 370.400 366.618,369.914 367.078,366.392 370.700 M36.400 373.000 C 37.146 373.770,37.847 374.400,37.957 374.400 C 38.067 374.400,37.546 373.770,36.800 373.000 C 36.054 372.230,35.353 371.600,35.243 371.600 C 35.133 371.600,35.654 372.230,36.400 373.000 M103.100 402.682 C 103.595 402.778,104.405 402.778,104.900 402.682 C 105.395 402.587,104.990 402.509,104.000 402.509 C 103.010 402.509,102.605 402.587,103.100 402.682 M296.105 402.687 C 296.714 402.779,297.614 402.777,298.105 402.682 C 298.597 402.587,298.100 402.511,297.000 402.514 C 295.900 402.517,295.497 402.595,296.105 402.687 M153.700 403.100 C 179.165 403.157,220.835 403.157,246.300 403.100 C 271.765 403.043,250.930 402.997,200.000 402.997 C 149.070 402.997,128.235 403.043,153.700 403.100 " stroke="none" fill="#565656" fill-rule="evenodd"></path><path id="path3" d="M103.500 6.282 C 103.995 6.378,104.805 6.378,105.300 6.282 C 105.795 6.187,105.390 6.109,104.400 6.109 C 103.410 6.109,103.005 6.187,103.500 6.282 M295.300 6.287 C 295.905 6.378,296.895 6.378,297.500 6.287 C 298.105 6.195,297.610 6.120,296.400 6.120 C 295.190 6.120,294.695 6.195,295.300 6.287 M300.100 6.676 C 300.485 6.776,301.115 6.776,301.500 6.676 C 301.885 6.575,301.570 6.493,300.800 6.493 C 300.030 6.493,299.715 6.575,300.100 6.676 M340.000 18.579 C 340.000 18.689,340.540 19.059,341.200 19.400 C 341.860 19.741,342.400 19.931,342.400 19.821 C 342.400 19.711,341.860 19.341,341.200 19.000 C 340.540 18.659,340.000 18.469,340.000 18.579 M364.000 35.800 C 364.746 36.570,365.447 37.200,365.557 37.200 C 365.667 37.200,365.146 36.570,364.400 35.800 C 363.654 35.030,362.953 34.400,362.843 34.400 C 362.733 34.400,363.254 35.030,364.000 35.800 M35.200 37.000 C 34.228 37.990,33.523 38.800,33.633 38.800 C 33.743 38.800,34.628 37.990,35.600 37.000 C 36.572 36.010,37.277 35.200,37.167 35.200 C 37.057 35.200,36.172 36.010,35.200 37.000 M368.800 40.600 C 369.995 41.810,371.063 42.800,371.173 42.800 C 371.283 42.800,370.395 41.810,369.200 40.600 C 368.005 39.390,366.937 38.400,366.827 38.400 C 366.717 38.400,367.605 39.390,368.800 40.600 M31.381 40.900 L 29.800 42.600 31.500 41.019 C 32.435 40.149,33.200 39.384,33.200 39.319 C 33.200 39.016,32.852 39.319,31.381 40.900 M348.200 56.800 C 349.283 57.900,350.260 58.800,350.370 58.800 C 350.480 58.800,349.683 57.900,348.600 56.800 C 347.517 55.700,346.540 54.800,346.430 54.800 C 346.320 54.800,347.117 55.700,348.200 56.800 M316.975 56.900 L 315.800 58.200 317.100 57.025 C 317.815 56.379,318.400 55.794,318.400 55.725 C 318.400 55.416,318.070 55.688,316.975 56.900 M313.000 62.400 C 312.659 63.060,312.469 63.600,312.579 63.600 C 312.689 63.600,313.059 63.060,313.400 62.400 C 313.741 61.740,313.931 61.200,313.821 61.200 C 313.711 61.200,313.341 61.740,313.000 62.400 M310.937 72.200 C 310.939 73.960,311.009 74.630,311.093 73.689 C 311.178 72.749,311.177 71.309,311.091 70.489 C 311.005 69.670,310.936 70.440,310.937 72.200 M348.000 87.800 C 347.028 88.790,346.323 89.600,346.433 89.600 C 346.543 89.600,347.428 88.790,348.400 87.800 C 349.372 86.810,350.077 86.000,349.967 86.000 C 349.857 86.000,348.972 86.810,348.000 87.800 M317.400 88.000 C 318.259 88.880,319.052 89.600,319.162 89.600 C 319.272 89.600,318.659 88.880,317.800 88.000 C 316.941 87.120,316.148 86.400,316.038 86.400 C 315.928 86.400,316.541 87.120,317.400 88.000 M332.100 94.276 C 332.485 94.376,333.115 94.376,333.500 94.276 C 333.885 94.175,333.570 94.093,332.800 94.093 C 332.030 94.093,331.715 94.175,332.100 94.276 M194.100 94.687 C 194.705 94.778,195.695 94.778,196.300 94.687 C 196.905 94.595,196.410 94.520,195.200 94.520 C 193.990 94.520,193.495 94.595,194.100 94.687 M206.100 94.676 C 206.485 94.776,207.115 94.776,207.500 94.676 C 207.885 94.575,207.570 94.493,206.800 94.493 C 206.030 94.493,205.715 94.575,206.100 94.676 M398.501 104.600 C 398.505 105.480,398.587 105.793,398.683 105.295 C 398.779 104.798,398.775 104.078,398.675 103.695 C 398.575 103.313,398.496 103.720,398.501 104.600 M1.767 116.000 C 1.767 120.290,1.826 122.045,1.898 119.900 C 1.970 117.755,1.970 114.245,1.898 112.100 C 1.826 109.955,1.767 111.710,1.767 116.000 M398.914 110.200 C 398.917 111.300,398.995 111.703,399.087 111.095 C 399.179 110.486,399.177 109.586,399.082 109.095 C 398.987 108.603,398.911 109.100,398.914 110.200 M275.400 124.000 C 276.259 124.880,277.052 125.600,277.162 125.600 C 277.272 125.600,276.659 124.880,275.800 124.000 C 274.941 123.120,274.148 122.400,274.038 122.400 C 273.928 122.400,274.541 123.120,275.400 124.000 M122.392 126.700 L 118.600 130.600 122.500 126.808 C 126.122 123.286,126.582 122.800,126.292 122.800 C 126.233 122.800,124.478 124.555,122.392 126.700 M281.200 129.800 C 281.946 130.570,282.647 131.200,282.757 131.200 C 282.867 131.200,282.346 130.570,281.600 129.800 C 280.854 129.030,280.153 128.400,280.043 128.400 C 279.933 128.400,280.454 129.030,281.200 129.800 M1.754 138.000 C 1.754 140.750,1.818 141.875,1.896 140.500 C 1.974 139.125,1.974 136.875,1.896 135.500 C 1.818 134.125,1.754 135.250,1.754 138.000 M206.500 138.676 C 206.885 138.776,207.515 138.776,207.900 138.676 C 208.285 138.575,207.970 138.493,207.200 138.493 C 206.430 138.493,206.115 138.575,206.500 138.676 M1.754 157.200 C 1.754 159.950,1.818 161.075,1.896 159.700 C 1.974 158.325,1.974 156.075,1.896 154.700 C 1.818 153.325,1.754 154.450,1.754 157.200 M247.000 157.600 C 248.083 158.700,249.060 159.600,249.170 159.600 C 249.280 159.600,248.483 158.700,247.400 157.600 C 246.317 156.500,245.340 155.600,245.230 155.600 C 245.120 155.600,245.917 156.500,247.000 157.600 M152.985 158.100 L 151.000 160.200 153.100 158.215 C 155.051 156.371,155.383 156.000,155.085 156.000 C 155.022 156.000,154.077 156.945,152.985 158.100 M1.754 176.000 C 1.754 178.750,1.818 179.875,1.896 178.500 C 1.974 177.125,1.974 174.875,1.896 173.500 C 1.818 172.125,1.754 173.250,1.754 176.000 M90.893 191.200 C 90.893 191.970,90.975 192.285,91.076 191.900 C 91.176 191.515,91.176 190.885,91.076 190.500 C 90.975 190.115,90.893 190.430,90.893 191.200 M1.754 195.200 C 1.754 197.950,1.818 199.075,1.896 197.700 C 1.974 196.325,1.974 194.075,1.896 192.700 C 1.818 191.325,1.754 192.450,1.754 195.200 M90.493 194.800 C 90.493 195.570,90.575 195.885,90.676 195.500 C 90.776 195.115,90.776 194.485,90.676 194.100 C 90.575 193.715,90.493 194.030,90.493 194.800 M266.501 199.800 C 266.505 200.680,266.587 200.993,266.683 200.495 C 266.779 199.998,266.775 199.278,266.675 198.895 C 266.575 198.513,266.496 198.920,266.501 199.800 M90.158 204.600 C 90.158 207.680,90.221 208.887,90.297 207.282 C 90.373 205.678,90.373 203.158,90.296 201.682 C 90.219 200.207,90.157 201.520,90.158 204.600 M134.155 204.600 C 134.156 207.460,134.220 208.578,134.297 207.083 C 134.374 205.589,134.374 203.249,134.296 201.883 C 134.218 200.518,134.155 201.740,134.155 204.600 M310.554 205.200 C 310.554 207.950,310.618 209.075,310.696 207.700 C 310.774 206.325,310.774 204.075,310.696 202.700 C 310.618 201.325,310.554 202.450,310.554 205.200 M266.501 209.400 C 266.505 210.280,266.587 210.593,266.683 210.095 C 266.779 209.598,266.775 208.878,266.675 208.495 C 266.575 208.113,266.496 208.520,266.501 209.400 M1.753 214.200 C 1.753 216.840,1.818 217.868,1.897 216.484 C 1.975 215.101,1.974 212.941,1.895 211.684 C 1.816 210.428,1.752 211.560,1.753 214.200 M90.493 214.400 C 90.493 215.170,90.575 215.485,90.676 215.100 C 90.776 214.715,90.776 214.085,90.676 213.700 C 90.575 213.315,90.493 213.630,90.493 214.400 M1.754 233.200 C 1.754 235.950,1.818 237.075,1.896 235.700 C 1.974 234.325,1.974 232.075,1.896 230.700 C 1.818 229.325,1.754 230.450,1.754 233.200 M141.000 234.400 C 141.341 235.060,141.711 235.600,141.821 235.600 C 141.931 235.600,141.741 235.060,141.400 234.400 C 141.059 233.740,140.689 233.200,140.579 233.200 C 140.469 233.200,140.659 233.740,141.000 234.400 M1.753 252.200 C 1.753 254.840,1.818 255.868,1.897 254.484 C 1.975 253.101,1.974 250.941,1.895 249.684 C 1.816 248.428,1.752 249.560,1.753 252.200 M247.200 251.400 C 246.228 252.390,245.523 253.200,245.633 253.200 C 245.743 253.200,246.628 252.390,247.600 251.400 C 248.572 250.410,249.277 249.600,249.167 249.600 C 249.057 249.600,248.172 250.410,247.200 251.400 M233.500 261.829 C 232.005 262.640,232.096 262.978,233.600 262.200 C 234.260 261.859,234.800 261.494,234.800 261.390 C 234.800 261.132,234.757 261.147,233.500 261.829 M291.200 266.800 C 290.730 267.460,290.436 268.000,290.546 268.000 C 290.656 268.000,291.130 267.460,291.600 266.800 C 292.070 266.140,292.364 265.600,292.254 265.600 C 292.144 265.600,291.670 266.140,291.200 266.800 M1.754 271.200 C 1.754 273.950,1.818 275.075,1.896 273.700 C 1.974 272.325,1.974 270.075,1.896 268.700 C 1.818 267.325,1.754 268.450,1.754 271.200 M117.200 277.000 C 117.946 277.770,118.647 278.400,118.757 278.400 C 118.867 278.400,118.346 277.770,117.600 277.000 C 116.854 276.230,116.153 275.600,116.043 275.600 C 115.933 275.600,116.454 276.230,117.200 277.000 M279.787 280.900 L 277.400 283.400 279.900 281.013 C 281.275 279.699,282.400 278.574,282.400 278.513 C 282.400 278.217,282.005 278.578,279.787 280.900 M119.600 279.710 C 119.600 279.771,120.995 281.166,122.700 282.810 L 125.800 285.800 122.810 282.700 C 120.033 279.821,119.600 279.417,119.600 279.710 M275.775 284.900 L 274.600 286.200 275.900 285.025 C 276.615 284.379,277.200 283.794,277.200 283.725 C 277.200 283.416,276.870 283.688,275.775 284.900 M1.767 293.000 C 1.767 297.180,1.826 298.836,1.898 296.679 C 1.971 294.523,1.970 291.103,1.898 289.079 C 1.825 287.056,1.766 288.820,1.767 293.000 M126.800 286.525 C 126.800 286.594,127.385 287.179,128.100 287.825 L 129.400 289.000 128.225 287.700 C 127.130 286.488,126.800 286.216,126.800 286.525 M398.909 298.800 C 398.909 299.790,398.987 300.195,399.082 299.700 C 399.178 299.205,399.178 298.395,399.082 297.900 C 398.987 297.405,398.909 297.810,398.909 298.800 M398.501 304.600 C 398.505 305.480,398.587 305.793,398.683 305.295 C 398.779 304.798,398.775 304.078,398.675 303.695 C 398.575 303.313,398.496 303.720,398.501 304.600 M195.100 314.695 C 196.255 314.776,198.145 314.776,199.300 314.695 C 200.455 314.614,199.510 314.548,197.200 314.548 C 194.890 314.548,193.945 314.614,195.100 314.695 M204.707 314.690 C 205.426 314.779,206.506 314.777,207.107 314.686 C 207.708 314.595,207.120 314.522,205.800 314.524 C 204.480 314.526,203.988 314.601,204.707 314.690 M13.200 342.153 C 13.200 342.582,14.390 344.800,14.621 344.800 C 14.731 344.800,14.523 344.215,14.159 343.500 C 13.417 342.040,13.200 341.736,13.200 342.153 M33.200 370.200 C 35.060 372.070,36.672 373.600,36.782 373.600 C 36.892 373.600,35.460 372.070,33.600 370.200 C 31.740 368.330,30.128 366.800,30.018 366.800 C 29.908 366.800,31.340 368.330,33.200 370.200 M366.592 370.900 L 362.600 375.000 366.700 371.008 C 368.955 368.812,370.800 366.967,370.800 366.908 C 370.800 366.618,370.301 367.092,366.592 370.900 M40.000 376.600 C 40.746 377.370,41.447 378.000,41.557 378.000 C 41.667 378.000,41.146 377.370,40.400 376.600 C 39.654 375.830,38.953 375.200,38.843 375.200 C 38.733 375.200,39.254 375.830,40.000 376.600 M294.705 403.083 C 295.202 403.179,295.922 403.175,296.305 403.075 C 296.687 402.975,296.280 402.896,295.400 402.901 C 294.520 402.905,294.207 402.987,294.705 403.083 " stroke="none" fill="#848484" fill-rule="evenodd"></path><path id="path4" d="M1.754 128.400 C 1.754 131.150,1.818 132.275,1.896 130.900 C 1.974 129.525,1.974 127.275,1.896 125.900 C 1.818 124.525,1.754 125.650,1.754 128.400 M1.754 147.600 C 1.754 150.350,1.818 151.475,1.896 150.100 C 1.974 148.725,1.974 146.475,1.896 145.100 C 1.818 143.725,1.754 144.850,1.754 147.600 M1.753 166.600 C 1.753 169.240,1.818 170.268,1.897 168.884 C 1.975 167.501,1.974 165.341,1.895 164.084 C 1.816 162.828,1.752 163.960,1.753 166.600 M1.754 185.600 C 1.754 188.350,1.818 189.475,1.896 188.100 C 1.974 186.725,1.974 184.475,1.896 183.100 C 1.818 181.725,1.754 182.850,1.754 185.600 M1.754 204.800 C 1.754 207.550,1.818 208.675,1.896 207.300 C 1.974 205.925,1.974 203.675,1.896 202.300 C 1.818 200.925,1.754 202.050,1.754 204.800 M266.493 202.400 C 266.493 203.170,266.575 203.485,266.676 203.100 C 266.776 202.715,266.776 202.085,266.676 201.700 C 266.575 201.315,266.493 201.630,266.493 202.400 M266.493 206.800 C 266.493 207.570,266.575 207.885,266.676 207.500 C 266.776 207.115,266.776 206.485,266.676 206.100 C 266.575 205.715,266.493 206.030,266.493 206.800 M1.754 223.600 C 1.754 226.350,1.818 227.475,1.896 226.100 C 1.974 224.725,1.974 222.475,1.896 221.100 C 1.818 219.725,1.754 220.850,1.754 223.600 M1.754 242.800 C 1.754 245.550,1.818 246.675,1.896 245.300 C 1.974 243.925,1.974 241.675,1.896 240.300 C 1.818 238.925,1.754 240.050,1.754 242.800 M1.754 261.600 C 1.754 264.350,1.818 265.475,1.896 264.100 C 1.974 262.725,1.974 260.475,1.896 259.100 C 1.818 257.725,1.754 258.850,1.754 261.600 M1.754 280.800 C 1.754 283.550,1.818 284.675,1.896 283.300 C 1.974 281.925,1.974 279.675,1.896 278.300 C 1.818 276.925,1.754 278.050,1.754 280.800 " stroke="none" fill="#7c7c7c" fill-rule="evenodd"></path></g></svg>