<svg id="svg" version="1.1" xmlns="http://www.w3.org/2000/svg" xmlns:xlink="http://www.w3.org/1999/xlink" width="400" height="400" viewBox="0, 0, 400,400"><g id="svgg"><path id="path0" d="M20.000 5.327 C 18.349 6.189,16.764 7.298,16.936 7.470 C 17.099 7.632,21.200 5.200,21.200 4.940 C 21.200 4.725,21.077 4.765,20.000 5.327 M379.600 5.343 C 379.600 5.422,380.545 6.140,381.700 6.938 C 382.855 7.736,384.242 8.706,384.783 9.094 C 385.324 9.483,385.630 9.578,385.463 9.306 C 384.886 8.365,379.600 4.792,379.600 5.343 M14.962 8.858 C 14.205 9.710,14.206 9.713,15.078 9.256 C 16.050 8.746,16.649 8.000,16.086 8.000 C 15.887 8.000,15.381 8.386,14.962 8.858 M10.632 12.884 C 9.185 14.471,8.000 15.947,8.000 16.164 C 8.000 16.412,8.120 16.418,8.322 16.180 C 8.499 15.971,9.879 14.495,11.388 12.900 C 12.897 11.305,13.936 10.000,13.698 10.000 C 13.460 10.000,12.080 11.298,10.632 12.884 M387.791 11.991 C 388.869 13.086,389.841 13.892,389.951 13.782 C 390.213 13.520,386.752 10.000,386.232 10.000 C 386.011 10.000,386.712 10.896,387.791 11.991 M390.912 15.217 C 391.303 15.758,392.342 17.269,393.220 18.575 C 395.094 21.363,395.340 21.647,394.959 20.588 C 394.587 19.550,391.326 14.924,390.694 14.537 C 390.422 14.370,390.520 14.676,390.912 15.217 M6.229 18.429 C 5.630 19.333,5.217 20.151,5.312 20.245 C 5.406 20.339,5.973 19.676,6.571 18.771 C 7.170 17.867,7.583 17.049,7.488 16.955 C 7.394 16.861,6.827 17.524,6.229 18.429 M242.500 39.056 C 240.255 40.689,239.455 41.611,240.300 41.594 C 240.465 41.590,241.576 40.694,242.770 39.603 C 244.590 37.937,245.041 37.697,245.570 38.109 C 246.126 38.542,246.135 38.518,245.651 37.900 C 245.349 37.515,245.079 37.208,245.051 37.219 C 245.023 37.229,243.875 38.056,242.500 39.056 M247.216 40.600 C 247.223 40.820,247.671 41.540,248.212 42.200 C 248.753 42.860,249.190 43.220,249.184 43.000 C 249.177 42.780,248.729 42.060,248.188 41.400 C 247.647 40.740,247.210 40.380,247.216 40.600 M238.800 41.800 C 238.517 42.141,238.376 42.509,238.486 42.619 C 238.596 42.729,238.917 42.541,239.200 42.200 C 239.483 41.859,239.624 41.491,239.514 41.381 C 239.404 41.271,239.083 41.459,238.800 41.800 M250.800 45.376 C 250.800 45.876,257.274 54.459,257.489 54.244 C 257.591 54.142,256.281 52.201,254.578 49.930 C 251.022 45.188,250.800 44.920,250.800 45.376 M227.109 50.647 C 223.406 53.379,222.537 54.199,222.918 54.598 C 223.183 54.875,223.670 55.501,224.000 55.988 C 224.330 56.476,224.870 57.201,225.200 57.600 C 225.859 58.397,226.632 59.478,227.194 60.388 C 227.393 60.712,227.662 60.871,227.792 60.741 C 227.921 60.612,226.951 59.054,225.635 57.279 L 223.242 54.052 227.621 50.784 C 231.477 47.907,232.319 47.200,231.890 47.200 C 231.830 47.200,229.678 48.751,227.109 50.647 M258.000 55.400 C 258.274 55.730,258.678 56.000,258.898 56.000 C 259.121 56.000,259.078 55.735,258.800 55.400 C 258.526 55.070,258.122 54.800,257.902 54.800 C 257.679 54.800,257.722 55.065,258.000 55.400 M261.600 59.779 C 261.600 60.158,270.386 72.000,270.667 72.000 C 270.943 72.000,270.539 71.413,266.262 65.600 C 261.858 59.615,261.600 59.293,261.600 59.779 M228.332 61.852 C 228.559 62.263,229.310 63.230,230.003 64.000 L 231.261 65.400 229.939 63.467 C 228.599 61.508,227.577 60.480,228.332 61.852 M233.878 69.309 C 239.446 77.022,241.400 79.600,241.681 79.600 C 242.315 79.600,241.976 78.859,240.738 77.542 C 240.044 76.804,237.952 74.175,236.089 71.700 C 232.656 67.139,231.086 65.440,233.878 69.309 M274.400 77.400 C 274.674 77.730,275.078 78.000,275.298 78.000 C 275.521 78.000,275.478 77.735,275.200 77.400 C 274.926 77.070,274.522 76.800,274.302 76.800 C 274.079 76.800,274.122 77.065,274.400 77.400 M275.600 79.000 C 275.874 79.330,276.278 79.600,276.498 79.600 C 276.721 79.600,276.678 79.335,276.400 79.000 C 276.126 78.670,275.722 78.400,275.502 78.400 C 275.279 78.400,275.322 78.665,275.600 79.000 M276.500 80.500 C 276.591 80.775,277.006 81.066,277.420 81.146 C 278.073 81.273,278.102 81.205,277.638 80.646 C 277.004 79.882,276.262 79.786,276.500 80.500 M277.600 81.918 C 277.600 82.092,278.302 82.988,279.159 83.907 C 280.017 84.827,281.110 86.079,281.589 86.690 C 283.040 88.540,281.991 86.766,280.058 84.100 C 278.395 81.806,277.600 81.100,277.600 81.918 M192.800 82.696 C 192.800 82.913,194.330 84.330,196.200 85.845 C 201.420 90.075,202.000 90.494,202.000 90.030 C 202.000 89.794,201.865 89.599,201.700 89.598 C 201.535 89.597,200.753 89.012,199.963 88.298 C 199.173 87.584,197.847 86.460,197.018 85.800 C 196.188 85.140,195.215 84.325,194.855 83.988 C 193.582 82.798,192.800 82.307,192.800 82.696 M189.543 86.698 C 186.897 89.871,186.215 90.800,186.533 90.800 C 186.861 90.800,192.486 83.953,192.306 83.773 C 192.210 83.676,190.966 84.993,189.543 86.698 M247.080 86.924 C 248.134 88.653,253.380 95.554,253.527 95.406 C 253.711 95.223,247.256 86.400,246.938 86.400 C 246.840 86.400,246.904 86.636,247.080 86.924 M284.000 89.781 C 284.000 90.136,287.979 95.600,288.238 95.600 C 288.560 95.600,288.366 95.295,286.200 92.400 C 284.990 90.783,284.000 89.604,284.000 89.781 M203.170 91.332 C 204.189 92.454,204.408 92.593,204.387 92.100 C 204.381 91.935,203.886 91.454,203.287 91.032 L 202.200 90.264 203.170 91.332 M184.792 92.210 C 184.019 93.141,184.571 93.317,185.398 92.402 C 185.797 91.961,185.938 91.600,185.711 91.600 C 185.484 91.600,185.070 91.874,184.792 92.210 M204.800 92.495 C 204.800 92.615,206.375 94.028,208.300 95.635 C 210.225 97.241,212.776 99.511,213.970 100.678 C 215.163 101.845,216.288 102.800,216.470 102.800 C 217.172 102.800,216.750 101.986,215.700 101.315 C 215.095 100.928,214.420 100.402,214.200 100.147 C 213.980 99.892,212.090 98.287,210.000 96.580 C 207.910 94.873,205.885 93.207,205.500 92.877 C 205.115 92.546,204.800 92.375,204.800 92.495 M182.600 94.800 C 182.202 95.240,182.056 95.600,182.276 95.600 C 182.496 95.600,183.002 95.240,183.400 94.800 C 183.798 94.360,183.944 94.000,183.724 94.000 C 183.504 94.000,182.998 94.360,182.600 94.800 M254.000 96.119 C 254.000 96.603,256.890 100.443,257.098 100.235 C 257.207 100.126,256.703 99.264,255.977 98.318 C 254.235 96.050,254.000 95.788,254.000 96.119 M180.600 97.200 C 180.202 97.640,180.056 98.000,180.276 98.000 C 180.496 98.000,181.002 97.640,181.400 97.200 C 181.798 96.760,181.944 96.400,181.724 96.400 C 181.504 96.400,180.998 96.760,180.600 97.200 M177.246 101.298 C 175.121 103.894,174.347 105.423,176.327 103.114 C 177.954 101.218,179.728 98.800,179.493 98.800 C 179.383 98.800,178.371 99.924,177.246 101.298 M292.092 101.275 C 292.179 101.536,292.464 101.821,292.725 101.908 C 293.018 102.006,293.107 101.823,292.957 101.433 C 292.678 100.706,291.852 100.555,292.092 101.275 M217.200 103.124 C 217.200 103.640,218.764 104.969,219.043 104.691 C 219.173 104.560,219.162 104.262,219.018 104.029 C 218.643 103.422,217.200 102.704,217.200 103.124 M261.623 106.793 C 263.572 109.473,264.400 110.362,264.400 109.773 C 264.400 109.282,260.335 104.000,259.958 104.000 C 259.756 104.000,260.505 105.257,261.623 106.793 M294.492 104.475 C 294.579 104.736,294.864 105.021,295.125 105.108 C 295.418 105.206,295.507 105.023,295.357 104.633 C 295.078 103.906,294.252 103.755,294.492 104.475 M219.613 105.051 C 219.619 105.243,220.093 105.741,220.665 106.159 C 221.314 106.631,221.640 106.719,221.531 106.393 C 221.321 105.762,219.595 104.555,219.613 105.051 M295.600 105.864 C 295.600 106.292,298.852 110.484,300.361 112.000 L 301.754 113.400 300.446 111.600 C 299.727 110.610,298.477 108.857,297.669 107.705 C 296.339 105.808,295.600 105.150,295.600 105.864 M179.489 107.630 C 179.978 108.139,180.478 108.455,180.601 108.332 C 180.724 108.209,180.324 107.792,179.712 107.406 L 178.600 106.704 179.489 107.630 M222.000 106.938 C 222.000 107.040,225.195 109.774,229.100 113.012 C 233.005 116.251,236.650 119.386,237.200 119.980 C 238.493 121.374,241.200 123.344,241.200 122.890 C 241.200 122.697,240.750 122.117,240.200 121.600 C 239.650 121.083,239.200 120.802,239.200 120.975 C 239.200 121.147,238.885 120.923,238.500 120.476 C 237.231 119.004,222.000 106.507,222.000 106.938 M181.800 109.600 C 182.198 110.040,182.704 110.400,182.924 110.400 C 183.144 110.400,182.998 110.040,182.600 109.600 C 182.202 109.160,181.696 108.800,181.476 108.800 C 181.256 108.800,181.402 109.160,181.800 109.600 M183.799 111.198 C 183.934 111.417,184.440 111.803,184.922 112.056 C 185.794 112.513,185.795 112.510,185.038 111.658 C 184.275 110.798,183.336 110.450,183.799 111.198 M266.000 112.113 C 266.000 112.579,271.289 119.644,271.489 119.444 C 271.593 119.340,270.553 117.758,269.178 115.928 C 266.307 112.108,266.000 111.739,266.000 112.113 M186.600 113.600 C 186.998 114.040,187.504 114.400,187.724 114.400 C 187.944 114.400,187.798 114.040,187.400 113.600 C 187.002 113.160,186.496 112.800,186.276 112.800 C 186.056 112.800,186.202 113.160,186.600 113.600 M189.000 115.600 C 189.398 116.040,189.904 116.400,190.124 116.400 C 190.344 116.400,190.198 116.040,189.800 115.600 C 189.402 115.160,188.896 114.800,188.676 114.800 C 188.456 114.800,188.602 115.160,189.000 115.600 M191.599 117.798 C 192.114 118.348,192.625 118.709,192.732 118.601 C 192.998 118.335,191.579 116.800,191.068 116.800 C 190.844 116.800,191.083 117.249,191.599 117.798 M193.600 119.114 C 193.600 119.313,193.986 119.819,194.458 120.238 C 195.310 120.995,195.313 120.994,194.856 120.122 C 194.346 119.150,193.600 118.551,193.600 119.114 M306.400 120.179 C 306.400 120.675,315.275 132.458,315.488 132.245 C 315.588 132.145,313.738 129.485,311.378 126.332 C 306.583 119.928,306.400 119.702,306.400 120.179 M274.016 123.363 C 274.768 124.409,275.556 125.373,275.767 125.503 C 275.978 125.633,275.535 124.884,274.784 123.837 C 274.032 122.791,273.244 121.827,273.033 121.697 C 272.822 121.567,273.265 122.316,274.016 123.363 M241.600 123.367 C 241.600 123.556,259.533 138.504,260.300 138.954 C 261.798 139.832,260.228 138.384,255.500 134.525 C 252.585 132.147,248.361 128.625,246.114 126.700 C 242.334 123.462,241.600 122.920,241.600 123.367 M201.400 126.000 C 201.798 126.440,202.304 126.800,202.524 126.800 C 202.744 126.800,202.598 126.440,202.200 126.000 C 201.802 125.560,201.296 125.200,201.076 125.200 C 200.856 125.200,201.002 125.560,201.400 126.000 M203.399 127.598 C 203.534 127.817,204.040 128.203,204.522 128.456 C 205.394 128.913,205.395 128.910,204.638 128.058 C 203.875 127.198,202.936 126.850,203.399 127.598 M277.632 128.181 C 277.989 128.826,282.022 134.162,283.022 135.314 C 283.255 135.581,283.564 136.115,283.710 136.500 C 283.856 136.885,284.161 137.200,284.387 137.200 C 284.614 137.200,284.800 137.476,284.800 137.813 C 284.800 138.149,285.070 138.529,285.400 138.655 C 285.730 138.782,286.000 139.136,286.000 139.443 C 286.000 139.749,286.180 140.000,286.400 140.000 C 287.211 140.000,283.028 133.901,279.953 130.600 C 279.338 129.940,278.512 129.032,278.118 128.581 C 277.723 128.131,277.504 127.951,277.632 128.181 M205.820 129.549 C 208.497 132.008,217.200 139.109,217.200 138.833 C 217.200 138.418,206.253 129.200,205.760 129.200 C 205.584 129.200,205.611 129.357,205.820 129.549 M319.200 137.800 C 319.474 138.130,319.878 138.400,320.098 138.400 C 320.321 138.400,320.278 138.135,320.000 137.800 C 319.726 137.470,319.322 137.200,319.102 137.200 C 318.879 137.200,318.922 137.465,319.200 137.800 M217.600 139.130 C 217.600 139.312,218.082 139.897,218.671 140.430 L 219.742 141.400 218.844 140.100 C 217.937 138.788,217.600 138.525,217.600 139.130 M321.106 139.926 C 322.297 141.856,326.944 147.990,327.099 147.835 C 327.180 147.754,325.776 145.688,323.979 143.244 C 320.793 138.910,319.705 137.653,321.106 139.926 M261.524 139.833 C 262.040 140.828,263.200 141.856,263.200 141.319 C 263.200 141.110,262.726 140.503,262.146 139.970 C 261.205 139.104,261.138 139.090,261.524 139.833 M220.611 141.941 C 223.326 144.491,234.400 153.423,234.400 153.062 C 234.400 152.777,220.465 141.200,220.123 141.200 C 219.957 141.200,220.177 141.534,220.611 141.941 M151.600 141.938 C 151.600 142.129,153.265 143.052,155.300 143.988 C 160.110 146.200,160.000 146.161,160.000 145.619 C 160.000 145.363,159.820 145.264,159.600 145.400 C 159.380 145.536,159.200 145.446,159.200 145.200 C 159.200 144.954,159.020 144.864,158.800 145.000 C 158.580 145.136,158.400 145.027,158.400 144.757 C 158.400 144.487,158.286 144.380,158.147 144.519 C 158.008 144.658,157.153 144.338,156.247 143.807 C 153.969 142.472,151.600 141.519,151.600 141.938 M263.600 141.733 C 263.600 142.058,277.221 153.312,277.399 153.134 C 277.556 152.977,264.585 141.935,263.927 141.667 C 263.747 141.593,263.600 141.623,263.600 141.733 M150.075 144.219 C 148.870 146.700,149.005 147.047,150.246 144.661 C 150.801 143.594,151.187 142.653,151.103 142.570 C 151.019 142.486,150.557 143.228,150.075 144.219 M291.868 147.324 C 296.493 153.737,298.183 155.951,298.336 155.798 C 298.518 155.615,290.842 145.200,290.525 145.200 C 290.422 145.200,291.026 146.156,291.868 147.324 M160.400 145.943 C 160.400 146.354,161.612 146.922,161.892 146.642 C 161.989 146.544,161.693 146.264,161.234 146.018 C 160.775 145.773,160.400 145.739,160.400 145.943 M148.033 148.618 C 146.898 151.184,147.015 151.427,148.246 149.061 C 148.801 147.994,149.168 147.034,149.061 146.928 C 148.954 146.821,148.492 147.581,148.033 148.618 M166.000 148.800 C 166.770 149.222,167.580 149.566,167.800 149.566 C 168.020 149.566,167.570 149.222,166.800 148.800 C 166.030 148.378,165.220 148.034,165.000 148.034 C 164.780 148.034,165.230 148.378,166.000 148.800 M328.384 150.767 C 328.046 151.115,327.146 151.887,326.384 152.481 C 325.623 153.076,325.180 153.570,325.400 153.580 C 325.911 153.603,329.467 150.539,329.200 150.307 C 329.090 150.212,328.723 150.418,328.384 150.767 M171.600 151.400 C 172.590 151.930,173.580 152.364,173.800 152.364 C 174.020 152.364,173.390 151.930,172.400 151.400 C 171.410 150.870,170.420 150.436,170.200 150.436 C 169.980 150.436,170.610 150.870,171.600 151.400 M145.819 153.163 C 145.467 153.843,145.335 154.400,145.526 154.400 C 145.931 154.400,146.917 152.384,146.644 152.111 C 146.542 152.009,146.171 152.482,145.819 153.163 M176.800 153.800 C 178.230 154.549,179.670 155.163,180.000 155.166 C 180.330 155.169,179.271 154.548,177.646 153.786 C 173.886 152.022,173.418 152.030,176.800 153.800 M234.889 153.666 C 234.974 153.922,235.484 154.409,236.022 154.748 L 237.000 155.363 236.030 154.282 C 234.983 153.114,234.644 152.931,234.889 153.666 M278.600 154.400 C 278.998 154.840,279.504 155.200,279.724 155.200 C 279.944 155.200,279.798 154.840,279.400 154.400 C 279.002 153.960,278.496 153.600,278.276 153.600 C 278.056 153.600,278.202 153.960,278.600 154.400 M237.200 155.468 C 237.200 155.979,238.735 157.398,239.001 157.132 C 239.109 157.025,238.748 156.514,238.198 155.999 C 237.649 155.483,237.200 155.244,237.200 155.468 M143.618 157.966 C 143.373 158.425,143.339 158.800,143.543 158.800 C 143.954 158.800,144.522 157.588,144.242 157.308 C 144.144 157.211,143.864 157.507,143.618 157.966 M239.600 157.538 C 239.600 158.018,240.973 159.200,241.531 159.200 C 241.789 159.200,242.000 159.357,242.000 159.548 C 242.000 159.739,244.289 161.764,247.086 164.048 C 253.861 169.579,254.000 169.688,254.000 169.462 C 254.000 169.355,251.525 167.181,248.500 164.631 C 245.475 162.081,242.370 159.367,241.600 158.599 C 240.209 157.214,239.600 156.890,239.600 157.538 M318.984 157.627 C 318.839 157.861,318.816 158.149,318.933 158.267 C 319.220 158.553,320.000 158.048,320.000 157.576 C 320.000 157.065,319.309 157.099,318.984 157.627 M300.000 158.380 C 300.000 158.589,300.239 158.904,300.530 159.080 C 300.822 159.256,301.176 159.715,301.318 160.100 C 301.459 160.485,301.754 160.800,301.974 160.800 C 302.193 160.800,302.001 160.170,301.547 159.400 C 300.760 158.066,300.000 157.565,300.000 158.380 M316.576 159.548 C 315.929 160.180,313.524 162.092,311.230 163.798 L 307.061 166.900 305.941 165.550 C 305.325 164.807,304.817 164.342,304.811 164.516 C 304.794 165.016,306.510 167.200,306.920 167.200 C 307.325 167.200,315.955 160.977,316.600 160.220 C 316.820 159.962,317.315 159.632,317.700 159.488 C 318.085 159.343,318.400 159.039,318.400 158.813 C 318.400 158.110,317.801 158.352,316.576 159.548 M189.000 159.286 C 189.440 159.540,190.038 159.985,190.329 160.274 C 190.921 160.863,191.600 160.970,191.600 160.474 C 191.600 160.295,190.964 159.845,190.186 159.474 C 188.587 158.712,187.785 158.584,189.000 159.286 M285.600 159.876 C 285.600 160.096,285.960 160.602,286.400 161.000 C 286.840 161.398,287.200 161.544,287.200 161.324 C 287.200 161.104,286.840 160.598,286.400 160.200 C 285.960 159.802,285.600 159.656,285.600 159.876 M142.600 160.400 C 142.736 160.620,142.646 160.800,142.400 160.800 C 142.154 160.800,142.064 160.980,142.200 161.200 C 142.336 161.420,142.257 161.600,142.024 161.600 C 141.791 161.600,141.636 161.735,141.680 161.900 C 141.724 162.065,141.274 163.139,140.680 164.287 C 140.086 165.434,139.600 166.466,139.600 166.580 C 139.600 166.832,143.447 168.807,143.887 168.781 C 144.059 168.771,143.345 168.318,142.300 167.774 C 141.255 167.230,140.400 166.721,140.400 166.642 C 140.400 166.564,141.030 165.117,141.800 163.428 C 143.367 159.990,143.364 160.000,142.776 160.000 C 142.543 160.000,142.464 160.180,142.600 160.400 M192.800 161.143 C 192.800 161.428,199.639 164.800,200.217 164.800 C 200.318 164.800,200.400 164.590,200.400 164.333 C 200.400 164.077,200.290 163.977,200.155 164.111 C 200.021 164.246,198.431 163.556,196.623 162.578 C 193.193 160.724,192.800 160.576,192.800 161.143 M288.000 161.868 C 288.000 162.379,289.535 163.798,289.801 163.532 C 289.909 163.425,289.548 162.914,288.998 162.399 C 288.449 161.883,288.000 161.644,288.000 161.868 M291.000 164.800 C 291.398 165.240,291.904 165.600,292.124 165.600 C 292.344 165.600,292.198 165.240,291.800 164.800 C 291.402 164.360,290.896 164.000,290.676 164.000 C 290.456 164.000,290.602 164.360,291.000 164.800 M202.400 165.543 C 202.400 165.954,203.612 166.522,203.892 166.242 C 203.989 166.144,203.693 165.864,203.234 165.618 C 202.775 165.373,202.400 165.339,202.400 165.543 M293.400 166.800 C 293.798 167.240,294.304 167.600,294.524 167.600 C 294.744 167.600,294.598 167.240,294.200 166.800 C 293.802 166.360,293.296 166.000,293.076 166.000 C 292.856 166.000,293.002 166.360,293.400 166.800 M208.138 168.447 C 208.984 168.893,209.768 169.165,209.881 169.052 C 210.076 168.857,207.380 167.580,206.851 167.618 C 206.713 167.627,207.292 168.000,208.138 168.447 M295.800 168.800 C 296.198 169.240,296.704 169.600,296.924 169.600 C 297.144 169.600,296.998 169.240,296.600 168.800 C 296.202 168.360,295.696 168.000,295.476 168.000 C 295.256 168.000,295.402 168.360,295.800 168.800 M146.800 170.200 C 147.790 170.730,148.780 171.164,149.000 171.164 C 149.220 171.164,148.590 170.730,147.600 170.200 C 146.610 169.670,145.620 169.236,145.400 169.236 C 145.180 169.236,145.810 169.670,146.800 170.200 M212.800 170.600 C 213.790 171.130,214.780 171.564,215.000 171.564 C 215.220 171.564,214.590 171.130,213.600 170.600 C 212.610 170.070,211.620 169.636,211.400 169.636 C 211.180 169.636,211.810 170.070,212.800 170.600 M254.400 169.954 C 254.400 170.149,254.895 170.625,255.500 171.012 L 256.600 171.715 255.630 170.658 C 254.582 169.514,254.400 169.410,254.400 169.954 M298.200 170.800 C 298.598 171.240,299.104 171.600,299.324 171.600 C 299.544 171.600,299.398 171.240,299.000 170.800 C 298.602 170.360,298.096 170.000,297.876 170.000 C 297.656 170.000,297.802 170.360,298.200 170.800 M217.600 172.767 C 218.810 173.388,220.250 174.017,220.800 174.164 C 221.350 174.311,220.471 173.794,218.846 173.016 C 215.335 171.333,214.467 171.160,217.600 172.767 M256.889 172.066 C 256.974 172.322,257.484 172.809,258.022 173.148 L 259.000 173.763 258.030 172.682 C 256.983 171.514,256.644 171.331,256.889 172.066 M151.200 172.190 C 151.200 172.294,151.740 172.659,152.400 173.000 C 153.060 173.341,153.600 173.465,153.600 173.274 C 153.600 173.084,153.142 172.720,152.581 172.464 C 151.465 171.956,151.200 171.903,151.200 172.190 M300.741 172.464 C 301.079 172.915,301.104 173.212,300.819 173.388 C 300.589 173.531,300.400 173.855,300.400 174.109 C 300.400 174.372,300.696 174.275,301.086 173.886 C 301.733 173.238,301.729 173.161,301.008 172.500 C 300.375 171.921,300.330 171.915,300.741 172.464 M259.258 173.975 C 259.360 174.281,259.868 174.813,260.386 175.157 C 261.134 175.654,261.289 175.668,261.142 175.225 C 261.040 174.919,260.532 174.387,260.014 174.043 C 259.266 173.546,259.111 173.532,259.258 173.975 M156.971 175.009 C 157.395 175.329,157.840 175.494,157.959 175.374 C 158.210 175.123,157.194 174.409,156.600 174.419 C 156.380 174.422,156.547 174.688,156.971 175.009 M298.900 175.366 C 297.939 176.287,297.757 176.800,298.391 176.800 C 298.811 176.800,300.211 174.865,299.954 174.640 C 299.869 174.565,299.395 174.892,298.900 175.366 M261.600 175.991 C 261.600 176.206,262.095 176.701,262.700 177.091 C 263.305 177.481,264.070 178.091,264.400 178.446 C 265.002 179.095,271.652 184.556,272.827 185.367 C 273.172 185.605,272.542 184.990,271.427 184.000 C 270.312 183.010,268.815 181.633,268.100 180.940 C 267.385 180.247,266.800 179.740,266.800 179.814 C 266.800 179.888,265.774 178.970,264.519 177.774 C 262.272 175.632,261.600 175.222,261.600 175.991 M160.000 176.424 C 160.000 176.657,160.180 176.736,160.400 176.600 C 160.620 176.464,160.800 176.554,160.800 176.800 C 160.800 177.046,160.980 177.136,161.200 177.000 C 161.420 176.864,161.600 176.954,161.600 177.200 C 161.600 177.446,161.804 177.521,162.054 177.367 C 162.347 177.185,162.170 176.899,161.554 176.557 C 160.381 175.907,160.000 175.874,160.000 176.424 M226.000 176.600 C 226.550 176.914,227.180 177.172,227.400 177.172 C 227.620 177.172,227.350 176.914,226.800 176.600 C 226.250 176.286,225.620 176.028,225.400 176.028 C 225.180 176.028,225.450 176.286,226.000 176.600 M162.800 177.517 C 162.800 177.792,166.897 180.000,167.409 180.000 C 168.192 180.000,167.239 179.190,165.391 178.283 C 162.980 177.101,162.800 177.048,162.800 177.517 M296.390 178.211 C 295.137 179.544,295.755 180.026,297.054 178.728 C 297.620 178.162,297.911 177.592,297.700 177.462 C 297.489 177.331,296.899 177.668,296.390 178.211 M231.000 178.872 C 231.880 179.332,232.660 179.864,232.733 180.054 C 232.901 180.490,233.600 180.510,233.600 180.080 C 233.600 179.759,230.234 177.984,229.689 178.018 C 229.530 178.027,230.120 178.412,231.000 178.872 M234.000 180.333 C 234.000 180.775,239.533 183.400,239.833 183.101 C 239.968 182.965,239.150 182.383,238.015 181.807 C 235.279 180.421,234.000 179.951,234.000 180.333 M294.399 181.002 C 293.883 181.551,293.644 182.000,293.868 182.000 C 294.379 182.000,295.798 180.465,295.532 180.199 C 295.425 180.091,294.914 180.452,294.399 181.002 M170.000 181.200 C 170.770 181.622,171.580 181.966,171.800 181.966 C 172.020 181.966,171.570 181.622,170.800 181.200 C 170.030 180.778,169.220 180.434,169.000 180.434 C 168.780 180.434,169.230 180.778,170.000 181.200 M292.370 183.455 C 291.836 184.035,291.655 184.430,291.966 184.333 C 292.493 184.168,293.913 182.400,293.519 182.400 C 293.420 182.400,292.903 182.875,292.370 183.455 M242.800 184.326 C 242.800 184.731,244.816 185.717,245.089 185.444 C 245.191 185.342,244.718 184.971,244.037 184.619 C 243.357 184.267,242.800 184.135,242.800 184.326 M290.262 185.931 C 289.533 186.737,289.372 187.388,289.998 187.001 C 290.415 186.743,291.339 185.200,291.076 185.200 C 290.992 185.200,290.626 185.529,290.262 185.931 M183.162 187.216 C 185.011 188.092,186.587 188.746,186.664 188.669 C 186.841 188.492,180.701 185.596,180.182 185.611 C 179.972 185.617,181.313 186.339,183.162 187.216 M274.013 186.300 C 274.019 186.465,274.514 186.946,275.113 187.368 L 276.200 188.136 275.230 187.068 C 274.211 185.946,273.992 185.807,274.013 186.300 M249.338 187.647 C 250.184 188.093,250.976 188.357,251.099 188.234 C 251.222 188.111,250.671 187.738,249.874 187.405 C 247.824 186.548,247.517 186.686,249.338 187.647 M288.198 188.402 C 287.798 188.844,287.566 189.299,287.682 189.415 C 287.797 189.530,288.190 189.169,288.555 188.612 C 289.352 187.396,289.193 187.302,288.198 188.402 M276.413 188.300 C 276.419 188.465,276.914 188.946,277.513 189.368 L 278.600 190.136 277.630 189.068 C 276.611 187.946,276.392 187.807,276.413 188.300 M188.400 189.600 C 189.170 190.022,189.980 190.366,190.200 190.366 C 190.420 190.366,189.970 190.022,189.200 189.600 C 188.430 189.178,187.620 188.834,187.400 188.834 C 187.180 188.834,187.630 189.178,188.400 189.600 M255.800 190.615 C 257.780 191.574,259.580 192.356,259.800 192.352 C 260.020 192.348,258.512 191.547,256.448 190.572 C 254.384 189.598,252.584 188.816,252.448 188.835 C 252.312 188.854,253.820 189.655,255.800 190.615 M278.800 190.295 C 278.800 190.684,280.414 191.719,280.651 191.482 C 280.747 191.386,280.369 191.010,279.812 190.645 C 279.256 190.280,278.800 190.122,278.800 190.295 M286.198 190.802 C 285.798 191.244,285.566 191.699,285.682 191.815 C 285.797 191.930,286.190 191.569,286.555 191.012 C 287.352 189.796,287.193 189.702,286.198 190.802 M193.771 192.209 C 194.195 192.529,194.640 192.694,194.759 192.574 C 195.010 192.323,193.994 191.609,193.400 191.619 C 193.180 191.622,193.347 191.888,193.771 192.209 M281.200 192.360 C 281.200 193.062,283.919 194.382,284.312 193.872 C 285.217 192.696,285.294 192.238,284.465 192.966 C 283.602 193.722,283.580 193.721,282.670 192.866 C 281.688 191.943,281.200 191.775,281.200 192.360 M199.404 194.807 C 199.542 195.030,199.823 195.109,200.028 194.983 C 200.232 194.856,200.400 194.954,200.400 195.200 C 200.400 195.446,200.580 195.536,200.800 195.400 C 201.020 195.264,201.200 195.354,201.200 195.600 C 201.200 195.846,201.380 195.936,201.600 195.800 C 201.820 195.664,202.000 195.754,202.000 196.000 C 202.000 196.246,202.180 196.336,202.400 196.200 C 202.620 196.064,202.800 196.105,202.800 196.291 C 202.800 196.477,203.205 196.655,203.700 196.686 C 204.270 196.722,203.794 196.320,202.400 195.590 C 200.130 194.401,198.965 194.096,199.404 194.807 M267.200 195.800 C 267.750 196.114,268.380 196.372,268.600 196.372 C 268.820 196.372,268.550 196.114,268.000 195.800 C 267.450 195.486,266.820 195.228,266.600 195.228 C 266.380 195.228,266.650 195.486,267.200 195.800 M205.600 197.526 C 205.600 197.809,208.104 199.200,208.614 199.200 C 209.278 199.200,208.576 198.441,207.386 197.874 C 205.778 197.107,205.600 197.073,205.600 197.526 M272.400 198.200 C 273.390 198.730,274.380 199.164,274.600 199.164 C 274.820 199.164,274.190 198.730,273.200 198.200 C 272.210 197.670,271.220 197.236,271.000 197.236 C 270.780 197.236,271.410 197.670,272.400 198.200 M275.691 199.748 C 276.527 200.584,278.795 201.669,279.327 201.487 C 279.587 201.398,278.861 200.847,277.713 200.262 C 275.370 199.069,274.890 198.947,275.691 199.748 M212.400 201.000 C 212.950 201.314,213.580 201.572,213.800 201.572 C 214.020 201.572,213.750 201.314,213.200 201.000 C 212.650 200.686,212.020 200.428,211.800 200.428 C 211.580 200.428,211.850 200.686,212.400 201.000 M277.433 204.257 C 277.099 205.130,277.543 205.536,278.016 204.788 C 278.489 204.040,278.499 203.600,278.043 203.600 C 277.846 203.600,277.572 203.896,277.433 204.257 M220.800 204.800 C 221.570 205.222,222.380 205.566,222.600 205.566 C 222.820 205.566,222.370 205.222,221.600 204.800 C 220.830 204.378,220.020 204.034,219.800 204.034 C 219.580 204.034,220.030 204.378,220.800 204.800 M225.200 206.800 C 226.410 207.439,227.580 207.962,227.800 207.962 C 228.020 207.962,227.210 207.439,226.000 206.800 C 224.790 206.161,223.620 205.638,223.400 205.638 C 223.180 205.638,223.990 206.161,225.200 206.800 M275.074 209.414 C 274.303 211.030,274.271 211.200,274.739 211.200 C 274.926 211.200,275.361 210.480,275.707 209.600 C 276.484 207.623,275.996 207.479,275.074 209.414 M230.400 209.200 C 231.170 209.622,231.980 209.966,232.200 209.966 C 232.420 209.966,231.970 209.622,231.200 209.200 C 230.430 208.778,229.620 208.434,229.400 208.434 C 229.180 208.434,229.630 208.778,230.400 209.200 M235.771 211.809 C 236.195 212.129,236.640 212.294,236.759 212.174 C 237.010 211.923,235.994 211.209,235.400 211.219 C 235.180 211.222,235.347 211.488,235.771 211.809 M272.061 215.963 C 270.194 219.980,269.932 220.979,271.368 218.607 C 271.899 217.731,272.247 216.876,272.143 216.707 C 272.038 216.538,272.173 216.400,272.443 216.400 C 272.713 216.400,272.821 216.288,272.684 216.150 C 272.547 216.013,272.799 215.186,273.245 214.312 C 273.691 213.438,273.981 212.647,273.889 212.555 C 273.797 212.463,272.974 213.997,272.061 215.963 M239.600 213.667 C 239.600 213.923,239.710 214.023,239.845 213.889 C 239.979 213.754,241.046 214.183,242.214 214.843 C 243.383 215.502,244.848 216.113,245.469 216.200 C 246.148 216.295,245.320 215.732,243.400 214.791 C 239.880 213.067,239.600 212.984,239.600 213.667 M247.600 217.120 C 247.600 217.399,250.900 219.200,251.411 219.200 C 252.142 219.200,251.306 218.417,249.789 217.680 C 247.781 216.704,247.600 216.658,247.600 217.120 M192.800 220.000 C 192.800 220.220,193.070 220.400,193.400 220.400 C 193.730 220.400,194.000 220.220,194.000 220.000 C 194.000 219.780,193.730 219.600,193.400 219.600 C 193.070 219.600,192.800 219.780,192.800 220.000 M253.600 219.936 C 253.600 220.328,255.618 221.315,255.882 221.051 C 255.980 220.953,255.687 220.754,255.230 220.610 C 254.774 220.465,254.400 220.178,254.400 219.973 C 254.400 219.768,254.220 219.600,254.000 219.600 C 253.780 219.600,253.600 219.751,253.600 219.936 M196.400 220.800 C 196.400 221.020,196.670 221.200,197.000 221.200 C 197.330 221.200,197.600 221.020,197.600 220.800 C 197.600 220.580,197.330 220.400,197.000 220.400 C 196.670 220.400,196.400 220.580,196.400 220.800 M268.865 223.017 C 268.195 224.488,268.323 224.802,269.047 223.465 C 269.386 222.840,269.588 222.254,269.496 222.163 C 269.405 222.071,269.121 222.456,268.865 223.017 M261.936 224.000 C 263.331 224.660,264.591 225.192,264.736 225.181 C 265.230 225.146,260.603 222.838,260.000 222.819 C 259.670 222.809,260.541 223.340,261.936 224.000 M122.400 226.600 C 122.400 226.930,122.580 227.200,122.800 227.200 C 123.020 227.200,123.200 226.930,123.200 226.600 C 123.200 226.270,123.020 226.000,122.800 226.000 C 122.580 226.000,122.400 226.270,122.400 226.600 M139.920 237.280 C 140.293 237.653,140.507 237.653,140.880 237.280 C 141.253 236.907,141.147 236.800,140.400 236.800 C 139.653 236.800,139.547 236.907,139.920 237.280 M145.600 238.400 C 145.600 238.620,145.870 238.800,146.200 238.800 C 146.530 238.800,146.800 238.620,146.800 238.400 C 146.800 238.180,146.530 238.000,146.200 238.000 C 145.870 238.000,145.600 238.180,145.600 238.400 M147.600 238.800 C 147.600 239.020,147.870 239.200,148.200 239.200 C 148.530 239.200,148.800 239.020,148.800 238.800 C 148.800 238.580,148.530 238.400,148.200 238.400 C 147.870 238.400,147.600 238.580,147.600 238.800 M149.600 239.200 C 149.600 239.420,149.870 239.600,150.200 239.600 C 150.530 239.600,150.800 239.420,150.800 239.200 C 150.800 238.980,150.530 238.800,150.200 238.800 C 149.870 238.800,149.600 238.980,149.600 239.200 M65.394 300.000 C 65.394 328.270,65.442 339.835,65.500 325.700 C 65.558 311.565,65.558 288.435,65.500 274.300 C 65.442 260.165,65.394 271.730,65.394 300.000 M225.600 255.200 C 225.600 255.420,225.870 255.600,226.200 255.600 C 226.530 255.600,226.800 255.420,226.800 255.200 C 226.800 254.980,226.530 254.800,226.200 254.800 C 225.870 254.800,225.600 254.980,225.600 255.200 M241.200 258.400 C 241.200 258.620,241.470 258.800,241.800 258.800 C 242.130 258.800,242.400 258.620,242.400 258.400 C 242.400 258.180,242.130 258.000,241.800 258.000 C 241.470 258.000,241.200 258.180,241.200 258.400 M243.200 258.800 C 243.200 259.020,243.470 259.200,243.800 259.200 C 244.130 259.200,244.400 259.020,244.400 258.800 C 244.400 258.580,244.130 258.400,243.800 258.400 C 243.470 258.400,243.200 258.580,243.200 258.800 M246.800 259.600 C 246.800 259.820,247.070 260.000,247.400 260.000 C 247.730 260.000,248.000 259.820,248.000 259.600 C 248.000 259.380,247.730 259.200,247.400 259.200 C 247.070 259.200,246.800 259.380,246.800 259.600 M248.800 260.000 C 248.800 260.220,249.070 260.400,249.400 260.400 C 249.730 260.400,250.000 260.220,250.000 260.000 C 250.000 259.780,249.730 259.600,249.400 259.600 C 249.070 259.600,248.800 259.780,248.800 260.000 M188.700 269.900 L 259.200 270.002 259.200 283.601 L 259.200 297.200 188.800 297.200 C 142.133 297.200,118.400 297.335,118.400 297.600 C 118.400 297.865,142.200 298.000,189.000 298.000 L 259.600 298.000 259.600 283.800 L 259.600 269.600 188.900 269.699 L 118.200 269.798 188.700 269.900 M393.288 381.300 C 392.376 382.675,391.308 384.242,390.915 384.783 C 390.522 385.324,390.422 385.630,390.694 385.463 C 391.659 384.872,395.638 378.800,395.061 378.800 C 394.998 378.800,394.201 379.925,393.288 381.300 M5.200 379.849 C 5.200 380.255,8.768 385.133,9.306 385.463 C 9.578 385.630,9.483 385.324,9.094 384.783 C 8.706 384.242,7.736 382.855,6.938 381.700 C 5.540 379.677,5.200 379.315,5.200 379.849 M10.000 386.232 C 10.000 386.752,13.520 390.213,13.782 389.951 C 13.892 389.841,13.086 388.869,11.991 387.791 C 10.896 386.712,10.000 386.011,10.000 386.232 M387.791 388.009 C 386.712 389.104,386.011 390.000,386.232 390.000 C 386.752 390.000,390.213 386.480,389.951 386.218 C 389.841 386.108,388.869 386.914,387.791 388.009 M14.962 391.142 C 15.381 391.614,15.887 392.000,16.086 392.000 C 16.649 392.000,16.050 391.254,15.078 390.744 C 14.206 390.287,14.205 390.290,14.962 391.142 M383.792 391.606 C 382.957 392.270,381.663 393.190,380.916 393.652 C 380.169 394.113,379.649 394.582,379.761 394.694 C 379.980 394.913,385.004 391.441,385.404 390.794 C 385.816 390.126,385.373 390.350,383.792 391.606 M16.800 392.547 C 16.800 392.765,19.691 394.615,20.500 394.915 C 21.691 395.357,21.284 394.972,19.173 393.660 C 17.198 392.432,16.800 392.245,16.800 392.547 " stroke="none" fill="#bfbfbf" fill-rule="evenodd"></path><path id="path1" d="M36.400 0.428 C 20.177 2.198,5.871 14.824,1.301 31.403 L 0.200 35.400 0.200 199.400 C 0.200 332.510,0.298 363.890,0.721 366.000 C 4.013 382.434,16.496 395.238,33.000 399.110 C 36.472 399.924,354.553 400.410,362.459 399.613 C 382.137 397.628,397.364 382.612,399.586 363.000 C 400.149 358.030,400.151 41.993,399.587 37.000 C 397.598 19.360,385.138 5.470,367.200 0.897 C 364.339 0.167,42.963 -0.288,36.400 0.428 M250.642 44.100 C 259.595 56.177,277.426 80.173,287.277 93.400 C 298.612 108.618,310.480 124.571,321.537 139.451 C 325.971 145.419,329.600 150.469,329.600 150.674 C 329.600 150.878,328.385 151.924,326.900 152.998 C 325.415 154.071,320.400 157.796,315.755 161.275 C 311.110 164.754,307.126 167.600,306.901 167.600 C 306.677 167.600,305.351 166.025,303.954 164.100 C 302.558 162.175,297.632 155.533,293.008 149.340 C 282.249 134.931,270.572 119.243,256.730 100.600 C 250.686 92.460,240.464 78.705,234.015 70.034 C 225.633 58.764,222.389 54.113,222.644 53.728 C 223.148 52.965,244.502 37.240,245.063 37.218 C 245.318 37.208,247.828 40.305,250.642 44.100 M203.800 91.074 C 209.520 95.844,217.357 102.369,221.216 105.573 C 239.122 120.443,250.658 130.057,255.800 134.394 C 258.880 136.991,270.536 146.712,281.701 155.995 C 293.445 165.758,301.891 173.054,301.737 173.302 C 301.454 173.759,285.061 193.423,284.192 194.347 C 283.691 194.879,276.780 189.282,243.200 161.148 C 240.450 158.844,231.720 151.580,223.800 145.006 C 215.880 138.431,207.870 131.762,206.000 130.186 C 204.130 128.609,196.390 122.153,188.800 115.838 C 181.210 109.523,175.000 104.199,175.000 104.007 C 175.000 103.473,192.543 82.430,193.000 82.415 C 193.220 82.408,198.080 86.305,203.800 91.074 M166.091 148.054 C 173.631 151.577,188.080 158.295,198.200 162.982 C 208.320 167.669,218.940 172.622,221.800 173.990 C 224.660 175.357,234.920 180.133,244.600 184.602 C 254.280 189.071,264.990 194.065,268.400 195.699 C 271.810 197.333,275.725 199.174,277.100 199.789 C 280.209 201.182,280.564 199.591,273.944 213.940 C 267.142 228.684,268.341 227.297,264.103 225.324 C 262.176 224.428,253.040 220.189,243.800 215.905 C 234.560 211.621,224.660 206.992,221.800 205.620 C 218.940 204.247,209.580 199.878,201.000 195.911 C 182.006 187.128,181.115 186.713,174.600 183.610 C 171.740 182.248,162.740 178.066,154.600 174.317 C 146.460 170.568,139.667 167.382,139.505 167.236 C 138.886 166.679,150.910 141.181,151.677 141.424 C 152.065 141.548,158.552 144.531,166.091 148.054 M133.995 206.883 C 137.408 207.588,140.257 208.298,140.326 208.460 C 140.395 208.622,140.712 208.655,141.031 208.533 C 141.350 208.411,141.849 208.509,142.142 208.752 C 142.434 208.994,142.765 209.101,142.878 208.989 C 143.070 208.796,154.316 210.998,155.600 211.480 C 155.930 211.604,156.729 211.774,157.375 211.857 C 158.022 211.941,159.282 212.216,160.175 212.467 C 161.813 212.929,162.019 212.974,164.200 213.347 C 164.860 213.460,166.750 213.846,168.400 214.205 C 170.050 214.564,171.760 214.929,172.200 215.016 C 172.640 215.103,174.620 215.544,176.600 215.995 C 178.580 216.446,183.493 217.493,187.519 218.322 C 191.585 219.160,194.695 219.985,194.519 220.179 C 194.341 220.374,194.433 220.394,194.727 220.224 C 195.331 219.875,200.400 220.738,200.400 221.190 C 200.400 221.354,200.850 221.403,201.400 221.298 C 202.008 221.182,202.400 221.291,202.400 221.577 C 202.400 221.836,202.578 221.937,202.796 221.802 C 203.320 221.479,210.000 222.814,210.000 223.242 C 210.000 223.425,210.230 223.486,210.512 223.378 C 210.993 223.194,237.506 228.530,238.800 229.072 C 239.130 229.210,239.699 229.287,240.065 229.242 C 240.430 229.198,240.848 229.353,240.992 229.587 C 241.137 229.822,241.405 229.920,241.588 229.807 C 242.014 229.544,248.058 230.773,248.637 231.240 C 248.877 231.434,249.166 231.501,249.279 231.388 C 249.392 231.275,250.635 231.464,252.042 231.809 C 254.901 232.509,255.609 232.657,257.542 232.961 C 258.280 233.078,259.270 233.301,259.742 233.457 C 260.653 233.759,260.890 233.808,263.400 234.215 C 265.514 234.558,265.659 234.752,265.159 236.562 C 264.668 238.341,264.471 239.258,264.164 241.200 C 264.042 241.970,263.615 243.950,263.216 245.600 C 262.817 247.250,261.901 251.480,261.179 255.000 C 260.458 258.520,259.716 261.460,259.531 261.534 C 259.346 261.608,259.297 261.833,259.421 262.034 C 259.545 262.235,259.502 262.403,259.324 262.406 C 258.411 262.424,238.583 258.220,238.486 257.988 C 238.423 257.839,237.928 257.801,237.386 257.905 C 236.790 258.019,236.400 257.907,236.400 257.623 C 236.400 257.364,236.224 257.261,236.009 257.394 C 235.522 257.696,221.050 254.753,220.866 254.315 C 220.792 254.139,220.585 254.086,220.406 254.196 C 219.974 254.463,213.200 253.137,213.200 252.785 C 213.200 252.634,212.750 252.597,212.200 252.702 C 211.592 252.818,211.200 252.709,211.200 252.423 C 211.200 252.164,211.028 252.059,210.817 252.190 C 210.453 252.415,199.267 250.269,198.000 249.732 C 197.670 249.592,197.101 249.513,196.735 249.558 C 196.370 249.602,195.959 249.458,195.823 249.237 C 195.686 249.016,195.308 248.937,194.982 249.062 C 194.656 249.187,194.151 249.091,193.858 248.848 C 193.566 248.606,193.232 248.501,193.116 248.617 C 193.001 248.732,191.308 248.460,189.353 248.011 C 187.399 247.563,185.088 247.094,184.217 246.970 C 183.346 246.846,182.450 246.631,182.224 246.491 C 181.999 246.352,181.541 246.196,181.207 246.144 C 180.873 246.092,180.150 245.960,179.600 245.850 C 179.050 245.740,178.060 245.559,177.400 245.448 C 176.740 245.337,174.940 244.957,173.400 244.604 C 171.860 244.250,170.240 243.891,169.800 243.807 C 169.360 243.722,168.190 243.479,167.200 243.265 C 166.210 243.051,162.610 242.301,159.200 241.597 C 155.790 240.894,152.940 240.156,152.866 239.957 C 152.792 239.758,152.567 239.697,152.366 239.821 C 151.951 240.077,139.508 237.654,139.200 237.257 C 139.090 237.116,138.190 236.947,137.200 236.883 C 136.210 236.819,135.340 236.593,135.266 236.381 C 135.192 236.169,134.962 236.100,134.754 236.229 C 134.268 236.529,121.844 233.963,121.666 233.525 C 121.592 233.344,121.348 233.309,121.123 233.448 C 120.875 233.601,120.803 233.405,120.939 232.950 C 121.063 232.538,122.014 228.060,123.053 223.000 C 124.092 217.940,125.092 213.740,125.274 213.666 C 125.456 213.592,125.502 213.366,125.377 213.163 C 125.039 212.616,126.415 206.248,126.945 205.906 C 127.552 205.514,127.011 205.439,133.995 206.883 M85.200 289.800 L 85.400 331.400 191.900 331.501 L 298.400 331.601 298.400 289.801 L 298.400 248.000 308.300 248.000 L 318.200 248.000 318.200 300.000 L 318.200 352.000 191.500 352.000 L 64.800 352.000 64.800 300.267 C 64.800 271.813,64.923 248.410,65.073 248.260 C 65.224 248.109,69.769 248.034,75.173 248.093 L 85.000 248.200 85.200 289.800 M260.000 283.600 L 260.000 298.000 189.000 298.000 L 118.000 298.000 118.000 283.867 C 118.000 276.093,118.120 269.613,118.267 269.467 C 118.413 269.320,150.363 269.200,189.267 269.200 L 260.000 269.200 260.000 283.600 " stroke="none" fill="#040404" fill-rule="evenodd"></path><path id="path2" d="M229.447 48.398 C 227.545 49.837,227.144 50.247,228.200 49.674 C 229.117 49.176,231.501 47.230,231.200 47.226 C 231.090 47.224,230.301 47.751,229.447 48.398 M168.000 148.996 C 168.000 149.270,170.449 150.484,170.632 150.301 C 170.719 150.214,170.162 149.844,169.395 149.478 C 168.628 149.112,168.000 148.895,168.000 148.996 M174.000 151.797 C 174.000 152.068,177.249 153.684,177.430 153.503 C 177.514 153.419,176.776 152.959,175.791 152.481 C 174.806 152.002,174.000 151.694,174.000 151.797 M141.633 168.151 C 142.042 168.521,145.200 169.995,145.200 169.816 C 145.200 169.589,142.181 168.000,141.749 168.000 C 141.594 168.000,141.542 168.068,141.633 168.151 M215.200 170.996 C 215.200 171.270,217.649 172.484,217.832 172.301 C 217.919 172.214,217.362 171.844,216.595 171.478 C 215.828 171.112,215.200 170.895,215.200 170.996 M299.633 171.300 C 299.725 171.355,300.340 171.850,301.000 172.400 L 302.200 173.400 301.230 172.300 C 300.697 171.695,300.082 171.200,299.864 171.200 C 299.645 171.200,299.542 171.245,299.633 171.300 M178.433 185.349 C 178.845 185.717,181.200 186.800,181.200 186.621 C 181.200 186.390,178.982 185.200,178.553 185.200 C 178.396 185.200,178.342 185.267,178.433 185.349 M251.200 187.796 C 251.200 188.070,253.649 189.284,253.832 189.101 C 253.919 189.014,253.362 188.644,252.595 188.278 C 251.828 187.912,251.200 187.695,251.200 187.796 M184.433 188.149 C 184.845 188.517,187.200 189.600,187.200 189.421 C 187.200 189.190,184.982 188.000,184.553 188.000 C 184.396 188.000,184.342 188.067,184.433 188.149 M257.200 190.596 C 257.200 190.870,259.649 192.084,259.832 191.901 C 259.919 191.814,259.362 191.444,258.595 191.078 C 257.828 190.712,257.200 190.495,257.200 190.596 M261.200 192.600 C 261.750 192.914,262.380 193.172,262.600 193.172 C 262.820 193.172,262.550 192.914,262.000 192.600 C 261.450 192.286,260.820 192.028,260.600 192.028 C 260.380 192.028,260.650 192.286,261.200 192.600 M221.200 205.400 C 221.750 205.714,222.380 205.972,222.600 205.972 C 222.820 205.972,222.550 205.714,222.000 205.400 C 221.450 205.086,220.820 204.828,220.600 204.828 C 220.380 204.828,220.650 205.086,221.200 205.400 M225.633 207.351 C 226.042 207.721,229.200 209.195,229.200 209.016 C 229.200 208.789,226.181 207.200,225.749 207.200 C 225.594 207.200,225.542 207.268,225.633 207.351 M147.200 209.758 C 147.200 209.954,148.455 210.323,151.399 210.992 C 152.059 211.142,152.478 211.144,152.330 210.997 C 152.183 210.850,151.283 210.558,150.331 210.350 C 149.379 210.141,148.285 209.875,147.900 209.758 C 147.515 209.642,147.200 209.641,147.200 209.758 M152.897 211.031 C 153.029 211.162,153.803 211.420,154.617 211.604 C 155.432 211.788,155.941 211.796,155.749 211.622 C 155.343 211.255,152.540 210.674,152.897 211.031 M262.800 224.800 C 263.570 225.222,264.380 225.566,264.600 225.566 C 264.820 225.566,264.370 225.222,263.600 224.800 C 262.830 224.378,262.020 224.034,261.800 224.034 C 261.580 224.034,262.030 224.378,262.800 224.800 M268.378 225.058 C 268.157 225.639,267.864 226.297,267.726 226.519 C 267.589 226.742,267.666 226.806,267.899 226.663 C 268.339 226.390,269.300 224.000,268.969 224.000 C 268.865 224.000,268.599 224.476,268.378 225.058 M243.603 230.113 C 243.924 230.471,248.799 231.522,248.593 231.189 C 248.492 231.025,247.732 230.768,246.904 230.618 C 246.077 230.468,244.950 230.242,244.400 230.116 C 243.850 229.990,243.491 229.989,243.603 230.113 M249.800 231.600 C 250.240 231.789,250.960 231.938,251.400 231.932 C 252.043 231.923,252.004 231.857,251.200 231.600 C 249.832 231.162,248.781 231.162,249.800 231.600 M120.800 233.224 C 120.800 233.457,120.980 233.536,121.200 233.400 C 121.420 233.264,121.600 233.343,121.600 233.576 C 121.600 233.809,121.802 234.000,122.049 234.000 C 122.359 234.000,122.344 233.815,122.000 233.400 C 121.422 232.703,120.800 232.612,120.800 233.224 M182.251 246.378 C 182.657 246.745,185.460 247.326,185.103 246.969 C 184.971 246.838,184.197 246.580,183.383 246.396 C 182.568 246.212,182.059 246.204,182.251 246.378 M186.400 247.303 C 186.684 247.599,192.891 248.843,193.090 248.643 C 193.181 248.552,192.388 248.295,191.328 248.070 C 188.016 247.370,186.192 247.086,186.400 247.303 M75.000 248.296 L 84.800 248.414 84.800 289.964 C 84.800 327.484,84.861 331.538,85.433 331.757 C 85.781 331.891,133.886 331.956,192.333 331.901 L 298.600 331.802 192.000 331.601 L 85.400 331.400 85.200 289.800 L 85.000 248.200 75.100 248.189 L 65.200 248.179 75.000 248.296 M303.300 248.299 C 306.105 248.368,310.695 248.368,313.500 248.299 C 316.305 248.230,314.010 248.174,308.400 248.174 C 302.790 248.174,300.495 248.230,303.300 248.299 M153.700 269.500 C 173.225 269.557,205.175 269.557,224.700 269.500 C 244.225 269.443,228.250 269.396,189.200 269.396 C 150.150 269.396,134.175 269.443,153.700 269.500 M128.100 351.900 C 163.025 351.956,220.175 351.956,255.100 351.900 C 290.025 351.844,261.450 351.798,191.600 351.798 C 121.750 351.798,93.175 351.844,128.100 351.900 M381.800 392.612 C 380.235 393.895,380.657 393.886,382.400 392.600 C 383.145 392.050,383.585 391.606,383.378 391.614 C 383.170 391.622,382.460 392.071,381.800 392.612 " stroke="none" fill="#5d5d5d" fill-rule="evenodd"></path><path id="path3" d="M203.776 197.005 C 204.204 197.332,204.789 197.600,205.076 197.600 C 205.968 197.600,205.657 197.297,204.300 196.845 C 203.111 196.448,203.066 196.462,203.776 197.005 M273.200 214.400 C 272.751 215.280,272.474 216.000,272.584 216.000 C 272.694 216.000,273.151 215.280,273.600 214.400 C 274.049 213.520,274.326 212.800,274.216 212.800 C 274.106 212.800,273.649 213.520,273.200 214.400 M245.776 216.605 C 246.204 216.932,246.789 217.200,247.076 217.200 C 247.968 217.200,247.657 216.897,246.300 216.445 C 245.111 216.048,245.066 216.062,245.776 216.605 M64.985 248.900 C 64.880 249.175,64.841 272.350,64.897 300.400 L 65.000 351.400 191.700 351.401 L 318.400 351.402 191.800 351.300 L 65.200 351.199 65.200 300.006 L 65.200 248.814 75.100 248.700 L 85.000 248.585 75.087 248.493 C 67.456 248.421,65.131 248.515,64.985 248.900 M303.300 248.699 C 306.105 248.768,310.695 248.768,313.500 248.699 C 316.305 248.630,314.010 248.574,308.400 248.574 C 302.790 248.574,300.495 248.630,303.300 248.699 M259.780 283.600 C 259.780 291.410,259.834 294.605,259.899 290.700 C 259.965 286.795,259.965 280.405,259.899 276.500 C 259.834 272.595,259.780 275.790,259.780 283.600 M118.180 283.800 C 118.180 291.500,118.234 294.593,118.299 290.674 C 118.365 286.755,118.365 280.455,118.299 276.674 C 118.234 272.893,118.180 276.100,118.180 283.800 " stroke="none" fill="#7c7c7c" fill-rule="evenodd"></path><path id="path4" d="" stroke="none" fill="#747474" fill-rule="evenodd"></path></g></svg>