<svg xmlns="http://www.w3.org/2000/svg" xmlns:xlink="http://www.w3.org/1999/xlink" version="1.1" enable-background="new 0 0 1000 1000" xml:space="preserve" width="1000" height="1000" style=""><rect id="backgroundrect" width="100%" height="100%" x="0" y="0" fill="none" stroke="none"/>
<metadata> Svg Vector Icons : http://www.onlinewebfonts.com/icon </metadata>

<g class="currentLayer" style=""><title>Layer 1</title><g id="svg_1" class="selected" fill="#ea4335" fill-opacity="1"><g id="svg_2" fill="#ea4335" fill-opacity="1"><path d="M112.1,990 c-28.3,0 -52.4,-9.9 -72.3,-29.8 c-19.9,-19.9 -29.8,-44 -29.8,-72.3 v-775.8 c0,-28.3 9.9,-52.4 29.8,-72.3 c19.9,-19.9 44,-29.8 72.3,-29.8 h775.8 c28.3,0 52.4,9.9 72.3,29.8 c19.9,19.9 29.8,44 29.8,72.3 v775.8 c0,28.3 -9.9,52.4 -29.8,72.3 c-19.9,19.9 -44,29.8 -72.3,29.8 H112.1 zM180.7,785.8 h33.5 v-397.7 l277.7,201.7 l12.7,9 l363,-264.6 v-33.5 c0,-13.1 -4.6,-24 -13.9,-32.7 c-9.3,-8.7 -20.7,-13.1 -34.3,-13.1 h-2 l-314.8,227.9 L188,255 h-7.4 c-13.6,0 -25,4.4 -34.3,13.1 c-9.3,8.7 -13.9,19.6 -13.9,32.7 v436.9 c0,4.6 0.7000000000000001,9.1 2,13.5 c3,10.1 8.7,18.4 17.1,24.9 C160.1,782.5999999999999 169.8,785.8 180.7,785.8 zM502.5,432.20000000000005 L745,255 H255 L502.5,432.20000000000005 zM255,785.8 h490 v-255.2 l-240.1,118.8 L255,468.0999999999999 V785.8 zM785.8,785.8 h33.5 c7.1,0 13.8,-1.5 20.2,-4.5 c6.4,-3 11.8,-7.1 16.3,-12.3 c4.5,-5.2 7.7,-11.2 9.6,-18 c1.4,-4.4 2,-8.8 2,-13.5 v-266.2 l-81.7,40 V785.8 z" stroke-width="0" id="svg_3" fill="#ea4335" fill-opacity="1"/></g></g></g></svg>