<?xml version="1.0" encoding="utf-8"?>
<!-- Svg Vector Icons : http://www.onlinewebfonts.com/icon -->
<!DOCTYPE svg PUBLIC "-//W3C//DTD SVG 1.1//EN" "http://www.w3.org/Graphics/SVG/1.1/DTD/svg11.dtd">
<svg version="1.1" xmlns="http://www.w3.org/2000/svg" xmlns:xlink="http://www.w3.org/1999/xlink" x="0px" y="0px" viewBox="0 0 1000 1000" enable-background="new 0 0 1000 1000" xml:space="preserve">
<metadata> Svg Vector Icons : http://www.onlinewebfonts.com/icon </metadata>
<g><g transform="matrix(1 0 0 -1 0 1920)"><path d="M112.1,930c-28.3,0-52.4,9.9-72.3,29.8c-19.9,19.9-29.8,44-29.8,72.3v775.8c0,28.3,9.9,52.4,29.8,72.3c19.9,19.9,44,29.8,72.3,29.8h775.8c28.3,0,52.4-9.9,72.3-29.8c19.9-19.9,29.8-44,29.8-72.3v-775.8c0-28.3-9.9-52.4-29.8-72.3c-19.9-19.9-44-29.8-72.3-29.8H112.1z M180.7,1134.2h33.5v397.7l277.7-201.7l12.7-9l363,264.6v33.5c0,13.1-4.6,24-13.9,32.7c-9.3,8.7-20.7,13.1-34.3,13.1h-2l-314.8-227.9L188,1665h-7.4c-13.6,0-25-4.4-34.3-13.1c-9.3-8.7-13.9-19.6-13.9-32.7v-436.9c0-4.6,0.7-9.1,2-13.5c3-10.1,8.7-18.4,17.1-24.9C160.1,1137.4,169.8,1134.2,180.7,1134.2z M502.5,1487.8L745,1665H255L502.5,1487.8z M255,1134.2h490v255.2l-240.1-118.8L255,1451.9V1134.2z M785.8,1134.2h33.5c7.1,0,13.8,1.5,20.2,4.5c6.4,3,11.8,7.1,16.3,12.3c4.5,5.2,7.7,11.2,9.6,18c1.4,4.4,2,8.8,2,13.5v266.2l-81.7-40V1134.2z"/></g></g>
</svg>