<svg id="svg" version="1.1" xmlns="http://www.w3.org/2000/svg" xmlns:xlink="http://www.w3.org/1999/xlink" width="400" height="400" viewBox="0, 0, 400,400"><g id="svgg"><path id="path0" d="M36.200 0.796 C 17.951 4.951,4.830 18.138,0.773 36.400 C -0.410 41.725,-0.410 358.275,0.773 363.600 C 4.850 381.952,18.048 395.150,36.400 399.227 C 41.725 400.410,358.275 400.410,363.600 399.227 C 381.952 395.150,395.150 381.952,399.227 363.600 C 400.412 358.266,400.410 41.718,399.225 36.400 C 395.520 19.776,384.708 7.667,368.541 2.034 C 362.450 -0.089,367.289 0.001,258.900 0.001 L 158.400 0.000 158.400 54.200 C 158.400 102.111,158.470 108.400,159.000 108.400 C 159.330 108.400,159.600 108.239,159.600 108.042 C 159.600 107.663,166.269 100.805,168.069 99.333 C 175.635 93.147,184.670 89.259,196.400 87.142 C 201.035 86.305,220.593 86.430,225.800 87.330 C 257.209 92.759,276.329 114.003,282.562 150.400 C 284.575 162.153,284.523 160.229,284.684 229.501 L 284.834 294.403 283.835 295.401 L 282.836 296.400 263.637 296.400 C 243.540 296.400,242.690 296.331,242.239 294.651 C 242.114 294.183,242.007 265.900,242.002 231.800 C 241.992 165.613,241.954 164.181,240.013 155.856 C 235.059 134.608,222.887 124.576,202.200 124.690 C 181.245 124.806,164.758 137.721,159.674 158.000 L 158.621 162.200 158.411 228.439 C 158.235 283.765,158.110 294.786,157.651 295.339 C 156.905 296.238,117.478 296.337,116.300 295.443 C 115.636 294.939,115.600 287.421,115.600 147.456 L 115.600 0.000 77.500 0.034 C 42.154 0.065,39.169 0.120,36.200 0.796 M307.200 336.800 L 307.200 347.200 200.000 347.200 L 92.800 347.200 92.800 336.800 L 92.800 326.400 200.000 326.400 L 307.200 326.400 307.200 336.800 " stroke="none" fill="#2c3454" fill-rule="evenodd"></path><path id="path1" d="" stroke="none" fill="#303454" fill-rule="evenodd"></path><path id="path2" d="" stroke="none" fill="#303454" fill-rule="evenodd"></path></g></svg>