<svg xmlns="http://www.w3.org/2000/svg" xmlns:xlink="http://www.w3.org/1999/xlink" width="400,400" height="undefined" version="1.1"><rect id="backgroundrect" width="100%" height="100%" x="0" y="0" fill="none" stroke="none"/><g class="currentLayer" style=""><title>Layer 1</title><g id="svgg" class="selected" fill-opacity="1" fill="#2c3454"><path id="path0" d="M36.800 0.625 C 19.225 4.421,6.093 16.706,1.311 33.823 L 0.200 37.800 0.200 200.000 L 0.200 362.200 1.311 366.177 C 5.776 382.159,17.841 394.224,33.823 398.689 L 37.800 399.800 200.000 399.800 L 362.200 399.800 366.177 398.689 C 382.159 394.224,394.224 382.159,398.689 366.177 L 399.800 362.200 399.800 200.000 L 399.800 37.800 398.689 33.823 C 394.526 18.921,383.908 7.507,369.340 2.273 C 362.626 -0.138,369.333 0.000,259.156 0.000 L 158.400 0.000 158.400 54.200 C 158.400 97.306,158.502 108.395,158.900 108.377 C 159.175 108.364,160.390 107.178,161.600 105.740 C 174.113 90.872,195.202 84.183,221.258 86.819 C 254.447 90.176,275.691 111.997,282.378 149.600 C 284.594 162.059,284.519 159.460,284.684 229.500 L 284.836 294.401 283.836 295.400 L 282.836 296.400 263.400 296.400 L 243.964 296.400 242.982 295.418 L 242.000 294.436 242.000 232.288 C 242.000 168.213,241.937 165.363,240.350 157.400 C 236.310 137.141,225.416 126.497,206.962 124.780 C 184.974 122.733,165.180 136.188,160.049 156.667 C 158.407 163.222,158.400 163.516,158.400 229.977 C 158.400 293.867,158.393 294.407,157.600 295.200 C 156.405 296.395,117.340 296.460,116.262 295.269 C 115.649 294.591,115.600 283.742,115.600 147.269 L 115.600 0.000 77.500 0.032 C 46.384 0.058,38.923 0.167,36.800 0.625 M307.200 336.800 L 307.200 347.200 200.000 347.200 L 92.800 347.200 92.800 336.800 L 92.800 326.400 200.000 326.400 L 307.200 326.400 307.200 336.800 " stroke="none" fill="#2c3454" fill-rule="evenodd"/></g></g></svg>