<svg id="svg" version="1.1" xmlns="http://www.w3.org/2000/svg" xmlns:xlink="http://www.w3.org/1999/xlink" width="400" height="441.49377593361" viewBox="0, 0, 400,441.49377593361"><g id="svgg"><path id="path0" d="M194.232 0.549 C 191.906 1.174,188.152 2.757,177.178 7.740 C 122.423 32.601,71.094 62.573,21.279 98.775 C 13.432 104.478,11.983 105.751,9.964 108.714 C 7.038 113.009,5.954 116.447,5.256 123.651 C 5.086 125.401,4.841 127.891,4.711 129.184 C 4.582 130.477,4.474 131.722,4.474 131.950 C 4.472 132.478,4.232 134.800,4.031 136.238 C 3.867 137.411,3.674 139.800,3.452 143.430 C 3.377 144.647,3.195 147.012,3.048 148.686 C 2.762 151.930,2.578 154.360,2.261 159.129 L 2.063 162.102 60.921 162.102 L 119.778 162.102 119.848 238.105 L 119.918 314.108 119.987 224.846 L 120.055 135.584 115.698 135.496 C 109.529 135.371,107.607 134.148,107.607 130.347 C 107.607 127.883,107.684 127.801,124.488 112.165 C 141.257 96.563,141.243 96.575,143.370 96.555 C 145.596 96.534,146.011 96.871,161.549 111.318 C 180.915 129.323,180.035 128.314,179.213 131.579 C 178.457 134.584,176.439 135.546,170.897 135.546 L 167.170 135.546 166.988 142.393 C 166.888 146.158,166.836 160.007,166.873 173.167 C 166.934 195.131,166.945 195.659,167.012 179.599 L 167.086 162.102 200.002 162.102 L 232.918 162.102 232.918 144.666 C 232.918 125.438,232.856 126.152,234.680 124.550 C 236.203 123.214,235.822 123.237,256.432 123.237 C 277.041 123.237,276.660 123.214,278.183 124.550 C 280.007 126.152,279.945 125.438,279.945 144.666 L 279.945 162.102 339.009 162.102 L 398.074 162.102 397.945 161.480 C 397.874 161.138,397.737 159.426,397.641 157.676 C 397.545 155.927,397.423 153.997,397.369 153.389 C 396.984 149.007,396.680 145.003,396.697 144.537 C 396.708 144.232,396.647 143.361,396.563 142.600 C 396.479 141.840,396.346 140.346,396.267 139.281 C 396.189 138.216,395.934 135.539,395.701 133.333 C 395.468 131.127,395.223 128.508,395.158 127.512 C 394.488 117.300,392.983 112.337,389.046 107.359 C 387.033 104.813,386.725 104.557,378.093 98.280 C 327.055 61.158,273.280 30.099,216.181 4.762 C 205.062 -0.172,200.307 -1.085,194.232 0.549 M166.933 244.606 C 166.860 244.796,166.833 260.636,166.873 279.806 L 166.945 314.661 167.014 279.600 L 167.082 244.539 200.069 244.467 L 233.057 244.396 200.060 244.328 C 173.868 244.274,167.037 244.331,166.933 244.606 M226.500 306.153 C 227.762 306.205,229.754 306.205,230.926 306.153 C 232.098 306.101,231.065 306.059,228.631 306.059 C 226.196 306.060,225.238 306.102,226.500 306.153 M282.102 306.153 C 283.364 306.205,285.356 306.205,286.528 306.153 C 287.700 306.101,286.667 306.059,284.232 306.059 C 281.798 306.060,280.839 306.102,282.102 306.153 M220.755 313.371 C 220.751 313.575,221.400 314.389,222.199 315.180 C 223.409 316.379,223.461 316.409,222.511 315.363 C 221.884 314.673,221.234 313.859,221.067 313.555 C 220.899 313.249,220.760 313.167,220.755 313.371 M290.170 315.560 L 288.658 317.151 290.249 315.639 C 291.727 314.234,291.966 313.970,291.761 313.970 C 291.718 313.970,291.002 314.685,290.170 315.560 M133.838 318.326 C 139.212 318.368,147.926 318.368,153.201 318.326 C 158.477 318.284,154.080 318.250,143.430 318.250 C 132.780 318.250,128.463 318.284,133.838 318.326 M226.833 319.640 C 227.349 320.173,227.833 320.609,227.909 320.609 C 227.985 320.609,227.625 320.173,227.109 319.640 C 226.593 319.108,226.109 318.672,226.033 318.672 C 225.956 318.672,226.317 319.108,226.833 319.640 M285.739 319.710 L 284.786 320.747 285.823 319.794 C 286.393 319.269,286.860 318.802,286.860 318.756 C 286.860 318.545,286.626 318.744,285.739 319.710 M230.705 323.237 C 231.222 323.769,231.706 324.205,231.782 324.205 C 231.858 324.205,231.498 323.769,230.982 323.237 C 230.466 322.704,229.981 322.268,229.905 322.268 C 229.829 322.268,230.189 322.704,230.705 323.237 M281.730 323.444 L 280.636 324.620 281.812 323.526 C 282.459 322.925,282.988 322.396,282.988 322.350 C 282.988 322.141,282.747 322.351,281.730 323.444 M234.716 326.971 C 235.311 327.580,235.859 328.077,235.935 328.077 C 236.011 328.077,235.587 327.580,234.993 326.971 C 234.399 326.362,233.850 325.864,233.774 325.864 C 233.698 325.864,234.122 326.362,234.716 326.971 M277.717 327.178 L 276.763 328.216 277.801 327.262 C 278.766 326.375,278.965 326.141,278.754 326.141 C 278.708 326.141,278.241 326.608,277.717 327.178 M238.728 330.705 C 239.244 331.238,239.728 331.674,239.804 331.674 C 239.880 331.674,239.520 331.238,239.004 330.705 C 238.488 330.173,238.004 329.737,237.927 329.737 C 237.851 329.737,238.211 330.173,238.728 330.705 M273.708 330.913 L 272.614 332.089 273.790 330.995 C 274.436 330.394,274.965 329.865,274.965 329.819 C 274.965 329.610,274.725 329.820,273.708 330.913 M242.739 334.440 C 243.333 335.048,243.881 335.546,243.957 335.546 C 244.033 335.546,243.609 335.048,243.015 334.440 C 242.421 333.831,241.873 333.333,241.796 333.333 C 241.720 333.333,242.144 333.831,242.739 334.440 M269.695 334.647 L 268.741 335.685 269.779 334.731 C 270.744 333.844,270.943 333.610,270.732 333.610 C 270.686 333.610,270.219 334.077,269.695 334.647 M246.750 338.174 C 247.266 338.707,247.750 339.142,247.826 339.142 C 247.902 339.142,247.542 338.707,247.026 338.174 C 246.510 337.642,246.026 337.206,245.950 337.206 C 245.873 337.206,246.234 337.642,246.750 338.174 M265.822 338.243 L 264.869 339.281 265.906 338.327 C 266.871 337.440,267.070 337.206,266.859 337.206 C 266.813 337.206,266.346 337.673,265.822 338.243 M250.622 341.770 C 251.139 342.303,251.623 342.739,251.699 342.739 C 251.775 342.739,251.415 342.303,250.899 341.770 C 250.383 341.238,249.898 340.802,249.822 340.802 C 249.746 340.802,250.106 341.238,250.622 341.770 M261.673 342.116 L 260.719 343.154 261.757 342.200 C 262.722 341.313,262.921 341.079,262.710 341.079 C 262.664 341.079,262.197 341.546,261.673 342.116 M255.809 345.147 C 256.151 345.213,256.712 345.213,257.054 345.147 C 257.396 345.081,257.116 345.027,256.432 345.027 C 255.747 345.027,255.467 345.081,255.809 345.147 " stroke="none" fill="#2dc464" fill-rule="evenodd"></path><path id="path1" d="M3.126 145.781 C 3.126 146.618,3.178 146.961,3.241 146.542 C 3.304 146.124,3.304 145.439,3.241 145.021 C 3.178 144.602,3.126 144.945,3.126 145.781 M396.760 145.643 C 396.762 146.404,396.815 146.682,396.879 146.262 C 396.943 145.841,396.941 145.219,396.875 144.879 C 396.810 144.538,396.758 144.882,396.760 145.643 M397.040 148.824 C 397.040 149.661,397.092 150.003,397.155 149.585 C 397.219 149.167,397.219 148.482,397.155 148.064 C 397.092 147.645,397.040 147.988,397.040 148.824 M2.849 149.101 C 2.849 149.938,2.901 150.280,2.964 149.862 C 3.028 149.443,3.028 148.759,2.964 148.340 C 2.901 147.922,2.849 148.264,2.849 149.101 M397.304 151.729 C 397.307 152.337,397.363 152.554,397.429 152.210 C 397.496 151.866,397.493 151.368,397.424 151.103 C 397.355 150.839,397.300 151.120,397.304 151.729 M2.559 152.006 C 2.562 152.614,2.619 152.830,2.685 152.486 C 2.751 152.142,2.749 151.644,2.680 151.380 C 2.610 151.115,2.556 151.397,2.559 152.006 M397.596 155.878 C 397.598 156.791,397.649 157.131,397.711 156.634 C 397.772 156.137,397.771 155.390,397.708 154.974 C 397.645 154.559,397.595 154.965,397.596 155.878 M2.299 156.155 C 2.300 157.068,2.352 157.408,2.413 156.911 C 2.475 156.413,2.474 155.667,2.411 155.251 C 2.348 154.835,2.297 155.242,2.299 156.155 M397.876 159.889 C 397.876 160.878,397.926 161.283,397.987 160.788 C 398.048 160.294,398.048 159.485,397.987 158.990 C 397.926 158.496,397.876 158.900,397.876 159.889 M2.025 160.166 C 2.025 161.155,2.075 161.559,2.136 161.065 C 2.198 160.571,2.198 159.761,2.136 159.267 C 2.075 158.772,2.025 159.177,2.025 160.166 M1.813 162.725 C 1.682 163.328,1.115 173.433,0.527 185.615 C -1.021 217.685,0.323 266.930,3.756 303.873 C 6.360 331.897,6.622 332.466,22.130 343.726 C 71.324 379.445,123.852 409.877,179.668 434.996 C 198.783 443.598,200.730 443.693,216.321 436.787 C 274.969 410.807,331.952 377.728,382.573 340.277 C 388.521 335.876,391.509 332.019,393.308 326.418 C 395.186 320.569,398.028 287.852,399.506 255.048 C 399.983 244.481,399.988 197.123,399.514 186.860 C 398.957 174.810,398.307 162.821,398.190 162.448 C 398.103 162.173,386.025 162.102,339.013 162.102 L 279.945 162.102 279.945 234.025 L 279.945 305.947 284.163 305.954 C 291.035 305.963,293.721 308.416,292.132 313.231 C 291.726 314.460,260.297 343.878,258.506 344.705 C 255.338 346.169,255.504 346.290,237.158 329.201 C 220.188 313.394,220.470 313.699,220.470 311.151 C 220.470 307.221,222.500 305.947,228.760 305.947 L 232.918 305.947 232.918 275.242 L 232.918 244.537 200.000 244.537 L 167.082 244.537 167.082 279.400 C 167.082 317.747,167.196 315.296,165.332 316.933 C 163.672 318.390,163.640 318.392,143.430 318.392 C 122.864 318.392,123.043 318.406,121.406 316.768 C 119.683 315.045,119.782 319.872,119.780 237.828 L 119.779 162.102 60.863 162.102 L 1.947 162.102 1.813 162.725 M167.082 179.530 L 167.082 196.957 200.000 196.957 L 232.918 196.957 232.918 179.530 L 232.918 162.102 200.000 162.102 L 167.082 162.102 167.082 179.530 " stroke="none" fill="#25b556" fill-rule="evenodd"></path></g></svg>