<svg id="svg" xmlns="http://www.w3.org/2000/svg" xmlns:xlink="http://www.w3.org/1999/xlink" width="400" height="441.49377593361" viewBox="0, 0, 400,441.49377593361" version="1.1"><g id="svgg"><path id="path1" d="M194.232 0.549 C 191.906 1.174,188.152 2.757,177.178 7.740 C 124.664 31.583,73.531 61.139,27.386 94.324 C 23.658 97.005,19.239 100.182,17.566 101.385 C 9.210 107.392,6.507 112.227,5.276 123.375 C -1.335 183.246,-1.843 243.589,3.756 303.873 C 6.359 331.895,6.622 332.466,22.130 343.726 C 71.324 379.445,123.852 409.877,179.668 434.996 C 198.783 443.598,200.730 443.693,216.321 436.787 C 274.969 410.807,331.952 377.728,382.573 340.277 C 389.517 335.140,392.910 330.078,394.182 322.960 C 394.834 319.308,396.882 297.898,397.781 285.339 C 399.516 261.097,399.862 250.376,399.862 220.885 C 399.862 194.915,399.735 189.339,398.743 171.508 C 397.515 149.434,394.849 120.585,393.636 116.231 C 391.637 109.060,389.280 106.335,378.008 98.160 C 326.668 60.928,273.159 30.045,216.181 4.762 C 205.062 -0.172,200.307 -1.085,194.232 0.549 M145.583 96.921 C 146.393 97.266,175.088 123.689,177.765 126.555 C 179.889 128.829,179.940 131.817,177.889 133.868 C 176.510 135.246,175.260 135.546,170.895 135.546 L 167.166 135.546 166.985 138.494 C 166.886 140.115,166.805 153.933,166.805 169.199 L 166.805 196.957 199.862 196.957 L 232.918 196.957 232.918 162.093 C 232.918 133.438,232.985 127.071,233.292 126.335 C 233.741 125.261,235.404 123.741,236.450 123.448 C 237.437 123.172,275.426 123.172,276.413 123.448 C 277.459 123.741,279.122 125.261,279.571 126.335 C 279.882 127.080,279.945 142.185,279.945 216.727 L 279.945 306.224 284.384 306.224 C 289.258 306.224,289.827 306.365,291.108 307.886 C 292.720 309.802,292.759 312.665,291.198 314.442 C 289.603 316.260,259.706 343.973,258.820 344.456 C 255.563 346.231,255.395 346.112,237.493 329.394 C 219.799 312.870,220.044 313.148,220.585 310.266 C 221.186 307.058,222.799 306.224,228.395 306.224 L 232.918 306.224 232.918 275.241 L 232.918 244.258 199.931 244.328 L 166.943 244.398 166.805 279.806 L 166.667 315.214 166.021 316.120 C 164.527 318.215,165.609 318.119,143.396 318.119 L 123.562 318.119 122.388 317.431 C 121.606 316.973,121.022 316.345,120.635 315.546 L 120.055 314.348 120.055 224.966 L 120.055 135.584 115.698 135.496 C 110.565 135.392,109.672 135.098,108.400 133.092 C 107.481 131.643,107.320 129.457,108.024 127.975 C 108.507 126.956,140.141 97.408,141.291 96.900 C 142.317 96.448,144.497 96.459,145.583 96.921 " stroke="none" fill="#000000" fill-rule="evenodd"></path></g></svg>