<svg id="svg" version="1.1" xmlns="http://www.w3.org/2000/svg" xmlns:xlink="http://www.w3.org/1999/xlink" width="400" height="400" viewBox="0, 0, 400,400"><g id="svgg"><path id="path0" d="M80.386 52.938 C 80.279 79.046,80.094 100.505,79.974 100.625 C 79.384 101.215,71.619 100.959,70.640 100.318 C 69.106 99.313,69.099 99.123,68.780 53.711 C 68.411 1.188,69.360 5.877,59.743 9.051 L 54.806 10.681 54.551 33.368 C 54.410 45.846,54.181 66.094,54.042 78.364 L 53.788 100.674 50.234 100.907 C 46.594 101.144,43.618 100.806,42.883 100.070 C 41.916 99.103,41.730 93.628,41.470 58.398 C 41.150 15.149,41.455 17.718,37.047 21.160 C 27.480 28.628,19.442 38.585,14.219 49.438 C 7.150 64.127,7.006 65.303,6.424 113.184 L 6.167 134.375 58.845 134.329 C 87.818 134.304,116.201 134.173,121.917 134.036 L 132.311 133.789 134.996 131.276 C 159.721 108.140,197.186 99.701,228.630 110.185 C 242.983 114.971,253.916 121.180,265.879 131.339 L 269.453 134.375 332.349 134.375 L 395.245 134.375 395.064 119.043 C 394.529 73.938,394.178 67.198,391.980 59.949 C 388.139 47.275,383.682 40.267,372.098 28.684 C 359.864 16.451,353.218 12.335,338.146 7.655 L 332.610 5.937 219.885 5.647 L 107.160 5.356 106.901 26.571 C 106.758 38.238,106.641 59.683,106.641 74.225 L 106.641 100.666 103.418 100.899 C 100.111 101.139,97.119 100.791,96.414 100.086 C 95.551 99.223,95.370 92.319,95.095 49.707 L 94.809 5.469 87.695 5.469 L 80.581 5.469 80.386 52.938 M345.836 41.027 C 349.992 41.503,350.920 41.944,353.272 44.560 C 356.784 48.466,356.836 48.874,356.834 72.266 C 356.832 105.413,358.476 103.715,326.367 103.704 C 300.472 103.695,299.544 103.491,296.289 97.100 L 294.727 94.033 294.780 70.552 L 294.833 47.070 298.295 43.848 L 301.758 40.626 322.070 40.629 C 333.242 40.630,343.937 40.809,345.836 41.027 M189.648 125.268 C 150.952 130.268,121.818 164.989,123.172 204.492 C 124.048 230.075,132.132 245.795,153.906 264.260 C 176.783 283.659,216.395 284.685,243.531 266.580 C 268.065 250.212,280.404 222.987,277.375 191.907 C 274.475 162.153,250.367 134.628,220.618 127.108 C 213.431 125.291,197.018 124.316,189.648 125.268 M6.499 237.944 L 6.747 332.617 8.484 338.255 C 13.037 353.032,17.283 360.145,28.275 371.414 C 40.051 383.487,48.429 388.617,63.744 393.134 L 69.807 394.922 200.195 394.922 L 330.584 394.922 336.679 393.129 C 364.477 384.951,383.384 366.533,392.392 338.856 L 394.537 332.265 394.795 237.768 L 395.052 143.271 339.420 143.496 C 288.525 143.702,279.832 143.866,279.062 144.635 C 278.645 145.053,279.635 147.115,282.761 152.344 C 305.757 190.801,300.473 237.611,269.561 269.282 C 217.143 322.988,127.770 299.298,106.886 226.160 C 104.352 217.286,103.372 192.914,105.205 184.375 C 107.657 172.960,111.947 162.042,118.032 151.731 C 120.792 147.056,121.729 145.037,121.328 144.635 C 120.559 143.867,111.910 143.702,61.426 143.496 L 6.251 143.271 6.499 237.944 M208.856 148.792 C 218.095 150.711,232.119 157.503,237.439 162.635 C 252.906 177.554,258.909 201.729,251.765 220.330 C 241.178 247.896,211.318 262.707,184.914 253.490 C 153.857 242.650,138.705 211.150,150.502 181.955 C 159.789 158.973,186.044 144.052,208.856 148.792 " stroke="none" fill="#040404" fill-rule="evenodd"></path><path id="path1" d="" stroke="none" fill="#080404" fill-rule="evenodd"></path><path id="path2" d="" stroke="none" fill="#080404" fill-rule="evenodd"></path><path id="path3" d="" stroke="none" fill="#080404" fill-rule="evenodd"></path><path id="path4" d="" stroke="none" fill="#080404" fill-rule="evenodd"></path></g></svg>