<svg id="svg" version="1.1" xmlns="http://www.w3.org/2000/svg" xmlns:xlink="http://www.w3.org/1999/xlink" width="400" height="400" viewBox="0, 0, 400,400"><g id="svgg"><path id="path1" d="M0.000 200.000 L 0.000 400.000 200.000 400.000 L 400.000 400.000 400.000 200.000 L 400.000 0.000 200.000 0.000 L 0.000 0.000 0.000 200.000 M159.604 136.579 C 208.948 143.838,231.788 201.947,200.570 240.804 C 179.532 266.991,141.877 272.456,114.503 253.295 C 91.029 236.864,81.009 206.531,90.233 179.824 C 100.418 150.339,129.577 132.161,159.604 136.579 M258.482 140.744 C 280.858 148.204,292.069 196.745,279.803 233.060 C 267.327 270.000,238.446 270.080,225.904 233.209 C 210.802 188.812,230.969 131.572,258.482 140.744 M303.499 146.388 C 312.353 150.967,316.611 201.825,310.917 234.996 C 305.649 265.686,295.440 259.373,291.891 223.232 C 288.131 184.939,294.646 141.810,303.499 146.388 " stroke="none" fill="#000000" fill-rule="evenodd"></path><path id="path2" d="M145.867 136.331 C 146.564 136.394,147.703 136.394,148.399 136.331 C 149.095 136.269,148.526 136.217,147.133 136.217 C 145.741 136.217,145.171 136.269,145.867 136.331 M153.611 136.331 C 154.308 136.394,155.447 136.394,156.143 136.331 C 156.839 136.269,156.270 136.217,154.877 136.217 C 153.485 136.217,152.915 136.269,153.611 136.331 M142.442 136.616 C 142.729 136.691,143.198 136.691,143.485 136.616 C 143.771 136.541,143.537 136.480,142.964 136.480 C 142.390 136.480,142.156 136.541,142.442 136.616 M158.082 136.622 C 158.453 136.693,158.989 136.690,159.274 136.616 C 159.559 136.541,159.255 136.483,158.600 136.486 C 157.945 136.489,157.712 136.550,158.082 136.622 M140.357 136.914 C 140.644 136.989,141.113 136.989,141.400 136.914 C 141.687 136.839,141.452 136.778,140.879 136.778 C 140.305 136.778,140.071 136.839,140.357 136.914 M134.177 138.198 C 133.802 138.359,133.747 138.454,134.028 138.454 C 134.274 138.454,134.743 138.339,135.071 138.198 C 135.446 138.037,135.501 137.942,135.220 137.942 C 134.974 137.942,134.505 138.057,134.177 138.198 M168.727 138.794 C 169.054 138.935,169.523 139.050,169.769 139.050 C 170.051 139.050,169.996 138.955,169.620 138.794 C 169.293 138.653,168.824 138.538,168.578 138.538 C 168.296 138.538,168.351 138.632,168.727 138.794 M250.054 139.946 C 249.572 140.049,250.838 140.134,252.867 140.134 C 254.896 140.134,256.161 140.049,255.679 139.946 C 255.197 139.842,253.931 139.758,252.867 139.758 C 251.802 139.758,250.536 139.842,250.054 139.946 M258.204 140.899 C 259.092 141.215,259.870 141.421,259.933 141.358 C 260.072 141.219,257.359 140.274,256.909 140.305 C 256.733 140.317,257.316 140.584,258.204 140.899 M174.559 140.692 C 174.865 140.965,181.683 144.097,181.683 143.965 C 181.683 143.798,175.003 140.581,174.656 140.581 C 174.535 140.581,174.491 140.631,174.559 140.692 M124.348 141.750 C 122.006 142.890,122.381 142.918,124.829 141.786 C 125.875 141.302,126.597 140.900,126.433 140.893 C 126.270 140.886,125.331 141.272,124.348 141.750 M244.453 141.792 C 243.838 142.117,243.336 142.449,243.336 142.530 C 243.336 142.663,245.688 141.563,245.992 141.289 C 246.334 140.979,245.440 141.271,244.453 141.792 M260.338 141.570 C 260.829 141.950,263.291 143.257,263.291 143.138 C 263.291 142.946,260.786 141.474,260.460 141.474 C 260.325 141.474,260.269 141.517,260.338 141.570 M120.849 143.430 C 120.071 143.835,119.434 144.233,119.434 144.315 C 119.434 144.396,120.104 144.123,120.923 143.708 C 121.742 143.293,122.413 142.889,122.413 142.810 C 122.413 142.613,122.439 142.602,120.849 143.430 M263.589 143.355 C 263.589 143.428,264.081 143.864,264.682 144.322 C 265.284 144.781,265.682 145.004,265.567 144.818 C 265.331 144.437,263.589 143.148,263.589 143.355 M238.758 145.963 C 236.740 147.848,234.016 150.996,233.364 152.197 C 232.998 152.871,233.499 152.302,235.263 150.042 C 236.123 148.939,237.848 147.096,239.095 145.947 C 240.342 144.797,241.284 143.857,241.188 143.857 C 241.092 143.857,239.999 144.805,238.758 145.963 M266.004 145.272 C 266.022 145.395,266.792 146.161,267.716 146.975 L 269.397 148.454 267.769 146.751 C 266.109 145.015,265.947 144.880,266.004 145.272 M184.512 145.798 C 184.840 146.065,185.376 146.415,185.704 146.576 L 186.299 146.868 185.704 146.383 C 185.376 146.117,184.840 145.767,184.512 145.606 L 183.917 145.313 184.512 145.798 M302.755 146.390 C 303.896 146.793,304.500 147.319,305.673 148.930 C 305.967 149.334,306.115 149.464,306.001 149.218 C 305.203 147.493,303.329 145.925,302.100 145.955 C 301.805 145.962,302.100 146.158,302.755 146.390 M300.074 147.010 L 299.181 147.778 300.223 147.105 C 301.561 146.242,301.564 146.239,301.241 146.241 C 301.091 146.242,300.566 146.588,300.074 147.010 M186.520 147.009 C 186.618 147.166,187.335 147.753,188.114 148.313 C 188.893 148.872,189.452 149.202,189.354 149.044 C 189.257 148.887,188.540 148.301,187.761 147.741 C 186.982 147.181,186.423 146.852,186.520 147.009 M113.179 148.361 C 112.141 149.271,112.141 149.272,113.096 148.637 C 113.623 148.286,114.134 147.871,114.230 147.715 C 114.518 147.250,114.279 147.397,113.179 148.361 M106.683 153.909 L 103.145 157.409 106.301 154.455 C 108.036 152.830,109.721 151.255,110.044 150.955 C 110.367 150.655,110.539 150.410,110.426 150.410 C 110.313 150.410,108.629 151.984,106.683 153.909 M297.293 151.167 C 296.794 152.262,296.890 152.496,297.429 151.500 C 297.681 151.035,297.832 150.599,297.763 150.531 C 297.695 150.463,297.484 150.749,297.293 151.167 M272.417 152.792 C 273.179 153.939,273.858 154.877,273.926 154.877 C 274.084 154.877,273.863 154.506,272.461 152.420 C 271.828 151.478,271.248 150.707,271.170 150.707 C 271.093 150.707,271.654 151.646,272.417 152.792 M307.244 152.197 C 307.354 152.606,307.568 153.142,307.720 153.388 C 307.911 153.698,307.935 153.608,307.797 153.090 C 307.687 152.681,307.473 152.144,307.321 151.899 C 307.129 151.588,307.106 151.679,307.244 152.197 M195.681 154.728 C 197.231 156.284,198.566 157.558,198.648 157.558 C 198.730 157.558,197.529 156.284,195.979 154.728 C 194.429 153.172,193.094 151.899,193.013 151.899 C 192.931 151.899,194.132 153.172,195.681 154.728 M274.460 156.069 C 274.714 156.560,274.989 156.962,275.071 156.962 C 275.153 156.962,275.012 156.560,274.758 156.069 C 274.504 155.577,274.229 155.175,274.147 155.175 C 274.065 155.175,274.206 155.577,274.460 156.069 M295.309 156.664 C 295.196 157.179,295.165 157.662,295.241 157.738 C 295.317 157.814,295.465 157.448,295.570 156.925 C 295.674 156.402,295.705 155.918,295.637 155.851 C 295.570 155.783,295.422 156.149,295.309 156.664 M308.605 156.069 C 308.605 156.314,308.720 156.783,308.861 157.111 C 309.022 157.486,309.117 157.541,309.117 157.260 C 309.117 157.014,309.002 156.545,308.861 156.217 C 308.699 155.842,308.605 155.787,308.605 156.069 M229.471 158.780 C 228.885 159.943,228.454 160.944,228.513 161.003 C 228.573 161.062,229.116 160.110,229.722 158.888 C 230.327 157.665,230.757 156.664,230.679 156.664 C 230.600 156.664,230.057 157.616,229.471 158.780 M101.992 158.824 L 101.117 159.792 102.085 158.917 C 102.987 158.101,103.190 157.856,102.960 157.856 C 102.908 157.856,102.473 158.291,101.992 158.824 M199.831 159.270 C 200.549 160.130,201.193 160.834,201.263 160.834 C 201.465 160.834,199.631 158.587,199.051 158.125 C 198.763 157.895,199.114 158.410,199.831 159.270 M294.713 159.047 C 294.600 159.562,294.570 160.045,294.646 160.121 C 294.722 160.197,294.869 159.831,294.974 159.308 C 295.079 158.784,295.109 158.301,295.042 158.233 C 294.974 158.166,294.826 158.532,294.713 159.047 M309.516 159.494 C 309.516 159.821,309.623 160.424,309.754 160.834 C 309.943 161.424,309.993 161.455,309.993 160.983 C 309.993 160.655,309.885 160.052,309.754 159.643 C 309.565 159.053,309.516 159.022,309.516 159.494 M276.715 160.387 C 276.715 160.551,276.907 161.020,277.141 161.430 C 277.375 161.839,277.566 162.040,277.566 161.876 C 277.566 161.713,277.375 161.243,277.141 160.834 C 276.907 160.424,276.715 160.223,276.715 160.387 M99.735 161.653 C 98.878 162.687,98.515 163.217,98.662 163.217 C 98.745 163.217,99.170 162.748,99.608 162.174 C 100.419 161.110,100.517 160.709,99.735 161.653 M202.066 162.123 C 202.525 162.725,202.960 163.217,203.034 163.217 C 203.241 163.217,201.952 161.474,201.570 161.239 C 201.384 161.124,201.608 161.522,202.066 162.123 M227.896 162.187 C 227.397 163.282,227.493 163.516,228.032 162.520 C 228.284 162.055,228.435 161.619,228.367 161.551 C 228.298 161.483,228.087 161.769,227.896 162.187 M293.820 163.217 C 293.705 163.894,293.674 164.511,293.751 164.587 C 293.827 164.663,293.979 164.167,294.088 163.485 C 294.197 162.802,294.228 162.185,294.157 162.114 C 294.086 162.043,293.934 162.539,293.820 163.217 M278.652 165.004 C 278.761 165.413,278.975 165.949,279.127 166.195 C 279.319 166.506,279.342 166.415,279.204 165.897 C 279.094 165.488,278.880 164.952,278.729 164.706 C 278.537 164.395,278.513 164.486,278.652 165.004 M226.392 165.930 C 226.209 166.457,226.110 166.939,226.174 167.003 C 226.238 167.067,226.440 166.688,226.624 166.162 C 226.807 165.636,226.905 165.153,226.841 165.089 C 226.778 165.025,226.575 165.404,226.392 165.930 M96.912 165.674 C 95.887 167.413,95.820 167.562,96.342 166.940 C 96.947 166.219,97.468 165.302,97.273 165.302 C 97.195 165.302,97.032 165.469,96.912 165.674 M204.936 166.344 C 205.304 166.999,205.733 167.669,205.890 167.833 C 206.336 168.301,205.316 166.414,204.763 165.748 C 204.490 165.421,204.568 165.689,204.936 166.344 M95.160 168.578 C 94.906 169.069,94.765 169.471,94.847 169.471 C 94.929 169.471,95.204 169.069,95.458 168.578 C 95.712 168.086,95.853 167.684,95.771 167.684 C 95.689 167.684,95.414 168.086,95.160 168.578 M206.552 169.173 C 206.807 169.665,207.082 170.067,207.163 170.067 C 207.245 170.067,207.104 169.665,206.850 169.173 C 206.596 168.682,206.321 168.280,206.239 168.280 C 206.157 168.280,206.298 168.682,206.552 169.173 M225.338 169.046 C 225.228 169.482,225.196 169.897,225.266 169.967 C 225.336 170.037,225.483 169.738,225.593 169.301 C 225.703 168.865,225.735 168.450,225.665 168.380 C 225.594 168.310,225.447 168.609,225.338 169.046 M292.846 169.471 C 292.846 170.045,292.908 170.279,292.983 169.993 C 293.058 169.706,293.058 169.237,292.983 168.950 C 292.908 168.663,292.846 168.898,292.846 169.471 M280.310 169.769 C 280.310 170.015,280.425 170.484,280.566 170.812 C 280.727 171.187,280.822 171.242,280.822 170.961 C 280.822 170.715,280.707 170.246,280.566 169.918 C 280.405 169.543,280.310 169.488,280.310 169.769 M93.507 171.585 C 93.165 172.256,92.936 172.856,92.998 172.919 C 93.061 172.981,93.403 172.432,93.760 171.699 C 94.571 170.028,94.352 169.929,93.507 171.585 M311.610 171.258 C 311.610 171.832,311.672 172.066,311.747 171.780 C 311.822 171.493,311.822 171.024,311.747 170.737 C 311.672 170.450,311.610 170.685,311.610 171.258 M292.549 171.556 C 292.549 172.130,292.610 172.364,292.685 172.077 C 292.760 171.791,292.760 171.322,292.685 171.035 C 292.610 170.748,292.549 170.983,292.549 171.556 M292.263 173.939 C 292.263 174.676,292.321 174.978,292.392 174.609 C 292.463 174.241,292.463 173.637,292.392 173.269 C 292.321 172.900,292.263 173.202,292.263 173.939 M311.908 173.939 C 311.908 174.512,311.970 174.747,312.044 174.460 C 312.119 174.173,312.119 173.704,312.044 173.418 C 311.970 173.131,311.908 173.366,311.908 173.939 M92.379 174.101 C 91.880 175.196,91.975 175.430,92.515 174.434 C 92.767 173.969,92.917 173.533,92.849 173.465 C 92.781 173.396,92.569 173.683,92.379 174.101 M312.222 176.471 C 312.224 177.290,312.282 177.589,312.351 177.137 C 312.419 176.684,312.417 176.014,312.347 175.647 C 312.276 175.281,312.220 175.652,312.222 176.471 M291.965 176.917 C 291.965 177.655,292.023 177.956,292.094 177.587 C 292.165 177.219,292.165 176.616,292.094 176.247 C 292.023 175.879,291.965 176.180,291.965 176.917 M210.166 176.620 C 210.267 177.029,210.532 177.766,210.756 178.258 C 211.083 178.975,211.127 179.005,210.980 178.407 C 210.880 177.997,210.614 177.260,210.391 176.768 C 210.064 176.051,210.020 176.021,210.166 176.620 M312.527 179.747 C 312.529 180.730,312.584 181.096,312.651 180.561 C 312.717 180.025,312.716 179.221,312.648 178.774 C 312.580 178.326,312.525 178.764,312.527 179.747 M282.716 179.300 C 282.713 179.710,282.817 180.380,282.949 180.789 C 283.269 181.790,283.269 180.709,282.949 179.449 C 282.744 178.646,282.721 178.631,282.716 179.300 M291.667 180.194 C 291.667 180.931,291.725 181.232,291.796 180.864 C 291.867 180.495,291.867 179.892,291.796 179.523 C 291.725 179.155,291.667 179.456,291.667 180.194 M89.079 183.346 C 88.887 184.109,88.786 184.790,88.854 184.858 C 88.922 184.926,89.135 184.357,89.327 183.594 C 89.520 182.831,89.621 182.150,89.553 182.082 C 89.485 182.014,89.271 182.582,89.079 183.346 M212.104 182.278 C 212.104 182.524,212.220 182.993,212.360 183.321 C 212.522 183.696,212.616 183.751,212.616 183.470 C 212.616 183.224,212.501 182.755,212.360 182.427 C 212.199 182.052,212.104 181.997,212.104 182.278 M291.392 184.363 C 291.392 185.756,291.444 186.325,291.506 185.629 C 291.569 184.933,291.569 183.794,291.506 183.098 C 291.444 182.401,291.392 182.971,291.392 184.363 M312.822 183.470 C 312.822 184.371,312.878 184.739,312.946 184.289 C 313.014 183.838,313.014 183.101,312.946 182.651 C 312.878 182.200,312.822 182.569,312.822 183.470 M283.917 186.895 C 283.921 187.550,283.982 187.783,284.053 187.413 C 284.124 187.042,284.121 186.506,284.047 186.221 C 283.972 185.937,283.914 186.240,283.917 186.895 M313.136 189.278 C 313.135 190.752,313.186 191.393,313.248 190.701 C 313.311 190.010,313.311 188.804,313.250 188.021 C 313.188 187.238,313.137 187.803,313.136 189.278 M291.102 190.469 C 291.102 192.271,291.151 192.970,291.211 192.022 C 291.270 191.074,291.269 189.600,291.210 188.746 C 291.150 187.892,291.101 188.667,291.102 190.469 M221.377 188.831 C 221.377 189.568,221.435 189.870,221.506 189.501 C 221.577 189.133,221.577 188.529,221.506 188.161 C 221.435 187.792,221.377 188.094,221.377 188.831 M87.728 189.589 C 87.614 190.349,87.581 191.031,87.656 191.106 C 87.730 191.180,87.884 190.620,87.998 189.860 C 88.112 189.100,88.145 188.418,88.070 188.343 C 87.996 188.269,87.842 188.829,87.728 189.589 M284.221 189.724 C 284.221 190.462,284.279 190.763,284.350 190.395 C 284.421 190.026,284.421 189.423,284.350 189.054 C 284.279 188.686,284.221 188.987,284.221 189.724 M221.083 192.852 C 221.085 193.671,221.143 193.971,221.211 193.518 C 221.280 193.065,221.278 192.395,221.207 192.029 C 221.137 191.662,221.081 192.033,221.083 192.852 M87.342 192.852 C 87.346 193.507,87.407 193.740,87.478 193.370 C 87.549 192.999,87.546 192.463,87.472 192.178 C 87.397 191.893,87.339 192.197,87.342 192.852 M214.223 192.852 C 214.226 193.507,214.287 193.740,214.358 193.370 C 214.429 192.999,214.427 192.463,214.352 192.178 C 214.278 191.893,214.219 192.197,214.223 192.852 M284.540 194.341 C 284.541 195.652,284.593 196.151,284.656 195.450 C 284.719 194.750,284.718 193.677,284.654 193.067 C 284.590 192.457,284.539 193.031,284.540 194.341 M214.570 200.298 C 214.570 203.574,214.614 204.955,214.667 203.367 C 214.721 201.778,214.721 199.098,214.668 197.410 C 214.614 195.722,214.571 197.022,214.570 200.298 M220.824 200.149 C 220.824 203.179,220.868 204.419,220.922 202.904 C 220.976 201.389,220.976 198.909,220.922 197.394 C 220.868 195.879,220.824 197.118,220.824 200.149 M87.067 197.022 C 87.069 198.168,87.122 198.601,87.187 197.983 C 87.251 197.365,87.250 196.427,87.184 195.898 C 87.119 195.369,87.066 195.875,87.067 197.022 M290.812 200.447 C 290.812 202.986,290.858 204.025,290.914 202.755 C 290.970 201.485,290.970 199.408,290.914 198.138 C 290.858 196.869,290.812 197.908,290.812 200.447 M313.440 200.298 C 313.440 202.100,313.490 202.799,313.549 201.851 C 313.608 200.903,313.608 199.428,313.548 198.574 C 313.488 197.720,313.439 198.496,313.440 200.298 M284.846 200.447 C 284.846 202.167,284.895 202.870,284.955 202.010 C 285.015 201.150,285.015 199.743,284.955 198.883 C 284.895 198.023,284.846 198.727,284.846 200.447 M87.065 203.723 C 87.065 204.788,87.119 205.223,87.185 204.691 C 87.251 204.159,87.251 203.287,87.185 202.755 C 87.119 202.223,87.065 202.658,87.065 203.723 M284.533 206.701 C 284.533 207.766,284.587 208.202,284.653 207.669 C 284.719 207.137,284.719 206.266,284.653 205.733 C 284.587 205.201,284.533 205.637,284.533 206.701 M214.223 207.744 C 214.226 208.399,214.287 208.632,214.358 208.262 C 214.429 207.891,214.427 207.355,214.352 207.070 C 214.278 206.785,214.219 207.089,214.223 207.744 M221.083 208.042 C 221.085 208.861,221.143 209.160,221.211 208.708 C 221.280 208.255,221.278 207.585,221.207 207.219 C 221.137 206.852,221.081 207.223,221.083 208.042 M87.336 207.893 C 87.336 208.466,87.398 208.701,87.473 208.414 C 87.548 208.127,87.548 207.658,87.473 207.372 C 87.398 207.085,87.336 207.319,87.336 207.893 M291.101 210.276 C 291.101 211.996,291.150 212.699,291.210 211.839 C 291.270 210.979,291.270 209.572,291.210 208.712 C 291.150 207.852,291.101 208.555,291.101 210.276 M313.136 211.318 C 313.135 212.792,313.186 213.433,313.248 212.742 C 313.311 212.050,313.311 210.844,313.250 210.061 C 313.188 209.278,313.137 209.844,313.136 211.318 M284.215 211.020 C 284.218 211.675,284.279 211.908,284.351 211.538 C 284.422 211.167,284.419 210.631,284.345 210.346 C 284.270 210.062,284.212 210.365,284.215 211.020 M221.377 211.765 C 221.377 212.502,221.435 212.803,221.506 212.435 C 221.577 212.066,221.577 211.463,221.506 211.095 C 221.435 210.726,221.377 211.028,221.377 211.765 M213.291 213.142 C 213.091 214.226,212.985 215.169,213.055 215.239 C 213.124 215.309,213.348 214.482,213.552 213.403 C 213.755 212.323,213.862 211.380,213.788 211.306 C 213.714 211.232,213.491 212.059,213.291 213.142 M283.911 213.850 C 283.911 214.423,283.973 214.657,284.047 214.371 C 284.122 214.084,284.122 213.615,284.047 213.328 C 283.973 213.042,283.911 213.276,283.911 213.850 M291.390 216.381 C 291.391 217.692,291.444 218.191,291.507 217.490 C 291.570 216.790,291.569 215.718,291.505 215.108 C 291.441 214.498,291.389 215.071,291.390 216.381 M283.613 215.934 C 283.613 216.508,283.675 216.742,283.750 216.456 C 283.825 216.169,283.825 215.700,283.750 215.413 C 283.675 215.127,283.613 215.361,283.613 215.934 M312.822 217.126 C 312.822 218.027,312.878 218.395,312.946 217.945 C 313.014 217.494,313.014 216.757,312.946 216.307 C 312.878 215.856,312.822 216.225,312.822 217.126 M291.667 220.402 C 291.667 221.139,291.725 221.441,291.796 221.072 C 291.867 220.704,291.867 220.101,291.796 219.732 C 291.725 219.363,291.667 219.665,291.667 220.402 M312.527 220.849 C 312.529 221.832,312.584 222.198,312.651 221.663 C 312.717 221.127,312.716 220.323,312.648 219.876 C 312.580 219.428,312.525 219.866,312.527 220.849 M222.850 221.593 C 222.847 222.003,222.951 222.673,223.083 223.083 C 223.403 224.084,223.403 223.002,223.083 221.742 C 222.878 220.940,222.855 220.925,222.850 221.593 M291.965 223.678 C 291.965 224.415,292.023 224.717,292.094 224.348 C 292.165 223.980,292.165 223.377,292.094 223.008 C 292.023 222.640,291.965 222.941,291.965 223.678 M312.222 224.423 C 312.224 225.242,312.282 225.542,312.351 225.089 C 312.419 224.636,312.417 223.966,312.347 223.600 C 312.276 223.233,312.220 223.604,312.222 224.423 M91.458 224.423 C 91.458 224.587,91.650 225.056,91.884 225.465 C 92.118 225.875,92.309 226.076,92.309 225.912 C 92.309 225.748,92.118 225.279,91.884 224.870 C 91.650 224.460,91.458 224.259,91.458 224.423 M292.241 226.508 C 292.233 226.999,292.333 228.004,292.464 228.742 C 292.640 229.730,292.707 229.847,292.718 229.188 C 292.726 228.697,292.626 227.692,292.495 226.955 C 292.319 225.966,292.252 225.849,292.241 226.508 M311.908 226.955 C 311.908 227.528,311.970 227.762,312.044 227.476 C 312.119 227.189,312.119 226.720,312.044 226.433 C 311.970 226.147,311.908 226.381,311.908 226.955 M281.332 227.125 C 281.222 227.561,281.190 227.976,281.260 228.046 C 281.330 228.116,281.478 227.817,281.587 227.380 C 281.697 226.944,281.729 226.529,281.659 226.459 C 281.588 226.389,281.441 226.688,281.332 227.125 M224.162 227.550 C 224.266 228.124,224.469 228.861,224.612 229.188 C 224.791 229.597,224.813 229.457,224.684 228.742 C 224.580 228.168,224.377 227.431,224.234 227.103 C 224.055 226.695,224.032 226.835,224.162 227.550 M92.628 227.061 C 92.628 227.385,94.703 231.422,94.870 231.422 C 94.952 231.422,94.532 230.450,93.938 229.263 C 92.822 227.035,92.628 226.709,92.628 227.061 M207.805 229.197 C 207.365 230.093,207.069 230.827,207.146 230.827 C 207.347 230.827,208.849 227.812,208.715 227.678 C 208.654 227.617,208.245 228.300,207.805 229.197 M279.732 232.524 C 279.546 233.130,279.443 233.675,279.503 233.735 C 279.564 233.796,279.774 233.358,279.970 232.762 C 280.167 232.167,280.270 231.622,280.199 231.551 C 280.128 231.481,279.918 231.918,279.732 232.524 M96.383 234.177 C 97.191 235.569,100.244 239.850,101.122 240.821 C 101.728 241.492,101.507 241.096,100.608 239.900 C 99.741 238.747,98.447 236.904,97.731 235.804 C 97.016 234.705,96.371 233.805,96.299 233.805 C 96.227 233.805,96.265 233.972,96.383 234.177 M202.997 237.250 C 202.245 238.326,201.766 239.122,201.933 239.019 C 202.287 238.800,204.705 235.294,204.502 235.294 C 204.426 235.294,203.749 236.174,202.997 237.250 M277.925 237.419 C 277.572 238.267,277.333 239.011,277.393 239.071 C 277.453 239.131,277.791 238.486,278.143 237.637 C 278.496 236.789,278.736 236.045,278.675 235.985 C 278.615 235.925,278.278 236.570,277.925 237.419 M227.873 238.421 C 227.873 238.585,228.130 239.188,228.444 239.762 C 228.758 240.335,229.014 240.670,229.014 240.506 C 229.014 240.343,228.758 239.739,228.444 239.166 C 228.130 238.593,227.873 238.258,227.873 238.421 M276.012 241.708 C 275.407 242.931,274.976 243.931,275.055 243.931 C 275.253 243.931,277.353 239.725,277.220 239.593 C 277.161 239.533,276.617 240.485,276.012 241.708 M294.591 240.594 C 294.551 241.171,295.549 245.002,295.652 244.667 C 295.701 244.508,295.489 243.440,295.180 242.293 C 294.871 241.147,294.606 240.382,294.591 240.594 M103.383 243.559 C 104.102 244.337,105.763 245.976,107.074 247.200 C 108.564 248.592,108.119 248.062,105.887 245.785 C 102.300 242.127,100.945 240.922,103.383 243.559 M197.766 243.783 C 197.043 244.520,196.518 245.123,196.600 245.123 C 196.682 245.123,197.341 244.520,198.064 243.783 C 198.787 243.045,199.312 242.442,199.231 242.442 C 199.149 242.442,198.490 243.045,197.766 243.783 M230.678 244.229 C 230.932 244.721,231.207 245.123,231.289 245.123 C 231.370 245.123,231.230 244.721,230.975 244.229 C 230.721 243.738,230.446 243.336,230.364 243.336 C 230.283 243.336,230.423 243.738,230.678 244.229 M194.184 247.431 L 192.256 249.442 194.267 247.514 C 195.372 246.454,196.277 245.549,196.277 245.504 C 196.277 245.285,195.974 245.564,194.184 247.431 M307.606 247.364 C 307.514 247.688,307.348 248.220,307.237 248.548 C 307.127 248.876,307.254 248.767,307.520 248.307 C 307.787 247.846,307.953 247.314,307.889 247.123 C 307.826 246.932,307.698 247.041,307.606 247.364 M296.649 247.866 C 296.649 248.188,297.554 250.186,297.700 250.186 C 297.782 250.186,297.642 249.690,297.388 249.085 C 296.942 248.016,296.649 247.534,296.649 247.866 M270.867 250.088 C 270.409 250.690,270.186 251.088,270.371 250.973 C 270.753 250.737,272.042 248.995,271.835 248.995 C 271.762 248.995,271.326 249.487,270.867 250.088 M110.140 249.950 C 110.517 250.363,111.455 251.142,112.225 251.682 C 113.976 252.908,113.576 252.477,111.243 250.621 C 110.261 249.839,109.764 249.537,110.140 249.950 M306.387 250.339 C 306.115 250.910,305.953 251.378,306.028 251.378 C 306.232 251.378,307.136 249.554,307.000 249.418 C 306.936 249.353,306.660 249.768,306.387 250.339 M234.592 250.199 C 235.927 252.028,237.843 254.101,239.266 255.256 C 240.659 256.387,240.621 256.326,238.862 254.611 C 237.793 253.570,236.271 251.981,235.479 251.080 C 234.687 250.179,234.288 249.783,234.592 250.199 M267.461 253.839 C 266.069 255.188,264.527 256.599,264.036 256.975 C 263.544 257.351,263.745 257.261,264.483 256.776 C 265.655 256.005,270.510 251.370,270.134 251.382 C 270.056 251.384,268.853 252.490,267.461 253.839 M186.902 253.201 C 184.133 255.159,183.532 255.617,184.066 255.359 C 184.908 254.953,188.790 252.281,188.977 251.978 C 189.241 251.551,189.212 251.568,186.902 253.201 M304.690 252.913 C 303.929 253.798,303.323 254.190,302.456 254.357 C 301.320 254.575,301.309 254.587,302.223 254.620 C 303.210 254.655,304.977 253.407,305.606 252.230 C 306.042 251.416,305.855 251.556,304.690 252.913 M113.775 252.714 C 113.775 252.927,117.986 255.706,119.136 256.252 C 120.283 256.797,120.215 256.747,116.413 254.287 C 114.962 253.348,113.775 252.640,113.775 252.714 M299.842 253.469 C 300.369 254.022,300.850 254.414,300.912 254.341 C 300.974 254.267,300.542 253.815,299.954 253.335 L 298.883 252.463 299.842 253.469 M179.310 257.669 C 177.104 258.795,175.432 259.717,175.595 259.717 C 176.002 259.717,182.287 256.594,183.023 256.026 C 183.922 255.332,183.649 255.453,179.310 257.669 M241.154 256.762 C 241.523 257.210,243.336 258.350,243.336 258.135 C 243.336 258.066,242.766 257.633,242.070 257.174 C 241.374 256.715,240.961 256.530,241.154 256.762 M120.328 256.886 C 120.328 257.085,124.534 259.184,124.666 259.052 C 124.726 258.992,123.774 258.449,122.551 257.844 C 121.328 257.239,120.328 256.808,120.328 256.886 M243.634 258.415 C 243.634 258.614,246.958 260.066,247.096 259.928 C 247.158 259.866,246.405 259.468,245.421 259.044 C 244.438 258.620,243.634 258.337,243.634 258.415 M260.313 258.972 C 259.576 259.367,259.106 259.690,259.270 259.690 C 259.434 259.690,260.171 259.367,260.908 258.972 C 261.646 258.578,262.115 258.255,261.951 258.255 C 261.787 258.255,261.050 258.578,260.313 258.972 M250.711 260.821 C 251.081 260.892,251.617 260.890,251.902 260.815 C 252.187 260.741,251.884 260.682,251.229 260.686 C 250.573 260.689,250.340 260.750,250.711 260.821 M253.987 260.821 C 254.358 260.892,254.894 260.890,255.178 260.815 C 255.463 260.741,255.160 260.682,254.505 260.686 C 253.850 260.689,253.617 260.750,253.987 260.821 M168.131 262.100 C 167.756 262.261,167.701 262.356,167.982 262.356 C 168.228 262.356,168.697 262.241,169.025 262.100 C 169.400 261.938,169.455 261.844,169.173 261.844 C 168.928 261.844,168.459 261.959,168.131 262.100 M135.964 262.993 C 136.292 263.134,136.828 263.245,137.156 263.241 C 137.634 263.233,137.605 263.185,137.007 262.993 C 135.988 262.667,135.205 262.667,135.964 262.993 M142.517 264.198 C 143.336 264.326,144.542 264.423,145.197 264.414 C 146.235 264.401,146.177 264.369,144.751 264.172 C 143.850 264.048,142.643 263.950,142.070 263.956 C 141.235 263.964,141.323 264.012,142.517 264.198 M156.813 264.185 C 155.391 264.380,155.378 264.390,156.515 264.410 C 157.171 264.421,158.377 264.326,159.196 264.198 C 161.206 263.885,159.084 263.873,156.813 264.185 M149.007 264.704 C 150.120 264.761,151.862 264.761,152.879 264.703 C 153.896 264.645,152.986 264.598,150.856 264.598 C 148.727 264.599,147.895 264.646,149.007 264.704 " stroke="none" fill="#000000" fill-rule="evenodd"></path></g></svg>