<svg xmlns="http://www.w3.org/2000/svg" xmlns:xlink="http://www.w3.org/1999/xlink" width="NaN" height="NaN"><rect id="backgroundrect" width="100%" height="100%" x="0" y="0" fill="none" stroke="none"/><g class="currentLayer" style=""><title>Layer 1</title><g id="svgg" class="selected" fill-opacity="1" fill="#f58025"><path id="path0" d="M824.091,254.661 C808.425,257.488 795.607,269.286 791.329,284.81600000000003 L790.204,288.898 L790.204,454 L790.204,619.102 L791.329,623.184 C795.3050000000001,637.619 806.427,648.685 821.0160000000001,652.722 L824.898,653.796 L988.163,653.914 C1137.932,654.021 1151.766,653.976 1155.51,653.361 C1172.775,650.529 1186.342,636.9839999999999 1189.37,619.559 C1190.329,614.039 1190.329,293.961 1189.37,288.44100000000003 C1186.3609999999999,271.124 1172.888,257.587 1155.7440000000001,254.65800000000002 C1150.2069999999999,253.711 829.335,253.714 824.091,254.661 M1077.5430000000001,348.038 C1100.372,378.769 1119.1309999999999,404.124 1119.23,404.382 C1119.429,404.899 1098.064,421.01 1097.071,421.092 C1096.038,421.177 1012.302,308.251 1012.947,307.64099999999996 C1016.043,304.70799999999997 1035.123,291.197 1035.542,291.64099999999996 C1035.8139999999999,291.928 1054.714,317.307 1077.5430000000001,348.038 M1037.5349999999999,381.719 C1067.3020000000001,406.505 1091.605,426.937 1091.5430000000001,427.123 C1091.31,427.81399999999996 1073.984,448.286 1073.632,448.286 C1073.056,448.286 965.306,358.38 965.306,357.9 C965.306,357.34000000000003 982.77,336.438 983.135,336.56 C983.288,336.611 1007.768,356.933 1037.5349999999999,381.719 M1005.918,425.445 C1040.827,441.68 1069.45,455.00800000000004 1069.526,455.062 C1069.6019999999999,455.11699999999996 1066.967,460.93100000000004 1063.671,467.98400000000004 L1057.6779999999999,480.807 L1018.635,462.59299999999996 C997.1610000000001,452.576 968.347,439.152 954.604,432.762 C940.86,426.371 929.61,421 929.604,420.825 C929.553,419.47 941.241,395.312 941.807,395.6 C942.16,395.78 971.01,409.21000000000004 1005.918,425.445 M986.187,474.23900000000003 C1024.0900000000001,482.228 1055.151,488.813 1055.21,488.871 C1055.3310000000001,488.991 1049.641,516.1279999999999 1049.4560000000001,516.313 C1049.2730000000001,516.495 911.623,487.596 911.3430000000001,487.31600000000003 C910.986,486.959 916.662,459.714 917.0930000000001,459.714 C917.192,459.714 948.284,466.251 986.187,474.23900000000003 M874.998,543.898 L875.102,585.633 L981.735,585.735 L1088.367,585.838 L1088.367,544.001 L1088.367,502.163 L1098.367,502.163 L1108.367,502.163 L1108.367,554.001 L1108.367,605.838 L981.735,605.735 L855.102,605.633 L854.9970000000001,554.408 C854.939,526.235 854.979,502.954 855.086,502.673 C855.2339999999999,502.28499999999997 857.6179999999999,502.163 865.087,502.163 L874.894,502.163 L874.998,543.898 M1049.796,537.673 L1049.796,551.755 L979.082,551.858 L908.367,551.961 L908.367,537.673 L908.367,523.385 L979.082,523.489 L1049.796,523.592 L1049.796,537.673 " stroke="none" fill="#f58025" fill-rule="evenodd"/></g></g></svg>