<svg xmlns="http://www.w3.org/2000/svg" xmlns:xlink="http://www.w3.org/1999/xlink" width="NaN" height="NaN"><rect id="backgroundrect" width="100%" height="100%" x="0" y="0" fill="none" stroke="none"/><g class="currentLayer" style=""><title>Layer 1</title><g id="svgg" class="selected" fill-opacity="1" fill="#f58025"><path id="path0" d="M23.925155023335,0.4474798424384279 C12.958837124103166,2.4264011178838767 3.986140658358642,10.685089907309207 0.9915084629728503,21.556206783031815 L0.20399999644432887,24.413637503360196 L0.20399999644432887,139.9862800285086 L0.20399999644432887,255.55892255365697 L0.9915084629728503,258.41635327398535 C3.7747383855660956,268.52096190895355 11.56022208754851,276.267245189491 21.772631881490373,279.0931755711582 L24.490061096658128,279.84498365387077 L138.77678979690617,279.92758454191556 C243.6162169289152,280.0024853471765 253.30012104087567,279.97098500851536 255.92094921748262,279.5404803801464 C268.00657915047367,277.55805906707195 277.50358125304473,268.07645713006855 279.6232040411766,255.87882599294903 C280.2945112584218,252.01478445051575 280.2945112584218,27.957775606501443 279.6232040411766,24.093734064068165 C277.51688139603493,11.97170373973536 268.0856800008894,2.495701862938387 256.08475097852056,0.44537981986101854 C252.2088093081486,-0.217527307074546 27.595994488646618,-0.21542728449713663 23.925155023335,0.4474798424384279 M201.34346245318994,65.81208257935731 C217.32393425974962,87.32401385481332 230.45537543629052,105.07270467155168 230.52467618134506,105.25330661320889 C230.66397767897985,105.6152105040491 215.70831689019602,116.89303175226333 215.01320941707348,116.95043236937919 C214.29010164291887,117.00993300907244 155.67427146226794,37.96088315022817 156.12577631641093,37.533878559488265 C158.29299961629744,35.48075648630768 171.64914320862115,26.022954805181595 171.94244636193267,26.33375814663818 C172.1328484089511,26.53466030654368 185.36299064663027,44.30015130390132 201.34346245318994,65.81208257935731 M173.33756136085833,89.38903605593254 C194.1746853814401,106.73942259048893 211.1869682810336,121.0419763576985 211.14356781443377,121.17217775749786 C210.98046606092166,121.65588295782781 198.85213566885662,135.9864370260695 198.6057330197739,135.9864370260695 C198.2025286849113,135.9864370260695 122.77671777962405,73.05156041121329 122.77671777962405,72.71555679882779 C122.77671777962405,72.32355258437804 135.0016492102499,57.691995280041006 135.25715195716802,57.77739619818899 C135.3642531086159,57.81309658200495 152.50043734027653,72.03864952137617 173.33756136085833,89.38903605593254 M151.20542341754074,119.99756512920021 C175.64198613580223,131.36218731061405 195.6783015468652,140.69188761451815 195.73150211882626,140.72968802091154 C195.78470269078727,140.7681884348307 193.94018286029603,144.8380321898501 191.6329580552489,149.77518526933957 L187.43781295311078,158.7513817727131 L160.10741912317917,146.00144469773488 C145.07545751408273,138.98946931176494 124.90544066559136,129.59256828538372 115.28523723847894,125.11952019550172 C105.66433380384072,120.64577209809391 97.7892491385555,116.8860316770053 97.78504909340069,116.76353035998976 C97.74934870958472,115.81502016252651 105.93103667117171,98.90423835417451 106.32724093077627,99.1058405216058 C106.57434358738476,99.23184187625036 126.76956070680507,108.6329429477864 151.20542341754074,119.99756512920021 M137.3935749259192,154.15373234323815 C163.9259601764352,159.74609246687936 185.66889393540626,164.35564202429296 185.71019437942863,164.39624246078958 C185.79489529005085,164.48024336388593 181.811852468231,183.47634759160545 181.68235107595746,183.60584898387904 C181.55424969873548,183.73325035357524 85.1982137719346,163.5037328653906 85.00221166470973,163.3077307581657 C84.75230897799801,163.05782807145397 88.72555169445656,143.98612303094768 89.02725493807773,143.98612303094768 C89.09655568313224,143.98612303094768 110.86118967540312,148.56207222712274 137.3935749259192,154.15373234323815 M59.560438139394954,202.91555658315843 L59.633238922078476,232.13037067255203 L134.27714142104367,232.20177144018396 L208.92034391248302,232.2738722153417 L208.92034391248302,202.98765735831608 L208.92034391248302,173.70074249376478 L215.92041917051432,173.70074249376478 L222.92049442854562,173.70074249376478 L222.92049442854562,209.9877326163474 L222.92049442854562,246.2740227314043 L134.27714142104367,246.20192195624657 L45.63308840601587,246.13052118861464 L45.55958761580654,210.2726356793493 C45.51898717930996,190.55132365489771 45.54698748034209,174.25444844667504 45.62188828560303,174.05774633192433 C45.72548939942188,173.78614341191275 47.39430734093654,173.70074249376478 52.62266355116013,173.70074249376478 L59.487637356711424,173.70074249376478 L59.560438139394954,202.91555658315843 M181.92035363473047,198.5580097350339 L181.92035363473047,208.41551571339357 L132.42002145508795,208.4876164885513 L82.91898926791961,208.55971726370905 L82.91898926791961,198.5580097350339 L82.91898926791961,188.5563022063588 L132.42002145508795,188.6291029890423 L181.92035363473047,188.70120376420005 L181.92035363473047,198.5580097350339 " stroke="none" fill="#f58025" fill-rule="evenodd"/></g></g></svg>