<svg xmlns="http://www.w3.org/2000/svg" xmlns:xlink="http://www.w3.org/1999/xlink" version="1.1" width="400,400" height="undefined"><rect id="backgroundrect" width="100%" height="100%" x="0" y="0" fill="none" stroke="none"/><g class="currentLayer" style=""><title>Layer 1</title><g id="svgg" class="selected" fill-opacity="1" fill="#f58025"><path id="path0" d="M0.000 200.000 L 0.000 400.000 200.000 400.000 L 400.000 400.000 400.000 200.000 L 400.000 0.000 200.000 0.000 L 0.000 0.000 0.000 200.000 M296.786 67.174 C 297.014 67.599,297.200 68.868,297.200 69.994 C 297.200 71.119,297.478 72.578,297.818 73.235 C 298.158 73.893,298.593 76.179,298.784 78.315 C 298.976 80.452,299.394 82.830,299.713 83.600 C 300.033 84.370,300.412 86.606,300.555 88.568 C 300.698 90.531,301.004 92.364,301.235 92.643 C 301.466 92.921,301.822 94.906,302.025 97.054 C 302.228 99.201,302.662 101.688,302.988 102.579 C 303.315 103.471,303.752 105.820,303.960 107.800 C 304.167 109.780,304.621 112.384,304.969 113.587 C 305.316 114.790,305.600 116.703,305.600 117.838 C 305.600 118.974,305.874 120.557,306.208 121.358 C 306.543 122.159,306.973 124.476,307.165 126.507 C 307.356 128.538,307.794 130.920,308.139 131.800 C 308.483 132.680,308.773 134.524,308.782 135.898 C 308.792 137.273,309.143 139.433,309.563 140.698 C 309.983 141.964,310.431 144.404,310.560 146.120 C 310.688 147.836,310.990 149.608,311.231 150.058 C 311.472 150.508,311.835 152.641,312.038 154.797 C 312.241 156.954,312.667 159.341,312.985 160.102 C 313.537 161.423,314.302 168.122,314.093 169.800 C 313.905 171.303,312.651 171.865,308.931 172.112 C 306.989 172.241,304.860 172.617,304.200 172.948 C 303.540 173.279,301.380 173.667,299.400 173.810 C 297.420 173.954,295.208 174.337,294.484 174.662 C 291.793 175.870,290.224 173.257,289.615 166.551 C 289.432 164.545,289.072 162.508,288.813 162.025 C 288.555 161.542,288.198 159.403,288.020 157.273 C 287.842 155.143,287.429 152.770,287.101 152.000 C 286.774 151.230,286.393 149.055,286.256 147.167 C 286.118 145.279,285.746 143.209,285.428 142.567 C 285.110 141.925,284.733 139.780,284.590 137.800 C 284.446 135.820,284.084 133.652,283.785 132.983 C 283.486 132.314,283.114 130.064,282.959 127.983 C 282.804 125.902,282.431 123.821,282.131 123.358 C 281.830 122.895,281.481 121.005,281.355 119.158 C 281.229 117.311,280.783 114.764,280.363 113.498 C 279.943 112.233,279.592 110.163,279.582 108.898 C 279.573 107.634,279.299 105.880,278.975 105.000 C 278.651 104.120,278.224 101.690,278.026 99.600 C 277.829 97.510,277.406 95.170,277.087 94.400 C 276.767 93.630,276.390 91.412,276.248 89.471 C 276.107 87.531,275.731 85.441,275.414 84.827 C 275.097 84.214,274.710 82.032,274.555 79.980 C 274.401 77.927,274.033 75.787,273.739 75.224 C 272.352 72.565,273.242 69.600,275.428 69.600 C 276.125 69.600,277.823 69.240,279.200 68.800 C 280.577 68.360,282.723 68.000,283.967 68.000 C 285.212 68.000,287.214 67.646,288.415 67.214 C 291.475 66.114,296.207 66.091,296.786 67.174 M231.476 91.600 C 232.634 93.250,233.748 94.967,233.950 95.416 C 234.151 95.865,234.605 96.473,234.958 96.765 C 235.311 97.058,235.600 97.546,235.600 97.849 C 235.600 98.152,235.759 98.400,235.954 98.400 C 236.149 98.400,236.608 99.030,236.973 99.800 C 237.339 100.570,237.787 101.200,237.970 101.200 C 238.153 101.200,238.527 101.740,238.800 102.400 C 239.073 103.060,239.425 103.600,239.581 103.600 C 239.737 103.600,240.118 104.095,240.427 104.700 C 241.151 106.119,242.412 107.950,243.300 108.872 C 243.685 109.273,244.000 109.830,244.000 110.111 C 244.000 110.392,244.360 110.930,244.800 111.307 C 245.240 111.684,245.600 112.264,245.600 112.596 C 245.600 112.928,245.789 113.200,246.020 113.200 C 246.252 113.200,246.704 113.830,247.026 114.600 C 247.348 115.370,247.794 116.000,248.018 116.000 C 248.242 116.000,248.540 116.315,248.681 116.700 C 248.821 117.085,249.356 117.909,249.868 118.531 C 250.381 119.153,250.800 119.898,250.800 120.188 C 250.800 120.477,251.070 120.818,251.400 120.945 C 251.730 121.071,252.000 121.424,252.000 121.729 C 252.000 122.034,252.405 122.755,252.900 123.331 C 254.772 125.510,255.600 126.747,255.600 127.363 C 255.600 127.713,255.762 128.000,255.960 128.000 C 256.159 128.000,256.744 128.666,257.260 129.481 C 257.777 130.296,258.470 131.354,258.800 131.832 C 261.722 136.069,262.400 137.144,262.400 137.541 C 262.400 137.794,262.562 138.000,262.760 138.000 C 263.076 138.000,263.915 139.152,265.436 141.673 C 265.675 142.070,266.170 142.725,266.536 143.129 C 266.901 143.533,267.200 144.074,267.200 144.331 C 267.200 144.589,267.376 144.800,267.592 144.800 C 267.807 144.800,268.350 145.475,268.797 146.300 C 269.623 147.825,271.702 150.935,273.183 152.863 C 273.632 153.448,274.000 154.123,274.000 154.363 C 274.000 154.603,274.176 154.800,274.392 154.800 C 274.607 154.800,275.149 155.475,275.596 156.300 C 276.851 158.618,277.358 159.373,277.887 159.713 C 278.155 159.885,278.671 160.650,279.033 161.413 C 279.395 162.176,279.851 162.800,280.046 162.800 C 280.241 162.800,280.400 163.042,280.400 163.338 C 280.400 163.634,280.760 164.202,281.200 164.600 C 281.640 164.998,282.000 165.495,282.000 165.704 C 282.000 165.913,282.450 166.619,283.000 167.273 C 283.550 167.927,284.000 168.718,284.000 169.031 C 284.000 169.344,284.162 169.600,284.360 169.600 C 284.738 169.600,285.960 171.442,287.460 174.274 L 288.346 175.948 286.606 177.374 C 285.649 178.158,284.742 178.800,284.590 178.800 C 284.439 178.800,283.781 179.250,283.127 179.800 C 282.473 180.350,281.682 180.800,281.369 180.800 C 281.056 180.800,280.800 180.984,280.800 181.210 C 280.800 181.435,280.395 181.796,279.900 182.011 C 279.405 182.227,278.190 183.032,277.200 183.800 C 276.210 184.568,274.995 185.373,274.500 185.589 C 274.005 185.804,273.600 186.147,273.600 186.351 C 273.600 186.555,273.105 186.923,272.500 187.170 C 271.895 187.416,270.910 187.927,270.312 188.304 C 269.208 189.001,266.000 186.584,266.000 185.055 C 266.000 184.793,265.640 184.270,265.200 183.893 C 264.760 183.516,264.400 182.936,264.400 182.604 C 264.400 182.272,264.216 182.000,263.991 182.000 C 263.767 182.000,263.362 181.507,263.091 180.905 C 262.821 180.304,262.285 179.494,261.900 179.105 C 261.515 178.717,261.200 178.173,261.200 177.896 C 261.200 177.619,260.840 177.168,260.400 176.893 C 259.960 176.618,259.600 176.153,259.600 175.859 C 259.600 175.565,259.240 174.998,258.800 174.600 C 258.360 174.202,258.000 173.538,258.000 173.125 C 258.000 172.713,257.754 172.280,257.453 172.165 C 256.939 171.968,254.400 168.374,254.400 167.844 C 254.400 167.710,254.123 167.285,253.785 166.900 C 252.167 165.056,251.200 163.630,251.200 163.085 C 251.200 162.755,250.945 162.388,250.634 162.268 C 250.323 162.149,249.828 161.615,249.534 161.081 C 248.415 159.050,245.458 154.800,245.162 154.800 C 244.993 154.800,244.727 154.395,244.572 153.900 C 244.417 153.405,243.952 152.550,243.538 152.000 C 243.125 151.450,242.513 150.640,242.179 150.200 C 241.019 148.672,239.600 146.362,239.600 146.002 C 239.600 145.803,239.369 145.496,239.086 145.320 C 238.804 145.144,237.953 144.010,237.196 142.800 C 236.438 141.590,235.624 140.420,235.386 140.200 C 234.723 139.586,232.800 136.469,232.800 136.009 C 232.800 135.784,232.638 135.600,232.440 135.600 C 232.124 135.600,231.285 134.448,229.764 131.927 C 229.525 131.530,229.030 130.875,228.664 130.471 C 228.299 130.067,228.000 129.597,228.000 129.426 C 228.000 129.255,227.550 128.581,227.000 127.927 C 226.450 127.273,226.000 126.482,226.000 126.169 C 226.000 125.856,225.850 125.600,225.667 125.600 C 225.260 125.600,222.800 121.862,222.800 121.244 C 222.800 121.000,222.638 120.800,222.440 120.800 C 222.241 120.800,221.712 120.215,221.262 119.500 C 220.813 118.785,219.895 117.429,219.223 116.486 C 218.550 115.543,218.000 114.658,218.000 114.519 C 218.000 114.381,217.723 113.982,217.385 113.634 C 217.047 113.285,216.199 112.100,215.500 111.000 C 214.802 109.900,213.999 108.856,213.715 108.680 C 213.432 108.504,213.200 108.113,213.200 107.811 C 213.200 107.509,212.750 106.727,212.200 106.073 C 211.650 105.419,211.200 104.692,211.200 104.456 C 211.200 104.221,210.840 103.835,210.400 103.600 C 208.482 102.573,210.983 98.000,213.462 98.000 C 213.671 98.000,214.992 96.987,217.134 95.186 C 217.648 94.754,218.240 94.400,218.450 94.400 C 218.882 94.400,220.976 92.955,222.072 91.900 C 222.473 91.515,223.068 91.200,223.397 91.200 C 223.725 91.200,224.218 90.840,224.493 90.400 C 224.768 89.960,225.197 89.600,225.447 89.600 C 225.697 89.600,226.134 89.321,226.417 88.980 C 227.597 87.557,229.230 88.403,231.476 91.600 M177.891 138.800 C 178.450 139.240,179.126 139.600,179.392 139.600 C 179.658 139.600,180.202 139.960,180.600 140.400 C 180.998 140.840,181.649 141.200,182.046 141.200 C 182.444 141.200,183.091 141.523,183.484 141.918 C 183.878 142.313,184.650 142.857,185.200 143.126 C 185.750 143.395,186.920 144.056,187.800 144.594 C 188.680 145.132,189.954 145.838,190.632 146.163 C 191.309 146.488,192.096 147.034,192.381 147.377 C 192.665 147.720,193.122 148.000,193.395 148.000 C 193.668 148.000,194.350 148.360,194.909 148.800 C 195.469 149.240,196.191 149.600,196.514 149.600 C 196.837 149.600,197.335 149.880,197.619 150.223 C 197.904 150.566,198.736 151.097,199.468 151.403 C 200.201 151.709,200.800 152.134,200.800 152.348 C 200.800 152.562,201.352 152.858,202.027 153.006 C 202.702 153.154,203.347 153.517,203.460 153.813 C 203.574 154.109,204.173 154.462,204.792 154.598 C 205.411 154.734,206.234 155.195,206.621 155.623 C 207.007 156.050,207.662 156.400,208.075 156.400 C 208.487 156.400,208.925 156.661,209.048 156.981 C 209.170 157.300,209.885 157.764,210.635 158.012 C 211.386 158.259,212.000 158.601,212.000 158.770 C 212.000 158.940,212.675 159.373,213.500 159.732 C 215.278 160.507,217.717 161.958,218.004 162.413 C 218.116 162.591,218.688 162.857,219.275 163.004 C 219.862 163.152,220.433 163.509,220.544 163.798 C 220.655 164.088,221.310 164.449,222.000 164.600 C 222.690 164.751,223.348 165.120,223.462 165.418 C 223.577 165.717,224.285 166.164,225.035 166.412 C 225.786 166.659,226.400 167.010,226.400 167.192 C 226.400 167.373,226.895 167.730,227.500 167.984 C 228.944 168.590,231.036 169.766,231.800 170.400 C 232.378 170.880,233.482 171.524,236.200 172.968 C 236.860 173.319,238.120 174.048,239.000 174.589 C 239.880 175.129,241.154 175.838,241.832 176.163 C 242.509 176.488,243.296 177.034,243.581 177.377 C 243.865 177.720,244.363 178.000,244.686 178.000 C 245.009 178.000,245.731 178.360,246.291 178.800 C 246.850 179.240,247.547 179.600,247.840 179.600 C 248.132 179.600,248.565 179.960,248.800 180.400 C 249.035 180.840,249.582 181.200,250.014 181.200 C 250.446 181.200,251.142 181.542,251.561 181.961 C 251.979 182.379,252.744 182.854,253.261 183.016 C 253.777 183.178,254.629 183.645,255.154 184.055 C 255.679 184.465,256.334 184.800,256.611 184.800 C 256.888 184.800,257.212 185.053,257.330 185.362 C 257.449 185.672,258.097 186.046,258.771 186.194 C 259.444 186.341,260.131 186.699,260.298 186.988 C 260.464 187.277,261.230 187.808,262.000 188.168 C 266.822 190.419,268.131 192.252,266.484 194.446 C 266.090 194.971,265.547 195.850,265.276 196.400 C 265.006 196.950,264.344 198.120,263.806 199.000 C 263.268 199.880,262.562 201.154,262.237 201.832 C 261.912 202.509,261.366 203.296,261.023 203.581 C 260.680 203.865,260.400 204.408,260.400 204.787 C 260.400 205.166,260.056 205.787,259.636 206.167 C 259.216 206.548,258.762 207.296,258.628 207.829 C 258.494 208.363,258.211 208.800,257.998 208.800 C 257.785 208.800,257.348 209.430,257.026 210.200 C 256.266 212.018,252.493 211.661,251.227 209.651 C 251.102 209.452,250.325 209.009,249.500 208.665 C 248.675 208.322,248.000 207.852,248.000 207.620 C 248.000 207.389,247.664 207.200,247.254 207.200 C 246.844 207.200,246.050 206.840,245.491 206.400 C 244.931 205.960,244.305 205.600,244.099 205.600 C 243.893 205.600,243.407 205.250,243.021 204.823 C 242.634 204.395,241.797 203.931,241.161 203.791 C 240.525 203.652,239.869 203.327,239.702 203.069 C 239.536 202.811,238.770 202.283,238.000 201.895 C 237.230 201.508,236.060 200.832,235.400 200.394 C 234.740 199.957,233.570 199.309,232.800 198.956 C 232.030 198.603,231.256 198.063,231.080 197.757 C 230.904 197.451,230.407 197.200,229.976 197.200 C 229.545 197.200,228.884 196.840,228.507 196.400 C 228.130 195.960,227.524 195.600,227.160 195.600 C 226.796 195.600,226.265 195.320,225.981 194.977 C 225.696 194.634,224.864 194.103,224.132 193.797 C 223.399 193.491,222.800 193.071,222.800 192.864 C 222.800 192.656,222.319 192.366,221.732 192.219 C 221.144 192.071,220.220 191.602,219.678 191.175 C 219.136 190.749,218.474 190.400,218.208 190.400 C 217.942 190.400,217.398 190.040,217.000 189.600 C 216.602 189.160,215.966 188.800,215.587 188.800 C 215.208 188.800,214.665 188.520,214.381 188.177 C 214.096 187.834,213.309 187.287,212.632 186.961 C 211.250 186.296,209.376 185.245,207.000 183.801 C 206.120 183.266,204.815 182.549,204.100 182.209 C 203.385 181.868,202.800 181.426,202.800 181.226 C 202.800 181.027,202.272 180.748,201.628 180.606 C 200.983 180.464,200.232 180.080,199.959 179.751 C 199.687 179.423,198.909 178.888,198.232 178.562 C 196.124 177.550,194.608 176.689,194.400 176.383 C 194.290 176.222,193.525 175.809,192.700 175.465 C 191.875 175.122,191.200 174.666,191.200 174.452 C 191.200 174.238,190.648 173.942,189.973 173.794 C 189.298 173.646,188.654 173.284,188.541 172.990 C 188.428 172.696,187.855 172.261,187.268 172.023 C 186.681 171.785,185.480 171.150,184.600 170.612 C 183.720 170.074,182.255 169.281,181.344 168.850 C 180.434 168.419,179.624 167.917,179.544 167.733 C 179.465 167.550,178.344 166.860,177.054 166.200 C 175.764 165.540,174.620 164.775,174.511 164.500 C 174.403 164.225,173.998 164.000,173.611 164.000 C 173.224 164.000,172.455 163.644,171.901 163.208 C 171.347 162.772,170.468 162.223,169.947 161.987 C 169.426 161.752,168.280 161.122,167.400 160.588 C 166.520 160.054,165.215 159.310,164.500 158.934 C 163.087 158.192,162.672 156.210,163.705 155.129 C 163.982 154.838,164.441 154.150,164.724 153.600 C 165.007 153.050,165.679 151.880,166.216 151.000 C 166.754 150.120,167.455 148.846,167.774 148.168 C 168.093 147.491,168.634 146.704,168.977 146.419 C 169.320 146.135,169.600 145.586,169.600 145.200 C 169.600 144.814,169.880 144.265,170.223 143.981 C 170.566 143.696,171.097 142.864,171.403 142.132 C 171.709 141.399,172.148 140.800,172.380 140.800 C 172.611 140.800,172.800 140.632,172.800 140.426 C 172.800 138.018,175.714 137.087,177.891 138.800 M155.606 190.339 C 156.373 190.745,157.970 191.190,159.155 191.327 C 160.340 191.463,161.600 191.828,161.955 192.136 C 162.310 192.444,163.590 192.821,164.800 192.972 C 166.010 193.124,167.360 193.479,167.800 193.763 C 168.240 194.046,169.589 194.407,170.798 194.566 C 172.007 194.724,173.287 195.117,173.643 195.439 C 173.999 195.761,175.260 196.132,176.445 196.264 C 177.630 196.395,179.161 196.840,179.847 197.251 C 180.533 197.663,181.796 198.000,182.653 198.000 C 183.510 198.000,184.884 198.360,185.704 198.800 C 186.525 199.240,187.852 199.600,188.651 199.600 C 189.451 199.600,190.667 199.937,191.353 200.349 C 192.039 200.760,193.570 201.205,194.755 201.336 C 195.940 201.468,197.200 201.829,197.555 202.140 C 197.910 202.450,199.235 202.829,200.500 202.981 C 201.765 203.133,203.036 203.493,203.323 203.781 C 203.611 204.068,204.953 204.432,206.305 204.589 C 207.657 204.746,208.964 205.116,209.210 205.412 C 209.455 205.708,210.678 206.076,211.928 206.231 C 213.178 206.385,214.827 206.847,215.594 207.256 C 216.361 207.665,217.583 208.000,218.310 208.000 C 219.037 208.000,220.338 208.360,221.200 208.800 C 222.062 209.240,223.363 209.600,224.090 209.600 C 224.817 209.600,226.039 209.933,226.806 210.339 C 227.573 210.745,229.170 211.190,230.355 211.327 C 231.540 211.463,232.800 211.828,233.155 212.136 C 233.510 212.444,234.790 212.821,236.000 212.972 C 237.210 213.124,238.573 213.490,239.028 213.786 C 239.484 214.082,240.874 214.452,242.116 214.607 C 243.359 214.762,244.574 215.128,244.816 215.419 C 245.058 215.711,246.278 216.072,247.528 216.221 C 248.778 216.370,250.361 216.831,251.047 217.246 C 251.733 217.661,252.576 218.000,252.920 218.000 C 254.195 218.000,254.255 222.282,253.008 224.227 C 252.716 224.681,252.296 226.121,252.074 227.427 C 251.852 228.732,251.393 230.520,251.053 231.400 C 250.713 232.280,250.427 233.522,250.418 234.160 C 250.398 235.465,248.514 239.581,247.814 239.850 C 247.563 239.946,246.698 239.749,245.892 239.413 C 245.085 239.076,243.828 238.800,243.097 238.800 C 242.367 238.800,241.116 238.467,240.317 238.060 C 239.518 237.652,237.927 237.208,236.782 237.072 C 235.636 236.937,234.278 236.550,233.763 236.213 C 233.249 235.876,232.140 235.600,231.299 235.600 C 230.457 235.600,229.097 235.257,228.275 234.838 C 227.453 234.419,225.713 233.952,224.408 233.801 C 223.104 233.650,221.836 233.284,221.590 232.988 C 221.345 232.692,220.122 232.330,218.872 232.184 C 217.622 232.037,216.060 231.654,215.400 231.333 C 214.740 231.012,213.300 230.647,212.200 230.523 C 211.100 230.399,209.639 229.960,208.953 229.549 C 208.267 229.137,207.004 228.800,206.147 228.800 C 205.290 228.800,203.961 228.467,203.194 228.061 C 202.427 227.655,200.832 227.210,199.649 227.074 C 198.467 226.937,197.078 226.550,196.563 226.213 C 196.049 225.876,194.940 225.600,194.099 225.600 C 193.257 225.600,191.905 225.261,191.092 224.847 C 190.280 224.433,188.577 223.968,187.308 223.815 C 186.038 223.661,184.611 223.287,184.136 222.982 C 183.661 222.678,182.158 222.250,180.796 222.030 C 179.434 221.811,178.087 221.438,177.802 221.202 C 177.518 220.966,176.321 220.661,175.142 220.525 C 173.964 220.389,172.373 219.945,171.606 219.539 C 170.839 219.133,169.489 218.799,168.606 218.799 C 167.707 218.798,166.423 218.445,165.690 217.999 C 164.970 217.559,163.710 217.196,162.890 217.191 C 162.071 217.186,160.615 216.826,159.656 216.391 C 158.697 215.956,157.340 215.600,156.641 215.600 C 155.941 215.600,154.705 215.261,153.892 214.847 C 153.080 214.433,151.377 213.964,150.109 213.806 C 148.807 213.643,147.039 213.070,146.051 212.492 L 144.300 211.465 144.551 209.060 C 144.690 207.738,145.063 206.258,145.382 205.772 C 145.700 205.286,146.086 203.923,146.240 202.744 C 146.393 201.565,146.852 199.973,147.260 199.206 C 147.667 198.439,148.001 197.179,148.002 196.406 C 148.004 195.633,148.257 194.517,148.565 193.927 C 148.873 193.337,149.253 192.257,149.409 191.527 C 149.566 190.797,149.774 190.065,149.871 189.900 C 150.226 189.296,154.214 189.601,155.606 190.339 M116.426 216.414 C 117.185 216.820,117.200 217.799,117.200 266.414 L 117.200 316.000 191.595 316.000 L 265.991 316.000 266.095 266.433 C 266.153 239.172,266.350 216.717,266.532 216.533 C 267.238 215.826,282.636 215.893,283.349 216.606 C 284.199 217.457,284.368 332.672,283.520 333.520 C 283.011 334.029,101.553 334.264,100.233 333.757 C 99.204 333.362,99.271 217.032,100.300 216.432 C 101.237 215.886,115.410 215.870,116.426 216.414 M152.600 237.190 C 153.273 237.474,156.786 237.841,160.600 238.025 C 164.340 238.206,168.030 238.556,168.800 238.803 C 169.570 239.050,173.260 239.413,177.000 239.611 C 180.740 239.808,184.790 240.245,186.000 240.580 C 187.210 240.916,189.820 241.196,191.800 241.202 C 196.239 241.217,202.306 241.830,202.934 242.327 C 203.190 242.531,206.379 242.821,210.020 242.973 C 213.661 243.124,217.351 243.437,218.220 243.669 C 219.089 243.900,222.590 244.241,226.000 244.426 C 229.410 244.611,233.460 245.045,235.000 245.392 C 236.540 245.738,240.021 246.167,242.736 246.346 C 246.273 246.578,247.774 246.830,248.030 247.235 C 248.586 248.113,248.455 251.990,247.796 254.164 C 247.428 255.377,247.200 257.762,247.200 260.408 C 247.200 266.046,246.868 268.335,245.983 268.809 C 244.957 269.358,228.291 268.572,225.800 267.857 C 224.606 267.514,221.032 267.193,216.932 267.060 C 213.075 266.936,209.042 266.585,207.732 266.260 C 206.449 265.942,202.430 265.581,198.800 265.459 C 194.823 265.324,191.278 264.990,189.880 264.618 C 188.605 264.278,186.175 263.995,184.480 263.988 C 179.737 263.970,171.491 263.291,170.239 262.815 C 169.621 262.580,165.580 262.226,161.258 262.027 C 156.936 261.829,152.894 261.472,152.275 261.234 C 151.656 260.995,148.243 260.681,144.690 260.534 C 136.455 260.195,136.145 259.997,136.567 255.343 C 136.716 253.698,137.031 251.869,137.268 251.277 C 137.504 250.684,137.812 247.268,137.952 243.684 C 138.151 238.560,138.333 237.081,138.803 236.763 C 139.645 236.193,151.076 236.546,152.600 237.190 M247.278 277.875 L 248.400 278.950 248.400 289.295 L 248.400 299.641 247.013 300.220 C 245.080 301.028,137.993 301.088,136.400 300.283 L 135.400 299.777 135.293 289.351 C 135.191 279.298,135.217 278.886,136.023 277.862 L 136.858 276.800 191.507 276.800 L 246.156 276.800 247.278 277.875 " stroke="none" fill="#f58025" fill-rule="evenodd"/><path id="path1" d="M288.415 67.214 C 287.214 67.646,285.212 68.000,283.967 68.000 C 282.723 68.000,280.577 68.360,279.200 68.800 C 277.823 69.240,276.125 69.600,275.428 69.600 C 273.242 69.600,272.352 72.565,273.739 75.224 C 274.033 75.787,274.401 77.927,274.555 79.980 C 274.710 82.032,275.097 84.214,275.414 84.827 C 275.731 85.441,276.107 87.531,276.248 89.471 C 276.390 91.412,276.767 93.630,277.087 94.400 C 277.406 95.170,277.829 97.510,278.026 99.600 C 278.224 101.690,278.651 104.120,278.975 105.000 C 279.299 105.880,279.573 107.634,279.582 108.898 C 279.592 110.163,279.943 112.233,280.363 113.498 C 280.783 114.764,281.229 117.311,281.355 119.158 C 281.481 121.005,281.830 122.895,282.131 123.358 C 282.431 123.821,282.804 125.902,282.959 127.983 C 283.114 130.064,283.486 132.314,283.785 132.983 C 284.084 133.652,284.446 135.820,284.590 137.800 C 284.733 139.780,285.110 141.925,285.428 142.567 C 285.746 143.209,286.118 145.279,286.256 147.167 C 286.393 149.055,286.774 151.230,287.101 152.000 C 287.429 152.770,287.842 155.143,288.020 157.273 C 288.198 159.403,288.555 161.542,288.813 162.025 C 289.072 162.508,289.432 164.545,289.615 166.551 C 290.224 173.257,291.793 175.870,294.484 174.662 C 295.208 174.337,297.420 173.954,299.400 173.810 C 301.380 173.667,303.540 173.279,304.200 172.948 C 304.860 172.617,306.989 172.241,308.931 172.112 C 312.651 171.865,313.905 171.303,314.093 169.800 C 314.302 168.122,313.537 161.423,312.985 160.102 C 312.667 159.341,312.241 156.954,312.038 154.797 C 311.835 152.641,311.472 150.508,311.231 150.058 C 310.990 149.608,310.688 147.836,310.560 146.120 C 310.431 144.404,309.983 141.964,309.563 140.698 C 309.143 139.433,308.792 137.273,308.782 135.898 C 308.773 134.524,308.483 132.680,308.139 131.800 C 307.794 130.920,307.356 128.538,307.165 126.507 C 306.973 124.476,306.543 122.159,306.208 121.358 C 305.874 120.557,305.600 118.974,305.600 117.838 C 305.600 116.703,305.316 114.790,304.969 113.587 C 304.621 112.384,304.167 109.780,303.960 107.800 C 303.752 105.820,303.315 103.471,302.988 102.579 C 302.662 101.688,302.228 99.201,302.025 97.054 C 301.822 94.906,301.466 92.921,301.235 92.643 C 301.004 92.364,300.698 90.531,300.555 88.568 C 300.412 86.606,300.033 84.370,299.713 83.600 C 299.394 82.830,298.976 80.452,298.784 78.315 C 298.593 76.179,298.158 73.893,297.818 73.235 C 297.478 72.578,297.200 71.119,297.200 69.994 C 297.200 66.170,294.072 65.180,288.415 67.214 M295.560 67.751 C 295.811 68.054,296.203 69.899,296.431 71.851 C 296.659 73.803,297.095 76.210,297.400 77.200 C 297.705 78.190,298.068 80.260,298.207 81.800 C 298.346 83.340,298.701 85.500,298.995 86.600 C 299.289 87.700,299.658 89.770,299.814 91.200 C 299.971 92.630,300.345 94.749,300.646 95.908 C 300.948 97.067,301.379 99.652,301.606 101.651 C 301.832 103.650,302.194 105.615,302.409 106.018 C 302.625 106.420,302.968 108.336,303.173 110.275 C 303.377 112.214,303.827 114.873,304.172 116.184 C 304.517 117.495,304.800 119.216,304.800 120.009 C 304.800 120.801,305.141 122.788,305.558 124.425 C 305.975 126.061,306.437 128.716,306.585 130.325 C 306.733 131.934,307.087 133.914,307.371 134.725 C 307.656 135.536,308.009 137.460,308.155 139.000 C 308.301 140.540,308.683 142.970,309.004 144.400 C 309.545 146.815,310.327 151.216,311.243 157.000 C 311.640 159.509,312.144 162.276,312.886 166.021 C 313.729 170.273,313.138 170.686,304.908 171.598 C 303.098 171.799,301.264 172.152,300.833 172.382 C 299.796 172.937,292.700 173.660,292.292 173.252 C 291.976 172.936,291.699 171.639,290.788 166.200 C 290.529 164.660,290.047 162.050,289.716 160.400 C 289.385 158.750,288.870 155.557,288.573 153.304 C 288.275 151.051,287.848 148.863,287.622 148.442 C 287.397 148.021,287.104 146.354,286.971 144.738 C 286.839 143.122,286.486 140.900,286.187 139.800 C 285.888 138.700,285.464 136.360,285.244 134.600 C 285.024 132.840,284.565 130.327,284.222 129.016 C 283.880 127.705,283.600 125.911,283.600 125.029 C 283.600 124.147,283.257 121.980,282.838 120.213 C 282.420 118.446,281.880 115.650,281.638 114.000 C 280.922 109.099,280.404 106.032,279.580 101.800 C 279.152 99.600,278.622 96.394,278.401 94.675 C 278.181 92.956,277.824 91.218,277.607 90.813 C 277.390 90.408,277.104 88.754,276.971 87.138 C 276.839 85.522,276.492 83.300,276.200 82.200 C 275.584 79.876,274.667 73.448,274.748 72.022 C 274.815 70.843,275.405 70.417,277.000 70.398 C 277.660 70.390,279.370 70.114,280.800 69.785 C 282.230 69.455,285.200 68.936,287.400 68.631 C 289.600 68.326,291.850 67.891,292.400 67.664 C 293.820 67.077,295.028 67.111,295.560 67.751 M226.417 88.980 C 226.134 89.321,225.697 89.600,225.447 89.600 C 225.197 89.600,224.768 89.960,224.493 90.400 C 224.218 90.840,223.725 91.200,223.397 91.200 C 223.068 91.200,222.473 91.515,222.072 91.900 C 220.976 92.955,218.882 94.400,218.450 94.400 C 218.240 94.400,217.648 94.754,217.134 95.186 C 214.992 96.987,213.671 98.000,213.462 98.000 C 210.983 98.000,208.482 102.573,210.400 103.600 C 210.840 103.835,211.200 104.221,211.200 104.456 C 211.200 104.692,211.650 105.419,212.200 106.073 C 212.750 106.727,213.200 107.509,213.200 107.811 C 213.200 108.113,213.432 108.504,213.715 108.680 C 213.999 108.856,214.802 109.900,215.500 111.000 C 216.199 112.100,217.047 113.285,217.385 113.634 C 217.723 113.982,218.000 114.381,218.000 114.519 C 218.000 114.658,218.550 115.543,219.223 116.486 C 219.895 117.429,220.813 118.785,221.262 119.500 C 221.712 120.215,222.241 120.800,222.440 120.800 C 222.638 120.800,222.800 121.000,222.800 121.244 C 222.800 121.862,225.260 125.600,225.667 125.600 C 225.850 125.600,226.000 125.856,226.000 126.169 C 226.000 126.482,226.450 127.273,227.000 127.927 C 227.550 128.581,228.000 129.255,228.000 129.426 C 228.000 129.597,228.299 130.067,228.664 130.471 C 229.030 130.875,229.525 131.530,229.764 131.927 C 231.285 134.448,232.124 135.600,232.440 135.600 C 232.638 135.600,232.800 135.784,232.800 136.009 C 232.800 136.469,234.723 139.586,235.386 140.200 C 235.624 140.420,236.438 141.590,237.196 142.800 C 237.953 144.010,238.804 145.144,239.086 145.320 C 239.369 145.496,239.600 145.803,239.600 146.002 C 239.600 146.362,241.019 148.672,242.179 150.200 C 242.513 150.640,243.125 151.450,243.538 152.000 C 243.952 152.550,244.417 153.405,244.572 153.900 C 244.727 154.395,244.993 154.800,245.162 154.800 C 245.458 154.800,248.415 159.050,249.534 161.081 C 249.828 161.615,250.323 162.149,250.634 162.268 C 250.945 162.388,251.200 162.755,251.200 163.085 C 251.200 163.630,252.167 165.056,253.785 166.900 C 254.123 167.285,254.400 167.710,254.400 167.844 C 254.400 168.374,256.939 171.968,257.453 172.165 C 257.754 172.280,258.000 172.713,258.000 173.125 C 258.000 173.538,258.360 174.202,258.800 174.600 C 259.240 174.998,259.600 175.565,259.600 175.859 C 259.600 176.153,259.960 176.618,260.400 176.893 C 260.840 177.168,261.200 177.619,261.200 177.896 C 261.200 178.173,261.515 178.717,261.900 179.105 C 262.285 179.494,262.821 180.304,263.091 180.905 C 263.362 181.507,263.767 182.000,263.991 182.000 C 264.216 182.000,264.400 182.272,264.400 182.604 C 264.400 182.936,264.760 183.516,265.200 183.893 C 265.640 184.270,266.000 184.793,266.000 185.055 C 266.000 186.584,269.208 189.001,270.312 188.304 C 270.910 187.927,271.895 187.416,272.500 187.170 C 273.105 186.923,273.600 186.555,273.600 186.351 C 273.600 186.147,274.005 185.804,274.500 185.589 C 274.995 185.373,276.210 184.568,277.200 183.800 C 278.190 183.032,279.405 182.227,279.900 182.011 C 280.395 181.796,280.800 181.435,280.800 181.210 C 280.800 180.984,281.056 180.800,281.369 180.800 C 281.682 180.800,282.473 180.350,283.127 179.800 C 283.781 179.250,284.439 178.800,284.590 178.800 C 284.742 178.800,285.649 178.158,286.606 177.374 L 288.346 175.948 287.460 174.274 C 285.960 171.442,284.738 169.600,284.360 169.600 C 284.162 169.600,284.000 169.344,284.000 169.031 C 284.000 168.718,283.550 167.927,283.000 167.273 C 282.450 166.619,282.000 165.913,282.000 165.704 C 282.000 165.495,281.640 164.998,281.200 164.600 C 280.760 164.202,280.400 163.634,280.400 163.338 C 280.400 163.042,280.241 162.800,280.046 162.800 C 279.851 162.800,279.395 162.176,279.033 161.413 C 278.671 160.650,278.155 159.885,277.887 159.713 C 277.358 159.373,276.851 158.618,275.596 156.300 C 275.149 155.475,274.607 154.800,274.392 154.800 C 274.176 154.800,274.000 154.603,274.000 154.363 C 274.000 154.123,273.632 153.448,273.183 152.863 C 271.702 150.935,269.623 147.825,268.797 146.300 C 268.350 145.475,267.807 144.800,267.592 144.800 C 267.376 144.800,267.200 144.589,267.200 144.331 C 267.200 144.074,266.901 143.533,266.536 143.129 C 266.170 142.725,265.675 142.070,265.436 141.673 C 263.915 139.152,263.076 138.000,262.760 138.000 C 262.562 138.000,262.400 137.794,262.400 137.541 C 262.400 137.144,261.722 136.069,258.800 131.832 C 258.470 131.354,257.777 130.296,257.260 129.481 C 256.744 128.666,256.159 128.000,255.960 128.000 C 255.762 128.000,255.600 127.713,255.600 127.363 C 255.600 126.747,254.772 125.510,252.900 123.331 C 252.405 122.755,252.000 122.034,252.000 121.729 C 252.000 121.424,251.730 121.071,251.400 120.945 C 251.070 120.818,250.800 120.477,250.800 120.188 C 250.800 119.898,250.381 119.153,249.868 118.531 C 249.356 117.909,248.821 117.085,248.681 116.700 C 248.540 116.315,248.242 116.000,248.018 116.000 C 247.794 116.000,247.348 115.370,247.026 114.600 C 246.704 113.830,246.252 113.200,246.020 113.200 C 245.789 113.200,245.600 112.928,245.600 112.596 C 245.600 112.264,245.240 111.684,244.800 111.307 C 244.360 110.930,244.000 110.392,244.000 110.111 C 244.000 109.830,243.685 109.273,243.300 108.872 C 242.412 107.950,241.151 106.119,240.427 104.700 C 240.118 104.095,239.737 103.600,239.581 103.600 C 239.425 103.600,239.073 103.060,238.800 102.400 C 238.527 101.740,238.153 101.200,237.970 101.200 C 237.787 101.200,237.339 100.570,236.973 99.800 C 236.608 99.030,236.149 98.400,235.954 98.400 C 235.759 98.400,235.600 98.152,235.600 97.849 C 235.600 97.546,235.311 97.058,234.958 96.765 C 234.605 96.473,234.151 95.865,233.950 95.416 C 231.802 90.640,227.845 87.259,226.417 88.980 M229.014 90.306 C 229.360 90.552,231.439 93.478,233.000 95.918 C 233.220 96.262,233.900 97.276,234.511 98.171 C 235.122 99.067,236.731 101.465,238.086 103.500 C 239.441 105.535,240.696 107.200,240.875 107.200 C 241.054 107.200,241.200 107.445,241.200 107.745 C 241.200 108.045,241.695 108.924,242.300 109.700 C 243.631 111.406,244.002 111.946,245.865 114.900 C 246.664 116.165,247.470 117.200,247.658 117.200 C 247.846 117.200,248.001 117.425,248.002 117.700 C 248.003 117.975,248.681 119.100,249.508 120.200 C 250.336 121.300,251.591 123.100,252.296 124.200 C 253.002 125.300,253.722 126.380,253.897 126.600 C 254.072 126.820,254.790 127.900,255.493 129.000 C 256.195 130.100,257.011 131.270,257.304 131.600 C 257.784 132.139,258.645 133.401,259.795 135.251 C 260.018 135.610,261.100 137.206,262.200 138.800 C 263.300 140.394,264.387 142.016,264.616 142.406 C 264.844 142.796,265.287 143.423,265.600 143.800 C 265.913 144.177,266.356 144.804,266.584 145.194 C 266.813 145.584,267.900 147.206,269.000 148.800 C 270.100 150.394,271.209 152.060,271.464 152.503 C 271.719 152.946,272.099 153.419,272.308 153.554 C 272.517 153.689,272.989 154.340,273.356 155.000 C 274.473 157.006,277.779 161.938,280.085 165.036 C 280.918 166.156,281.600 167.272,281.600 167.516 C 281.600 167.761,281.832 168.104,282.115 168.280 C 282.399 168.456,283.204 169.500,283.905 170.600 C 284.606 171.700,285.379 172.833,285.623 173.119 C 286.730 174.412,286.803 176.016,285.777 176.483 C 285.240 176.728,284.800 177.076,284.800 177.256 C 284.800 177.436,284.125 177.950,283.300 178.397 C 282.475 178.844,280.900 179.843,279.800 180.616 C 278.700 181.390,277.460 182.243,277.044 182.512 C 276.629 182.780,275.793 183.405,275.187 183.900 C 274.580 184.395,273.945 184.800,273.774 184.800 C 273.603 184.800,273.179 185.052,272.831 185.359 C 272.484 185.667,271.548 186.281,270.750 186.724 L 269.301 187.530 268.229 186.065 C 267.640 185.259,266.284 183.340,265.217 181.800 C 264.150 180.260,262.990 178.685,262.639 178.300 C 262.287 177.915,262.000 177.433,262.000 177.229 C 262.000 177.024,261.753 176.610,261.452 176.309 C 261.150 176.008,260.606 175.185,260.242 174.480 C 259.877 173.776,259.425 173.200,259.236 173.200 C 259.048 173.200,258.783 172.885,258.648 172.500 C 258.438 171.901,257.173 169.966,256.099 168.600 C 255.927 168.380,255.210 167.300,254.507 166.200 C 253.805 165.100,252.953 163.915,252.615 163.566 C 252.277 163.218,252.000 162.782,252.000 162.598 C 252.000 162.414,251.701 161.933,251.336 161.529 C 250.970 161.125,250.475 160.456,250.236 160.041 C 249.996 159.627,248.540 157.445,247.000 155.193 C 245.460 152.940,243.930 150.699,243.600 150.212 C 241.666 147.361,240.568 145.725,240.208 145.157 C 239.984 144.804,239.260 143.740,238.600 142.793 C 237.940 141.847,237.130 140.656,236.800 140.147 C 235.478 138.107,232.975 134.569,232.502 134.071 C 232.226 133.781,232.000 133.392,232.000 133.207 C 232.000 133.023,231.280 131.961,230.400 130.848 C 229.520 129.734,228.800 128.638,228.800 128.412 C 228.800 128.185,228.485 127.684,228.100 127.298 C 227.715 126.912,226.814 125.697,226.097 124.598 C 225.381 123.499,224.571 122.260,224.297 121.844 C 224.024 121.429,223.395 120.593,222.900 119.987 C 222.405 119.380,221.999 118.730,221.998 118.542 C 221.997 118.354,221.319 117.300,220.490 116.200 C 218.951 114.157,213.130 105.632,211.942 103.681 C 210.762 101.743,210.726 101.051,211.770 100.399 C 212.762 99.781,221.461 93.866,225.000 91.404 C 226.951 90.046,228.176 89.711,229.014 90.306 M173.190 139.026 C 172.976 139.590,172.800 140.220,172.800 140.426 C 172.800 140.632,172.611 140.800,172.380 140.800 C 172.148 140.800,171.709 141.399,171.403 142.132 C 171.097 142.864,170.566 143.696,170.223 143.981 C 169.880 144.265,169.600 144.814,169.600 145.200 C 169.600 145.586,169.320 146.135,168.977 146.419 C 168.634 146.704,168.093 147.491,167.774 148.168 C 167.455 148.846,166.754 150.120,166.216 151.000 C 165.679 151.880,165.007 153.050,164.724 153.600 C 164.441 154.150,163.982 154.838,163.705 155.129 C 162.672 156.210,163.087 158.192,164.500 158.934 C 165.215 159.310,166.520 160.054,167.400 160.588 C 168.280 161.122,169.426 161.752,169.947 161.987 C 170.468 162.223,171.347 162.772,171.901 163.208 C 172.455 163.644,173.224 164.000,173.611 164.000 C 173.998 164.000,174.403 164.225,174.511 164.500 C 174.620 164.775,175.764 165.540,177.054 166.200 C 178.344 166.860,179.465 167.550,179.544 167.733 C 179.624 167.917,180.434 168.419,181.344 168.850 C 182.255 169.281,183.720 170.074,184.600 170.612 C 185.480 171.150,186.681 171.785,187.268 172.023 C 187.855 172.261,188.428 172.696,188.541 172.990 C 188.654 173.284,189.298 173.646,189.973 173.794 C 190.648 173.942,191.200 174.238,191.200 174.452 C 191.200 174.666,191.875 175.122,192.700 175.465 C 193.525 175.809,194.290 176.222,194.400 176.383 C 194.608 176.689,196.124 177.550,198.232 178.562 C 198.909 178.888,199.687 179.423,199.959 179.751 C 200.232 180.080,200.983 180.464,201.628 180.606 C 202.272 180.748,202.800 181.027,202.800 181.226 C 202.800 181.426,203.385 181.868,204.100 182.209 C 204.815 182.549,206.120 183.266,207.000 183.801 C 209.376 185.245,211.250 186.296,212.632 186.961 C 213.309 187.287,214.096 187.834,214.381 188.177 C 214.665 188.520,215.208 188.800,215.587 188.800 C 215.966 188.800,216.602 189.160,217.000 189.600 C 217.398 190.040,217.942 190.400,218.208 190.400 C 218.474 190.400,219.136 190.749,219.678 191.175 C 220.220 191.602,221.144 192.071,221.732 192.219 C 222.319 192.366,222.800 192.656,222.800 192.864 C 222.800 193.071,223.399 193.491,224.132 193.797 C 224.864 194.103,225.696 194.634,225.981 194.977 C 226.265 195.320,226.796 195.600,227.160 195.600 C 227.524 195.600,228.130 195.960,228.507 196.400 C 228.884 196.840,229.545 197.200,229.976 197.200 C 230.407 197.200,230.904 197.451,231.080 197.757 C 231.256 198.063,232.030 198.603,232.800 198.956 C 233.570 199.309,234.740 199.957,235.400 200.394 C 236.060 200.832,237.230 201.508,238.000 201.895 C 238.770 202.283,239.536 202.811,239.702 203.069 C 239.869 203.327,240.525 203.652,241.161 203.791 C 241.797 203.931,242.634 204.395,243.021 204.823 C 243.407 205.250,243.893 205.600,244.099 205.600 C 244.305 205.600,244.931 205.960,245.491 206.400 C 246.050 206.840,246.844 207.200,247.254 207.200 C 247.664 207.200,248.000 207.389,248.000 207.620 C 248.000 207.852,248.675 208.322,249.500 208.665 C 250.325 209.009,251.102 209.452,251.227 209.651 C 252.493 211.661,256.266 212.018,257.026 210.200 C 257.348 209.430,257.785 208.800,257.998 208.800 C 258.211 208.800,258.494 208.363,258.628 207.829 C 258.762 207.296,259.216 206.548,259.636 206.167 C 260.056 205.787,260.400 205.166,260.400 204.787 C 260.400 204.408,260.680 203.865,261.023 203.581 C 261.366 203.296,261.912 202.509,262.237 201.832 C 262.562 201.154,263.268 199.880,263.806 199.000 C 264.344 198.120,265.006 196.950,265.276 196.400 C 265.547 195.850,266.090 194.971,266.484 194.446 C 268.131 192.252,266.822 190.419,262.000 188.168 C 261.230 187.808,260.464 187.277,260.298 186.988 C 260.131 186.699,259.444 186.341,258.771 186.194 C 258.097 186.046,257.449 185.672,257.330 185.362 C 257.212 185.053,256.888 184.800,256.611 184.800 C 256.334 184.800,255.679 184.465,255.154 184.055 C 254.629 183.645,253.777 183.178,253.261 183.016 C 252.744 182.854,251.979 182.379,251.561 181.961 C 251.142 181.542,250.446 181.200,250.014 181.200 C 249.582 181.200,249.035 180.840,248.800 180.400 C 248.565 179.960,248.132 179.600,247.840 179.600 C 247.547 179.600,246.850 179.240,246.291 178.800 C 245.731 178.360,245.009 178.000,244.686 178.000 C 244.363 178.000,243.865 177.720,243.581 177.377 C 243.296 177.034,242.509 176.488,241.832 176.163 C 241.154 175.838,239.880 175.129,239.000 174.589 C 238.120 174.048,236.860 173.319,236.200 172.968 C 233.482 171.524,232.378 170.880,231.800 170.400 C 231.036 169.766,228.944 168.590,227.500 167.984 C 226.895 167.730,226.400 167.373,226.400 167.192 C 226.400 167.010,225.786 166.659,225.035 166.412 C 224.285 166.164,223.577 165.717,223.462 165.418 C 223.348 165.120,222.690 164.751,222.000 164.600 C 221.310 164.449,220.655 164.088,220.544 163.798 C 220.433 163.509,219.862 163.152,219.275 163.004 C 218.688 162.857,218.116 162.591,218.004 162.413 C 217.717 161.958,215.278 160.507,213.500 159.732 C 212.675 159.373,212.000 158.940,212.000 158.770 C 212.000 158.601,211.386 158.259,210.635 158.012 C 209.885 157.764,209.170 157.300,209.048 156.981 C 208.925 156.661,208.487 156.400,208.075 156.400 C 207.662 156.400,207.007 156.050,206.621 155.623 C 206.234 155.195,205.411 154.734,204.792 154.598 C 204.173 154.462,203.574 154.109,203.460 153.813 C 203.347 153.517,202.702 153.154,202.027 153.006 C 201.352 152.858,200.800 152.562,200.800 152.348 C 200.800 152.134,200.201 151.709,199.468 151.403 C 198.736 151.097,197.904 150.566,197.619 150.223 C 197.335 149.880,196.837 149.600,196.514 149.600 C 196.191 149.600,195.469 149.240,194.909 148.800 C 194.350 148.360,193.668 148.000,193.395 148.000 C 193.122 148.000,192.665 147.720,192.381 147.377 C 192.096 147.034,191.309 146.488,190.632 146.163 C 189.954 145.838,188.680 145.132,187.800 144.594 C 186.920 144.056,185.750 143.395,185.200 143.126 C 184.650 142.857,183.878 142.313,183.484 141.918 C 183.091 141.523,182.444 141.200,182.046 141.200 C 181.649 141.200,180.998 140.840,180.600 140.400 C 180.202 139.960,179.658 139.600,179.392 139.600 C 179.126 139.600,178.450 139.240,177.891 138.800 C 176.325 137.568,173.696 137.694,173.190 139.026 M176.561 139.137 C 176.755 139.451,182.138 142.726,184.400 143.907 C 184.950 144.194,186.120 144.869,187.000 145.407 C 187.880 145.944,189.050 146.609,189.600 146.884 C 190.150 147.159,190.690 147.486,190.800 147.611 C 190.987 147.823,194.256 149.804,195.600 150.519 C 195.930 150.695,196.861 151.235,197.668 151.719 C 202.281 154.486,207.178 157.200,207.560 157.200 C 207.802 157.200,208.000 157.389,208.000 157.620 C 208.000 157.852,208.585 158.314,209.300 158.648 C 210.015 158.982,211.320 159.689,212.200 160.220 C 213.080 160.750,214.250 161.403,214.800 161.669 C 215.350 161.936,216.076 162.383,216.414 162.661 C 216.752 162.940,218.102 163.736,219.414 164.430 C 220.726 165.123,222.084 165.940,222.431 166.245 C 222.779 166.550,223.261 166.800,223.503 166.800 C 223.745 166.800,224.199 167.056,224.511 167.369 C 224.824 167.681,225.725 168.266,226.514 168.669 C 229.093 169.984,233.389 172.536,233.929 173.074 C 234.219 173.363,234.651 173.600,234.887 173.600 C 235.124 173.600,236.263 174.228,237.418 174.995 C 238.574 175.761,239.942 176.575,240.460 176.802 C 240.977 177.029,242.390 177.845,243.600 178.616 C 244.810 179.387,246.160 180.203,246.600 180.430 C 247.040 180.656,248.120 181.281,249.000 181.818 C 249.880 182.355,251.140 183.072,251.800 183.412 C 252.460 183.752,253.810 184.556,254.800 185.200 C 255.790 185.844,257.140 186.648,257.800 186.988 C 258.460 187.328,259.720 188.048,260.600 188.589 C 261.480 189.129,262.740 189.832,263.400 190.151 C 265.722 191.271,266.537 192.511,265.693 193.635 C 265.294 194.166,264.742 195.050,264.465 195.600 C 263.361 197.790,262.664 199.010,262.404 199.200 C 262.254 199.310,261.464 200.570,260.649 202.000 C 255.748 210.599,255.191 211.113,252.754 209.284 C 252.229 208.890,251.350 208.342,250.800 208.065 C 250.250 207.788,249.145 207.165,248.345 206.681 C 247.545 206.196,245.500 204.990,243.800 204.000 C 242.100 203.010,240.055 201.801,239.255 201.314 C 238.455 200.827,237.260 200.139,236.600 199.787 C 235.940 199.434,234.680 198.714,233.800 198.187 C 232.920 197.661,231.570 196.856,230.800 196.400 C 230.030 195.944,228.680 195.139,227.800 194.613 C 226.920 194.086,225.660 193.376,225.000 193.036 C 224.340 192.695,223.530 192.233,223.200 192.010 C 220.994 190.517,216.549 188.000,216.118 188.000 C 215.833 188.000,215.600 187.853,215.600 187.674 C 215.600 187.495,215.015 187.049,214.300 186.683 C 213.585 186.317,212.280 185.562,211.400 185.006 C 210.520 184.450,209.170 183.706,208.400 183.352 C 207.630 182.999,206.910 182.580,206.800 182.421 C 206.626 182.168,204.908 181.140,199.874 178.275 C 199.173 177.876,197.945 177.156,197.145 176.675 C 196.345 176.194,194.300 174.990,192.600 174.000 C 190.900 173.010,188.855 171.801,188.055 171.314 C 187.255 170.827,186.060 170.139,185.400 169.787 C 184.740 169.434,183.480 168.709,182.600 168.175 C 181.720 167.642,180.427 166.937,179.727 166.609 C 179.027 166.281,178.340 165.827,178.200 165.600 C 178.060 165.373,177.373 164.914,176.673 164.580 C 174.630 163.603,173.015 162.697,172.800 162.407 C 172.690 162.259,172.060 161.856,171.400 161.513 C 165.532 158.460,164.345 157.607,164.636 156.653 C 164.980 155.523,165.862 153.593,166.488 152.600 C 169.299 148.141,170.302 146.510,170.548 146.000 C 170.708 145.670,171.273 144.680,171.804 143.800 C 172.335 142.920,173.132 141.542,173.574 140.737 C 174.017 139.932,174.608 139.181,174.889 139.068 C 175.695 138.745,176.335 138.771,176.561 139.137 M149.871 189.900 C 149.774 190.065,149.566 190.797,149.409 191.527 C 149.253 192.257,148.873 193.337,148.565 193.927 C 148.257 194.517,148.004 195.633,148.002 196.406 C 148.001 197.179,147.667 198.439,147.260 199.206 C 146.852 199.973,146.393 201.565,146.240 202.744 C 146.086 203.923,145.700 205.286,145.382 205.772 C 145.063 206.258,144.690 207.738,144.551 209.060 L 144.300 211.465 146.051 212.492 C 147.039 213.070,148.807 213.643,150.109 213.806 C 151.377 213.964,153.080 214.433,153.892 214.847 C 154.705 215.261,155.941 215.600,156.641 215.600 C 157.340 215.600,158.697 215.956,159.656 216.391 C 160.615 216.826,162.071 217.186,162.890 217.191 C 163.710 217.196,164.970 217.559,165.690 217.999 C 166.423 218.445,167.707 218.798,168.606 218.799 C 169.489 218.799,170.839 219.133,171.606 219.539 C 172.373 219.945,173.964 220.389,175.142 220.525 C 176.321 220.661,177.518 220.966,177.802 221.202 C 178.087 221.438,179.434 221.811,180.796 222.030 C 182.158 222.250,183.661 222.678,184.136 222.982 C 184.611 223.287,186.038 223.661,187.308 223.815 C 188.577 223.968,190.280 224.433,191.092 224.847 C 191.905 225.261,193.257 225.600,194.099 225.600 C 194.940 225.600,196.049 225.876,196.563 226.213 C 197.078 226.550,198.467 226.937,199.649 227.074 C 200.832 227.210,202.427 227.655,203.194 228.061 C 203.961 228.467,205.290 228.800,206.147 228.800 C 207.004 228.800,208.267 229.137,208.953 229.549 C 209.639 229.960,211.100 230.399,212.200 230.523 C 213.300 230.647,214.740 231.012,215.400 231.333 C 216.060 231.654,217.622 232.037,218.872 232.184 C 220.122 232.330,221.345 232.692,221.590 232.988 C 221.836 233.284,223.104 233.650,224.408 233.801 C 225.713 233.952,227.453 234.419,228.275 234.838 C 229.097 235.257,230.457 235.600,231.299 235.600 C 232.140 235.600,233.249 235.876,233.763 236.213 C 234.278 236.550,235.636 236.937,236.782 237.072 C 237.927 237.208,239.518 237.652,240.317 238.060 C 241.116 238.467,242.367 238.800,243.097 238.800 C 243.828 238.800,245.085 239.076,245.892 239.413 C 246.698 239.749,247.563 239.946,247.814 239.850 C 248.514 239.581,250.398 235.465,250.418 234.160 C 250.427 233.522,250.713 232.280,251.053 231.400 C 251.393 230.520,251.852 228.732,252.074 227.427 C 252.296 226.121,252.716 224.681,253.008 224.227 C 254.255 222.282,254.195 218.000,252.920 218.000 C 252.576 218.000,251.733 217.661,251.047 217.246 C 250.361 216.831,248.778 216.370,247.528 216.221 C 246.278 216.072,245.058 215.711,244.816 215.419 C 244.574 215.128,243.359 214.762,242.116 214.607 C 240.874 214.452,239.484 214.082,239.028 213.786 C 238.573 213.490,237.210 213.124,236.000 212.972 C 234.790 212.821,233.510 212.444,233.155 212.136 C 232.800 211.828,231.540 211.463,230.355 211.327 C 229.170 211.190,227.573 210.745,226.806 210.339 C 226.039 209.933,224.817 209.600,224.090 209.600 C 223.363 209.600,222.062 209.240,221.200 208.800 C 220.338 208.360,219.037 208.000,218.310 208.000 C 217.583 208.000,216.361 207.665,215.594 207.256 C 214.827 206.847,213.178 206.385,211.928 206.231 C 210.678 206.076,209.455 205.708,209.210 205.412 C 208.964 205.116,207.657 204.746,206.305 204.589 C 204.953 204.432,203.611 204.068,203.323 203.781 C 203.036 203.493,201.765 203.133,200.500 202.981 C 199.235 202.829,197.910 202.450,197.555 202.140 C 197.200 201.829,195.940 201.468,194.755 201.336 C 193.570 201.205,192.039 200.760,191.353 200.349 C 190.667 199.937,189.451 199.600,188.651 199.600 C 187.852 199.600,186.525 199.240,185.704 198.800 C 184.884 198.360,183.510 198.000,182.653 198.000 C 181.796 198.000,180.533 197.663,179.847 197.251 C 179.161 196.840,177.630 196.395,176.445 196.264 C 175.260 196.132,173.999 195.761,173.643 195.439 C 173.287 195.117,172.007 194.724,170.798 194.566 C 169.589 194.407,168.240 194.046,167.800 193.763 C 167.360 193.479,166.010 193.124,164.800 192.972 C 163.590 192.821,162.310 192.444,161.955 192.136 C 161.600 191.828,160.340 191.463,159.155 191.327 C 157.970 191.190,156.373 190.745,155.606 190.339 C 154.214 189.601,150.226 189.296,149.871 189.900 M153.528 190.963 C 154.126 191.272,155.672 191.721,156.963 191.959 C 158.254 192.198,159.510 192.559,159.755 192.761 C 160.000 192.964,161.370 193.341,162.800 193.600 C 164.230 193.859,165.592 194.229,165.827 194.424 C 166.062 194.618,167.232 194.976,168.427 195.219 C 169.622 195.462,171.167 195.917,171.860 196.230 C 172.554 196.544,173.544 196.808,174.060 196.818 C 174.577 196.827,175.720 197.110,176.600 197.446 C 177.480 197.783,179.280 198.299,180.600 198.593 C 181.920 198.887,183.720 199.406,184.600 199.746 C 185.480 200.087,186.614 200.373,187.120 200.382 C 187.626 200.392,188.533 200.655,189.135 200.966 C 189.738 201.278,191.124 201.716,192.215 201.939 C 193.307 202.163,195.010 202.606,196.000 202.924 C 196.990 203.243,198.610 203.717,199.600 203.978 C 204.603 205.299,206.690 205.899,207.600 206.276 C 208.150 206.504,209.500 206.822,210.600 206.983 C 211.700 207.143,212.835 207.468,213.121 207.704 C 213.408 207.940,214.758 208.360,216.121 208.638 C 217.485 208.916,219.410 209.415,220.400 209.748 C 224.001 210.959,227.818 212.012,228.600 212.008 C 229.040 212.006,229.903 212.267,230.517 212.588 C 231.131 212.908,232.301 213.284,233.117 213.422 C 234.542 213.665,236.693 214.280,242.128 216.000 C 243.519 216.440,245.004 216.808,245.428 216.818 C 245.853 216.827,246.920 217.107,247.800 217.440 C 248.680 217.773,250.210 218.263,251.200 218.531 C 253.208 219.073,253.449 219.985,252.262 222.562 C 251.949 223.243,251.564 224.698,251.407 225.795 C 251.251 226.892,250.894 228.242,250.615 228.795 C 250.335 229.348,249.983 230.520,249.832 231.400 C 249.680 232.280,249.309 233.720,249.006 234.600 C 248.703 235.480,248.345 236.715,248.209 237.344 C 247.935 238.616,244.780 238.631,242.344 237.371 C 241.763 237.071,240.323 236.654,239.144 236.446 C 237.965 236.238,236.190 235.794,235.200 235.460 C 233.130 234.762,230.890 234.177,227.200 233.370 C 225.770 233.058,224.279 232.617,223.887 232.390 C 223.496 232.163,221.966 231.725,220.487 231.417 C 217.576 230.810,213.713 229.797,211.800 229.139 C 211.140 228.912,209.520 228.489,208.200 228.199 C 206.880 227.909,205.080 227.394,204.200 227.054 C 203.320 226.713,202.240 226.427,201.800 226.418 C 201.360 226.408,199.920 226.052,198.600 225.627 C 195.940 224.769,193.881 224.226,190.000 223.356 C 188.570 223.035,186.833 222.509,186.140 222.187 C 185.446 221.864,184.434 221.600,183.891 221.600 C 183.347 221.600,181.524 221.150,179.839 220.600 C 178.154 220.050,176.409 219.600,175.961 219.600 C 175.514 219.600,174.754 219.390,174.274 219.133 C 173.794 218.875,172.320 218.442,171.000 218.169 C 169.680 217.896,167.880 217.394,167.000 217.054 C 166.120 216.713,164.912 216.427,164.315 216.418 C 163.718 216.408,162.316 216.040,161.200 215.600 C 160.084 215.160,158.813 214.800,158.375 214.800 C 157.938 214.800,156.556 214.440,155.304 214.000 C 154.052 213.560,152.571 213.194,152.014 213.186 C 151.456 213.179,150.280 212.825,149.400 212.400 C 148.520 211.975,147.316 211.621,146.724 211.614 C 145.347 211.596,145.168 211.270,145.606 209.578 C 145.803 208.820,146.173 207.390,146.430 206.400 C 146.687 205.410,147.157 203.790,147.476 202.800 C 147.794 201.810,148.232 200.100,148.450 199.000 C 148.668 197.900,149.196 196.048,149.623 194.885 C 150.050 193.722,150.400 192.357,150.400 191.852 C 150.400 190.259,151.540 189.935,153.528 190.963 M100.300 216.432 C 99.271 217.032,99.204 333.362,100.233 333.757 C 101.553 334.264,283.011 334.029,283.520 333.520 C 284.368 332.672,284.199 217.457,283.349 216.606 C 282.636 215.893,267.238 215.826,266.532 216.533 C 266.350 216.717,266.153 239.172,266.095 266.433 L 265.991 316.000 191.595 316.000 L 117.200 316.000 117.200 266.414 C 117.200 217.799,117.185 216.820,116.426 216.414 C 115.410 215.870,101.237 215.886,100.300 216.432 M116.400 266.800 L 116.600 316.600 191.600 316.600 L 266.600 316.600 266.702 267.239 C 266.776 231.113,266.925 217.731,267.258 217.331 C 267.619 216.895,269.274 216.805,275.356 216.892 L 283.000 217.000 283.000 275.000 L 283.000 333.000 191.800 333.000 L 100.600 333.000 100.497 275.400 C 100.441 243.720,100.482 217.571,100.588 217.291 C 100.737 216.899,102.541 216.807,108.491 216.891 L 116.200 217.000 116.400 266.800 M138.803 236.763 C 138.333 237.081,138.151 238.560,137.952 243.684 C 137.812 247.268,137.504 250.684,137.268 251.277 C 137.031 251.869,136.716 253.698,136.567 255.343 C 136.145 259.997,136.455 260.195,144.690 260.534 C 148.243 260.681,151.656 260.995,152.275 261.234 C 152.894 261.472,156.936 261.829,161.258 262.027 C 165.580 262.226,169.621 262.580,170.239 262.815 C 171.491 263.291,179.737 263.970,184.480 263.988 C 186.175 263.995,188.605 264.278,189.880 264.618 C 191.278 264.990,194.823 265.324,198.800 265.459 C 202.430 265.581,206.449 265.942,207.732 266.260 C 209.042 266.585,213.075 266.936,216.932 267.060 C 221.032 267.193,224.606 267.514,225.800 267.857 C 228.291 268.572,244.957 269.358,245.983 268.809 C 246.868 268.335,247.200 266.046,247.200 260.408 C 247.200 257.762,247.428 255.377,247.796 254.164 C 248.455 251.990,248.586 248.113,248.030 247.235 C 247.774 246.830,246.273 246.578,242.736 246.346 C 240.021 246.167,236.540 245.738,235.000 245.392 C 233.460 245.045,229.410 244.611,226.000 244.426 C 222.590 244.241,219.089 243.900,218.220 243.669 C 217.351 243.437,213.661 243.124,210.020 242.973 C 206.379 242.821,203.190 242.531,202.934 242.327 C 202.306 241.830,196.239 241.217,191.800 241.202 C 189.820 241.196,187.210 240.916,186.000 240.580 C 184.790 240.245,180.740 239.808,177.000 239.611 C 173.260 239.413,169.570 239.050,168.800 238.803 C 168.030 238.556,164.340 238.206,160.600 238.025 C 156.786 237.841,153.273 237.474,152.600 237.190 C 151.076 236.546,139.645 236.193,138.803 236.763 M145.203 237.606 C 145.971 237.829,149.390 238.199,152.800 238.427 C 156.210 238.656,160.737 239.104,162.859 239.423 C 164.981 239.742,169.338 240.180,172.541 240.396 C 175.743 240.612,179.137 240.960,180.082 241.169 C 181.027 241.378,184.050 241.664,186.800 241.804 C 189.550 241.944,193.240 242.312,195.000 242.621 C 196.760 242.931,201.139 243.370,204.730 243.597 C 208.322 243.824,212.012 244.175,212.930 244.377 C 213.849 244.578,217.480 244.952,221.000 245.206 C 224.520 245.461,228.120 245.831,229.000 246.028 C 229.880 246.226,233.750 246.585,237.600 246.827 C 241.450 247.069,245.050 247.482,245.600 247.745 L 246.600 248.224 246.500 253.812 C 246.377 260.721,245.651 267.092,244.901 267.842 C 244.248 268.495,239.804 268.313,233.600 267.379 C 231.510 267.065,226.650 266.620,222.800 266.390 C 218.950 266.161,214.990 265.808,214.000 265.604 C 213.010 265.401,209.021 265.045,205.137 264.814 C 201.252 264.582,197.138 264.216,195.994 263.999 C 194.851 263.782,190.629 263.418,186.613 263.190 C 182.596 262.962,178.700 262.600,177.955 262.386 C 177.210 262.172,173.180 261.806,169.000 261.573 C 164.820 261.340,160.680 260.990,159.800 260.795 C 158.920 260.601,155.320 260.250,151.800 260.016 C 143.606 259.471,138.939 258.850,138.431 258.237 C 138.058 257.788,138.856 242.354,139.363 240.200 C 139.467 239.760,139.656 238.905,139.784 238.300 C 140.044 237.063,142.327 236.770,145.203 237.606 M136.023 277.862 C 135.217 278.886,135.191 279.298,135.293 289.351 L 135.400 299.777 136.400 300.283 C 137.993 301.088,245.080 301.028,247.013 300.220 L 248.400 299.641 248.400 289.295 L 248.400 278.950 247.278 277.875 L 246.156 276.800 191.507 276.800 L 136.858 276.800 136.023 277.862 M246.605 279.300 C 246.726 279.795,246.775 284.520,246.713 289.800 L 246.600 299.400 191.700 299.501 L 136.800 299.603 136.800 289.268 C 136.800 283.584,136.920 278.813,137.067 278.667 C 137.213 278.520,161.870 278.400,191.859 278.400 L 246.385 278.400 246.605 279.300 " stroke="none" fill="#f58025" fill-rule="evenodd"/></g></g></svg>