<svg xmlns="http://www.w3.org/2000/svg" xmlns:xlink="http://www.w3.org/1999/xlink" width="NaN" height="NaN"><rect id="backgroundrect" width="100%" height="100%" x="0" y="0" fill="none" stroke="none"/><g class="currentLayer" style=""><title>Layer 1</title><g id="svgg" class="selected" fill-opacity="1" fill="#f58025"><path id="path0" d="M8.417404963101324,0.12175997233195304 C4.620338176123979,0.8069577130944298 1.5135590317683267,3.6665130528594463 0.47667331016172043,7.430616665891375 L0.20399999627499008,8.419996636811938 L0.20399999627499008,48.436805053991435 L0.20399999627499008,88.45361347117094 L0.47667331016172043,89.4429934420915 C1.4403613955071772,92.94169502960702 4.1360703706611455,95.6238309331364 7.672097905144261,96.6023039715015 L8.61300262026274,96.86261609515869 L48.184565812900075,96.89121649608192 C84.48501874401272,96.91715075793604 87.83805218784295,96.90624382538056 88.74550897645798,96.75718241378914 C92.93013543357301,96.07077279163163 96.21845441090748,92.7877860924354 96.95236978375105,88.56437943067871 C97.18480863532204,87.22646237054114 97.18480863532204,9.647147737441728 96.95236978375105,8.309230677304175 C96.22305956020864,4.112000653680611 92.95752395310119,0.8309529647164621 88.80222502574645,0.12103284349492185 C87.46018756886569,-0.10849749272795259 9.688426170232004,-0.10777036389092133 8.417404963101324,0.12175997233195304 M69.84815763085203,22.75412977748858 C75.38136570438107,30.202595207758012 79.92810232233766,36.348045762067386 79.9520975739597,36.410578842052075 C80.00033045348277,36.535887378300465 74.82196125242501,40.440811609437446 74.58128160736766,40.46068646431631 C74.33090691114988,40.48128844803219 54.03528681193278,13.110704764500728 54.191619511894494,12.96285523430437 C54.94201647171079,12.251965607966785 59.566555875229724,8.97721970225691 59.66811153613509,9.084834770137537 C59.73403788402592,9.154396762213533 64.31494955732299,15.305664347219153 69.84815763085203,22.75412977748858 M60.15116746020288,30.917605230838767 C67.36598215750625,36.92514368239121 73.25645286629666,41.87737581513226 73.24142553699801,41.92245780302819 C73.18495186398859,42.08993981182439 68.98554045385393,47.05186699572585 68.90022400364226,47.05186699572585 C68.76061526693225,47.05186699572585 42.64457120355876,25.26078525501442 42.64457120355876,25.14444464108941 C42.64457120355876,25.008713924843576 46.87743054019685,19.94256494096763 46.96589788203565,19.972134847006902 C47.00298145272425,19.984496037236436 52.936352762899496,24.910066779286336 60.15116746020288,30.917605230838767 M52.48795664673021,41.51575040684869 C60.949070170705205,45.450729296582985 67.88660640482064,48.681120343233935 67.90502700202545,48.694208662300504 C67.92344759923023,48.70753935764609 67.28478610403775,50.116715043812704 66.48591388841939,51.82619493967326 L65.03335284830992,54.934185965423936 L55.57025578690581,50.51954441952803 C50.3654675714359,48.091661232680586 43.38163746802947,44.83800206324461 40.05066026558917,43.289217640367994 C36.719440686869866,41.74019084121235 33.99270754800256,40.43838784664735 33.9912532903285,40.395971997820524 C33.97889210009897,40.067552139761396 36.81178604917283,34.21222599142751 36.94897102309274,34.2820303597825 C37.03452984958341,34.32565809000438 44.02708549903423,37.580771517114414 52.48795664673021,41.51575040684869 M47.70563028557548,53.34225856488347 C56.89241838890768,55.27860265789777 64.42086799125055,56.87465045518142 64.43516819171217,56.888708279364046 C64.46449572147245,56.91779343284529 63.0853746939031,63.495158516351225 63.04053508228618,63.53999812796817 C62.99618022322727,63.58411061074808 29.633085417442015,56.57967852362575 29.5652200593191,56.511813165502815 C29.47869172771237,56.425284833896086 30.854419487375548,49.82174311225702 30.958883663629052,49.82174311225702 C30.982878915251085,49.82174311225702 38.51884218224326,51.40615684814817 47.70563028557548,53.34225856488347 M20.756054198685128,70.2259477844708 L20.78126133170221,80.34152178897097 L46.62657109142106,80.36624416943003 L72.4716384748609,80.3912089261681 L72.4716384748609,70.25091254120885 L72.4716384748609,60.11037377997063 L74.89540126496516,60.11037377997063 L77.31916405506944,60.11037377997063 L77.31916405506944,72.67467533131313 L77.31916405506944,85.23873450637664 L46.62657109142106,85.21376974963856 L15.933735751493675,85.1890473691795 L15.908286242197578,72.77332247687039 C15.894228418014974,65.94485556830963 15.90392346917539,60.302093416667866 15.929857731029509,60.23398568226593 C15.965729420323049,60.13994368600989 16.543554469483908,60.11037377997063 18.353862897412785,60.11037377997063 L20.73084706566804,60.11037377997063 L20.756054198685128,70.2259477844708 M63.122943017149716,68.71715544763089 L63.122943017149716,72.1302982086557 L45.98354682320639,72.15526296539379 L28.84390825298406,72.18022772213187 L28.84390825298406,68.71715544763089 L28.84390825298406,65.25408317312991 L45.98354682320639,65.27929030614699 L63.122943017149716,65.30425506288508 L63.122943017149716,68.71715544763089 " stroke="none" fill="#f58025" fill-rule="evenodd"/></g></g></svg>