<svg xmlns="http://www.w3.org/2000/svg" xmlns:xlink="http://www.w3.org/1999/xlink" width="NaN" height="NaN" style=""><rect id="backgroundrect" width="100%" height="100%" x="0" y="0" fill="none" stroke="none"/><g class="currentLayer" style=""><title>Layer 1</title><path id="path0" d="M37.09100000000001,2.6610000000000014 C21.424999999999955,5.4879999999999995 8.606999999999971,17.286 4.328999999999951,32.81600000000003 L3.203999999999951,36.898000000000025 L3.203999999999951,202 L3.203999999999951,367.102 L4.328999999999951,371.18399999999997 C8.305000000000064,385.619 19.42700000000002,396.68499999999995 34.016000000000076,400.722 L37.898000000000025,401.79600000000005 L201.163,401.914 C350.932,402.02099999999996 364.7660000000001,401.976 368.51,401.361 C385.7750000000001,398.529 399.3420000000001,384.9839999999999 402.3699999999999,367.55899999999997 C403.32899999999995,362.039 403.32899999999995,41.96100000000001 402.3699999999999,36.44100000000003 C399.3609999999999,19.124000000000024 385.8879999999999,5.586999999999989 368.74400000000014,2.6580000000000155 C363.2069999999999,1.7110000000000127 42.335000000000036,1.7139999999999986 37.09100000000001,2.6610000000000014 M290.5430000000001,96.03800000000001 C313.37200000000007,126.769 332.13099999999986,152.12400000000002 332.23,152.382 C332.4290000000001,152.899 311.0640000000001,169.01 310.0709999999999,169.09199999999998 C309.038,169.17700000000002 225.30200000000002,56.250999999999976 225.947,55.64099999999996 C229.043,52.70799999999997 248.12300000000005,39.197 248.54199999999992,39.64099999999996 C248.81399999999985,39.928 267.71399999999994,65.30700000000002 290.5430000000001,96.03800000000001 M250.53499999999985,129.719 C280.30200000000013,154.505 304.605,174.937 304.5430000000001,175.123 C304.30999999999995,175.81399999999996 286.9839999999999,196.286 286.63200000000006,196.286 C286.05600000000004,196.286 178.30600000000004,106.38 178.30600000000004,105.89999999999998 C178.30600000000004,105.34000000000003 195.76999999999998,84.43799999999999 196.135,84.56 C196.288,84.61099999999999 220.76800000000003,104.93299999999999 250.53499999999985,129.719 M218.918,173.445 C253.827,189.68 282.45000000000005,203.00800000000004 282.52600000000007,203.062 C282.60199999999986,203.11699999999996 279.9670000000001,208.93100000000004 276.67100000000005,215.98400000000004 L270.6779999999999,228.80700000000002 L231.635,210.59299999999996 C210.16100000000006,200.57600000000002 181.34699999999998,187.152 167.60400000000004,180.762 C153.86,174.37099999999998 142.61,169 142.60400000000004,168.825 C142.553,167.47000000000003 154.24099999999999,143.312 154.80700000000002,143.60000000000002 C155.15999999999997,143.77999999999997 184.01,157.21000000000004 218.918,173.445 M199.187,222.23900000000003 C237.09000000000015,230.228 268.15100000000007,236.813 268.21000000000004,236.87099999999998 C268.33100000000013,236.99099999999999 262.6410000000001,264.12799999999993 262.45600000000013,264.313 C262.27300000000014,264.495 124.62300000000005,235.596 124.34300000000007,235.31600000000003 C123.98599999999999,234.959 129.66200000000003,207.714 130.09300000000007,207.714 C130.192,207.714 161.284,214.25099999999998 199.187,222.23900000000003 M87.99800000000005,291.898 L88.10199999999998,333.63300000000004 L194.735,333.735 L301.36699999999996,333.83799999999997 L301.36699999999996,292.001 L301.36699999999996,250.163 L311.36699999999996,250.163 L321.36699999999996,250.163 L321.36699999999996,302.001 L321.36699999999996,353.83799999999997 L194.735,353.735 L68.10199999999998,353.63300000000004 L67.99700000000007,302.408 C67.93899999999996,274.235 67.97900000000004,250.954 68.08600000000001,250.673 C68.23399999999992,250.28499999999997 70.61799999999994,250.163 78.08699999999999,250.163 L87.894,250.163 L87.99800000000005,291.898 M262.79600000000005,285.673 L262.79600000000005,299.755 L192.082,299.85799999999995 L121.36699999999996,299.961 L121.36699999999996,285.673 L121.36699999999996,271.385 L192.082,271.48900000000003 L262.79600000000005,271.592 L262.79600000000005,285.673 " stroke="none" fill="#f58025" fill-rule="evenodd" class="selected"/></g></svg>