<svg xmlns="http://www.w3.org/2000/svg" xmlns:xlink="http://www.w3.org/1999/xlink" width="400,400" height="undefined"><rect id="backgroundrect" width="100%" height="100%" x="0" y="0" fill="none" stroke="none"/><g class="currentLayer" style=""><title>Layer 1</title><g id="svgg" class="selected" fill-opacity="1" fill="#f58025"><path id="path0" d="M34.091 0.661 C 18.425 3.488,5.607 15.286,1.329 30.816 L 0.204 34.898 0.204 200.000 L 0.204 365.102 1.329 369.184 C 5.305 383.619,16.427 394.685,31.016 398.722 L 34.898 399.796 198.163 399.914 C 347.932 400.021,361.766 399.976,365.510 399.361 C 382.775 396.529,396.342 382.984,399.370 365.559 C 400.329 360.039,400.329 39.961,399.370 34.441 C 396.361 17.124,382.888 3.587,365.744 0.658 C 360.207 -0.289,39.335 -0.286,34.091 0.661 M287.543 94.038 C 310.372 124.769,329.131 150.124,329.230 150.382 C 329.429 150.899,308.064 167.010,307.071 167.092 C 306.038 167.177,222.302 54.251,222.947 53.641 C 226.043 50.708,245.123 37.197,245.542 37.641 C 245.814 37.928,264.714 63.307,287.543 94.038 M247.535 127.719 C 277.302 152.505,301.605 172.937,301.543 173.123 C 301.310 173.814,283.984 194.286,283.632 194.286 C 283.056 194.286,175.306 104.380,175.306 103.900 C 175.306 103.340,192.770 82.438,193.135 82.560 C 193.288 82.611,217.768 102.933,247.535 127.719 M215.918 171.445 C 250.827 187.680,279.450 201.008,279.526 201.062 C 279.602 201.117,276.967 206.931,273.671 213.984 L 267.678 226.807 228.635 208.593 C 207.161 198.576,178.347 185.152,164.604 178.762 C 150.860 172.371,139.610 167.000,139.604 166.825 C 139.553 165.470,151.241 141.312,151.807 141.600 C 152.160 141.780,181.010 155.210,215.918 171.445 M196.187 220.239 C 234.090 228.228,265.151 234.813,265.210 234.871 C 265.331 234.991,259.641 262.128,259.456 262.313 C 259.273 262.495,121.623 233.596,121.343 233.316 C 120.986 232.959,126.662 205.714,127.093 205.714 C 127.192 205.714,158.284 212.251,196.187 220.239 M84.998 289.898 L 85.102 331.633 191.735 331.735 L 298.367 331.838 298.367 290.001 L 298.367 248.163 308.367 248.163 L 318.367 248.163 318.367 300.001 L 318.367 351.838 191.735 351.735 L 65.102 351.633 64.997 300.408 C 64.939 272.235,64.979 248.954,65.086 248.673 C 65.234 248.285,67.618 248.163,75.087 248.163 L 84.894 248.163 84.998 289.898 M259.796 283.673 L 259.796 297.755 189.082 297.858 L 118.367 297.961 118.367 283.673 L 118.367 269.385 189.082 269.489 L 259.796 269.592 259.796 283.673 " stroke="none" fill="#f58025" fill-rule="evenodd"/></g></g></svg>